<svg width="25" height="26" viewBox="0 0 25 26" fill="none" xmlns="http://www.w3.org/2000/svg">
	<path d="M9.28158 22.473C9.08366 22.473 8.88574 22.4001 8.72949 22.2438C8.42741 21.9417 8.42741 21.4417 8.72949 21.1396L15.5212 14.348C16.0212 13.848 16.0212 13.0355 15.5212 12.5355L8.72949 5.74382C8.42741 5.44173 8.42741 4.94173 8.72949 4.63965C9.03158 4.33757 9.53157 4.33757 9.83366 4.63965L16.6253 11.4313C17.1566 11.9626 17.4587 12.6813 17.4587 13.4417C17.4587 14.2021 17.167 14.9209 16.6253 15.4522L9.83366 22.2438C9.67741 22.3897 9.47949 22.473 9.28158 22.473Z" fill="#1164E7" />
</svg>
