<svg width="25" height="24" viewBox="0 0 25 24" fill="none" xmlns="http://www.w3.org/2000/svg">
<path d="M14.9311 18.8191C14.7411 18.8191 14.5511 18.7491 14.4011 18.5991C14.1111 18.3091 14.1111 17.8291 14.4011 17.5391L19.9411 11.9991L14.4011 6.45914C14.1111 6.16914 14.1111 5.68914 14.4011 5.39914C14.6911 5.10914 15.1711 5.10914 15.4611 5.39914L21.5311 11.4691C21.8211 11.7591 21.8211 12.2391 21.5311 12.5291L15.4611 18.5991C15.3111 18.7491 15.1211 18.8191 14.9311 18.8191Z" fill="white"/>
<path d="M20.83 12.75H4C3.59 12.75 3.25 12.41 3.25 12C3.25 11.59 3.59 11.25 4 11.25H20.83C21.24 11.25 21.58 11.59 21.58 12C21.58 12.41 21.24 12.75 20.83 12.75Z" fill="white"/>
</svg>
