<svg width="33" height="34" viewBox="0 0 33 34" fill="none" xmlns="http://www.w3.org/2000/svg">
	<path d="M11.7969 17.276L11.6201 17.4528C11.3714 17.2041 11.3714 16.7959 11.6201 16.5472L14.7816 13.3857M11.7969 17.276L14.7816 13.3857M11.7969 17.276L11.6201 17.4528L14.7816 20.6143C14.909 20.7418 15.0727 20.8021 15.2344 20.8021M11.7969 17.276L15.2344 20.8021M14.7816 13.3857C15.0302 13.1371 15.4385 13.1371 15.6872 13.3857C15.9359 13.6344 15.9359 14.0427 15.6872 14.2914L12.9786 17L15.6872 19.7086C15.9349 19.9563 15.9359 20.3623 15.6902 20.6113C15.5627 20.7459 15.3894 20.8021 15.2344 20.8021M14.7816 13.3857L15.2344 20.8021" fill="#1164E7" stroke="#1164E7" stroke-width="0.5" />
	<path d="M12.1611 17.6406H20.9268C21.2784 17.6406 21.5674 17.3516 21.5674 17C21.5674 16.6484 21.2784 16.3594 20.9268 16.3594H12.1611C11.8095 16.3594 11.5205 16.6484 11.5205 17C11.5205 17.3516 11.8095 17.6406 12.1611 17.6406Z" fill="#1164E7" stroke="#1164E7" stroke-width="0.5" />
</svg>
