<svg width="34" height="34" viewBox="0 0 34 34" fill="none" xmlns="http://www.w3.org/2000/svg">
	<path d="M17.8125 20.6143C17.94 20.7418 18.1036 20.8021 18.2653 20.8021C18.427 20.8021 18.5906 20.7418 18.7181 20.6143L21.8796 17.4528C22.1282 17.2041 22.1282 16.7959 21.8796 16.5472L18.7181 13.3857C18.4694 13.1371 18.0612 13.1371 17.8125 13.3857C17.5638 13.6344 17.5638 14.0427 17.8125 14.2914L20.5211 17L17.8125 19.7086C17.5638 19.9573 17.5638 20.3656 17.8125 20.6143Z" fill="#1164E7" stroke="#1164E7" stroke-width="0.5" />
	<path d="M12.5732 17.6406H21.3389C21.6905 17.6406 21.9795 17.3516 21.9795 17C21.9795 16.6484 21.6905 16.3594 21.3389 16.3594H12.5732C12.2216 16.3594 11.9326 16.6484 11.9326 17C11.9326 17.3516 12.2216 17.6406 12.5732 17.6406Z" fill="#1164E7" stroke="#1164E7" stroke-width="0.5" />
</svg>
