<svg width="33" height="25" viewBox="0 0 33 25" fill="none" xmlns="http://www.w3.org/2000/svg">
	<path fill-rule="evenodd" clip-rule="evenodd" d="M10.2799 1.70413C11.0289 0.962747 12.0401 0.546875 13.094 0.546875H29C31.2091 0.546875 33 2.33774 33 4.54688V20.5469C33 22.756 31.2091 24.5469 29 24.5469H13.094C12.0401 24.5469 11.0289 24.131 10.2799 23.3896L0.762408 13.9682C-0.0282359 13.1856 -0.028236 11.9082 0.762408 11.1255L10.2799 1.70413Z" fill="#E9E9E9" />
	<path d="M25.7569 16.4406C25.4728 16.4406 25.1886 16.3359 24.9642 16.1115L17.5753 8.70767C17.1416 8.27391 17.1416 7.55596 17.5753 7.1222C18.0091 6.68843 18.727 6.68843 19.1608 7.1222L26.5497 14.526C26.9834 14.9598 26.9834 15.6778 26.5497 16.1115C26.3253 16.3359 26.0411 16.4406 25.7569 16.4406Z" fill="#14205B" />
	<path d="M18.3681 16.4403C18.0839 16.4403 17.7997 16.3356 17.5753 16.1112C17.1416 15.6774 17.1416 14.9595 17.5753 14.5257L24.9642 7.13684C25.398 6.70308 26.1159 6.70308 26.5497 7.13684C26.9834 7.5706 26.9834 8.28855 26.5497 8.72231L19.1608 16.1112C18.9364 16.3356 18.6522 16.4403 18.3681 16.4403Z" fill="#14205B" />
</svg>
