<svg width="60" height="60" viewBox="0 0 60 60" fill="none" xmlns="http://www.w3.org/2000/svg">
<path d="M52.5079 38.9457C51.9544 37.5494 51.2234 36.2302 50.3329 35.0207C49.1996 33.6713 48.4333 32.0525 48.1079 30.3207C48.1079 23.0957 48.1079 20.6457 44.1579 15.9207C42.8484 14.3776 41.2304 13.1258 39.4079 12.2457L37.5829 11.3707C37.4809 11.3084 37.3952 11.2227 37.3329 11.1207C37.2713 11.0489 37.2284 10.963 37.2079 10.8707C36.9426 9.15484 36.0424 7.60128 34.6858 6.5178C33.3291 5.43432 31.615 4.89999 29.8829 5.02067C28.2068 4.95314 26.5632 5.4963 25.2573 6.54924C23.9515 7.60219 23.0723 9.09333 22.7829 10.7457C22.7566 10.8758 22.6962 10.9965 22.6079 11.0957C22.5472 11.1769 22.4707 11.2449 22.3829 11.2957L20.4329 12.2457C18.591 13.1168 16.9614 14.3795 15.6579 15.9457C11.7329 20.6457 11.7329 23.0957 11.7329 30.3207C11.4419 31.9475 10.7358 33.4717 9.68294 34.7457C8.76374 35.9861 8.02318 37.3494 7.48294 38.7957C7.14681 39.7699 7.03077 40.8066 7.14316 41.8311C7.25555 42.8556 7.59358 43.8424 8.13294 44.7207C8.70333 45.4475 9.44468 46.0218 10.2909 46.3926C11.1371 46.7634 12.062 46.919 12.9829 46.8457H20.0329C20.1413 47.519 20.3246 48.169 20.5829 48.7957C21.0779 50.0382 21.8279 51.1632 22.7829 52.0957C23.7079 53.0457 24.8229 53.7882 26.0579 54.2707C27.2079 54.7407 28.4404 54.9882 29.6829 54.9957H30.0829C32.6977 54.9781 35.2015 53.9371 37.0579 52.0957C37.9925 51.1587 38.7318 50.0455 39.2329 48.8207C39.4863 48.1807 39.6779 47.5223 39.8079 46.8457H47.1579C48.023 46.8365 48.8758 46.6403 49.6579 46.2707C50.5359 45.8272 51.2914 45.1748 51.8579 44.3707C52.4229 43.5649 52.7676 42.6256 52.8579 41.6457C52.9694 40.7306 52.849 39.8021 52.5079 38.9457ZM29.8329 39.3707C29.3357 39.3707 28.8587 39.1731 28.5071 38.8215C28.1555 38.4699 27.9579 37.9929 27.9579 37.4957C27.9579 36.9984 28.1555 36.5215 28.5071 36.1698C28.8587 35.8182 29.3357 35.6207 29.8329 35.6207C30.3302 35.6207 30.8071 35.8182 31.1588 36.1698C31.5104 36.5215 31.7079 36.9984 31.7079 37.4957C31.7079 37.9929 31.5104 38.4699 31.1588 38.8215C30.8071 39.1731 30.3302 39.3707 29.8329 39.3707ZM35.2329 28.0707C34.9412 28.7484 34.5161 29.3606 33.9829 29.8707C33.4279 30.3632 32.7829 30.7457 32.0829 30.9957C31.9984 31.0417 31.929 31.1111 31.8829 31.1957C31.8037 31.2855 31.7593 31.4009 31.7579 31.5207V32.3957C31.7579 32.8929 31.5604 33.3699 31.2088 33.7215C30.8571 34.0731 30.3802 34.2707 29.8829 34.2707C29.3857 34.2707 28.9087 34.0731 28.5571 33.7215C28.2055 33.3699 28.0079 32.8929 28.0079 32.3957V31.4457C28.0202 30.5513 28.2988 29.681 28.8079 28.9457C29.3176 28.2486 30.0222 27.718 30.8329 27.4207C31.0518 27.3399 31.2549 27.2214 31.4329 27.0707C31.5696 26.9189 31.6871 26.751 31.7829 26.5707C31.8359 26.3657 31.8359 26.1506 31.7829 25.9457C31.7799 25.7314 31.7375 25.5196 31.6579 25.3207C31.5011 25.09 31.3067 24.8872 31.0829 24.7207C30.8288 24.5262 30.5261 24.4051 30.2079 24.3707C29.7323 24.2692 29.2361 24.34 28.8079 24.5707C28.387 24.7746 28.0509 25.1196 27.8579 25.5457C27.7591 25.775 27.6155 25.9822 27.4356 26.1554C27.2557 26.3286 27.0432 26.4642 26.8103 26.5544C26.5774 26.6445 26.3289 26.6874 26.0793 26.6804C25.8297 26.6735 25.584 26.6169 25.3565 26.5139C25.129 26.411 24.9243 26.2637 24.7544 26.0808C24.5844 25.8979 24.4526 25.6829 24.3666 25.4485C24.2806 25.2141 24.2422 24.9648 24.2536 24.7154C24.265 24.466 24.326 24.2213 24.4329 23.9957C24.9837 22.8166 25.9058 21.8506 27.0579 21.2457C28.2165 20.6372 29.5457 20.4347 30.8329 20.6707C31.7279 20.8082 32.5829 21.1407 33.3329 21.6457C34.0629 22.1807 34.6604 22.8707 35.0829 23.6707C35.4237 24.3543 35.6033 25.1069 35.6079 25.8707C35.6429 26.6232 35.5154 27.3732 35.2329 28.0707Z" fill="#E3BE00"/>
</svg>
