<svg width="38" height="37" viewBox="0 0 38 37" fill="none" xmlns="http://www.w3.org/2000/svg">
<path d="M14.9685 32.2385C16.043 33.1869 17.4544 33.7623 19.0002 33.7623C20.546 33.7623 21.9575 33.1869 23.0319 32.2385M28.1431 12.429C28.1431 10.0042 27.1798 7.67863 25.4652 5.96401C23.7506 4.2494 21.4251 3.28613 19.0002 3.28613C16.5754 3.28613 14.2499 4.2494 12.5352 5.96401C10.8206 7.67863 9.85736 10.0042 9.85736 12.429C9.85736 17.1378 8.6695 20.3619 7.34256 22.4944C6.22327 24.2932 5.66362 25.1926 5.68414 25.4435C5.70686 25.7213 5.76572 25.8272 5.98959 25.9933C6.19177 26.1433 7.10321 26.1433 8.92609 26.1433H29.0743C30.8972 26.1433 31.8087 26.1433 32.0108 25.9933C32.2347 25.8272 32.2936 25.7213 32.3163 25.4435C32.3368 25.1926 31.7772 24.2932 30.6579 22.4944C29.3309 20.3619 28.1431 17.1378 28.1431 12.429Z" stroke="#14205B" stroke-width="2" stroke-linecap="round" stroke-linejoin="round"/>
</svg>
