<svg width="24" height="25" viewBox="0 0 24 25" fill="none" xmlns="http://www.w3.org/2000/svg">
	<path d="M15.9853 23.2498H7.99246C3.37659 23.2498 2.51736 21.0998 2.29756 19.0098L1.54823 10.9998C1.43833 9.94977 1.40835 8.39977 2.44742 7.23977C3.34662 6.23977 4.83529 5.75977 6.99336 5.75977H16.9844C19.1525 5.75977 20.6411 6.24977 21.5304 7.23977C22.5694 8.39977 22.5395 9.94977 22.4296 11.0098L21.6802 18.9998C21.4604 21.0998 20.6012 23.2498 15.9853 23.2498ZM6.99336 7.24977C5.30487 7.24977 4.1459 7.57977 3.55643 8.23977C3.06687 8.77977 2.90701 9.60977 3.0369 10.8498L3.78623 18.8598C3.95607 20.4398 4.38569 21.7498 7.99246 21.7498H15.9853C19.5821 21.7498 20.0217 20.4398 20.1916 18.8498L20.9409 10.8598C21.0708 9.60977 20.9109 8.77977 20.4213 8.23977C19.8319 7.57977 18.6729 7.24977 16.9844 7.24977H6.99336Z" fill="#0A3D8D" />
	<path d="M15.9863 7.25C15.5767 7.25 15.237 6.91 15.237 6.5V5.7C15.237 3.92 15.237 3.25 12.7892 3.25H11.1906C8.7428 3.25 8.7428 3.92 8.7428 5.7V6.5C8.7428 6.91 8.4031 7.25 7.99347 7.25C7.58384 7.25 7.24414 6.91 7.24414 6.5V5.7C7.24414 3.94 7.24414 1.75 11.1906 1.75H12.7892C16.7357 1.75 16.7357 3.94 16.7357 5.7V6.5C16.7357 6.91 16.396 7.25 15.9863 7.25Z" fill="#0A3D8D" />
	<path d="M11.9897 17.25C9.24219 17.25 9.24219 15.55 9.24219 14.53V13.5C9.24219 12.09 9.58188 11.75 10.9906 11.75H12.9888C14.3976 11.75 14.7373 12.09 14.7373 13.5V14.5C14.7373 15.54 14.7373 17.25 11.9897 17.25ZM10.7408 13.25C10.7408 13.33 10.7408 13.42 10.7408 13.5V14.53C10.7408 15.56 10.7408 15.75 11.9897 15.75C13.2386 15.75 13.2386 15.59 13.2386 14.52V13.5C13.2386 13.42 13.2386 13.33 13.2386 13.25C13.1587 13.25 13.0688 13.25 12.9888 13.25H10.9906C10.9107 13.25 10.8208 13.25 10.7408 13.25Z" fill="#0A3D8D" />
	<path d="M13.9871 15.2702C13.6175 15.2702 13.2878 14.9902 13.2478 14.6102C13.1978 14.2002 13.4876 13.8202 13.8972 13.7702C16.5348 13.4402 19.0626 12.4402 21.1907 10.8902C21.5204 10.6402 21.99 10.7202 22.2397 11.0602C22.4795 11.3902 22.4096 11.8602 22.0699 12.1102C19.732 13.8102 16.9745 14.9002 14.077 15.2702C14.0471 15.2702 14.0171 15.2702 13.9871 15.2702Z" fill="#0A3D8D" />
	<path d="M9.9915 15.2799C9.96152 15.2799 9.93155 15.2799 9.90158 15.2799C7.16403 14.9699 4.49641 13.9699 2.18848 12.3899C1.84878 12.1599 1.75886 11.6899 1.98866 11.3499C2.21845 11.0099 2.68803 10.9199 3.02773 11.1499C5.13584 12.5899 7.56367 13.4999 10.0614 13.7899C10.4711 13.8399 10.7708 14.2099 10.7208 14.6199C10.6909 14.9999 10.3712 15.2799 9.9915 15.2799Z" fill="#0A3D8D" />
</svg>
