<svg width="20" height="20" viewBox="0 0 20 20" fill="none" xmlns="http://www.w3.org/2000/svg">
<path d="M10.8307 18.9596H4.16406C2.1474 18.9596 1.03906 17.8513 1.03906 15.8346V9.16797C1.03906 7.1513 2.1474 6.04297 4.16406 6.04297H8.33073C8.6724 6.04297 8.95573 6.3263 8.95573 6.66797V15.8346C8.95573 17.1513 9.51406 17.7096 10.8307 17.7096C11.1724 17.7096 11.4557 17.993 11.4557 18.3346C11.4557 18.6763 11.1724 18.9596 10.8307 18.9596ZM4.16406 7.29297C2.8474 7.29297 2.28906 7.8513 2.28906 9.16797V15.8346C2.28906 17.1513 2.8474 17.7096 4.16406 17.7096H8.16405C7.86405 17.218 7.70573 16.593 7.70573 15.8346V7.29297H4.16406Z" fill="#3D3D3D"/>
<path d="M8.33073 7.29036H4.16406C3.8224 7.29036 3.53906 7.00703 3.53906 6.66536V4.9987C3.53906 3.73203 4.56406 2.70703 5.83073 2.70703H8.42238C8.61405 2.70703 8.79741 2.79868 8.91407 2.94868C9.03074 3.10701 9.07238 3.30703 9.02239 3.49037C8.97238 3.6737 8.95573 3.88203 8.95573 4.16536V6.66536C8.95573 7.00703 8.6724 7.29036 8.33073 7.29036ZM4.78906 6.04036H7.70573V4.16536C7.70573 4.09036 7.70573 4.0237 7.70573 3.95703H5.83073C5.25573 3.95703 4.78906 4.4237 4.78906 4.9987V6.04036Z" fill="#3D3D3D"/>
<path d="M11.6641 11.4596C11.3224 11.4596 11.0391 11.1763 11.0391 10.8346V6.66797C11.0391 6.3263 11.3224 6.04297 11.6641 6.04297C12.0057 6.04297 12.2891 6.3263 12.2891 6.66797V10.8346C12.2891 11.1763 12.0057 11.4596 11.6641 11.4596Z" fill="#292D32"/>
<path d="M15 11.4596C14.6583 11.4596 14.375 11.1763 14.375 10.8346V6.66797C14.375 6.3263 14.6583 6.04297 15 6.04297C15.3417 6.04297 15.625 6.3263 15.625 6.66797V10.8346C15.625 11.1763 15.3417 11.4596 15 11.4596Z" fill="#292D32"/>
<path d="M14.9974 18.9596H11.6641C11.3224 18.9596 11.0391 18.6763 11.0391 18.3346V15.0013C11.0391 14.2013 11.6974 13.543 12.4974 13.543H14.1641C14.9641 13.543 15.6224 14.2013 15.6224 15.0013V18.3346C15.6224 18.6763 15.3391 18.9596 14.9974 18.9596ZM12.2891 17.7096H14.3724V15.0013C14.3724 14.8846 14.2807 14.793 14.1641 14.793H12.4974C12.3807 14.793 12.2891 14.8846 12.2891 15.0013V17.7096Z" fill="#292D32"/>
<path d="M5 14.7904C4.65833 14.7904 4.375 14.507 4.375 14.1654V10.832C4.375 10.4904 4.65833 10.207 5 10.207C5.34167 10.207 5.625 10.4904 5.625 10.832V14.1654C5.625 14.507 5.34167 14.7904 5 14.7904Z" fill="#292D32"/>
<path d="M15.8359 18.9596H10.8359C8.81927 18.9596 7.71094 17.8513 7.71094 15.8346V4.16797C7.71094 2.1513 8.81927 1.04297 10.8359 1.04297H15.8359C17.8526 1.04297 18.9609 2.1513 18.9609 4.16797V15.8346C18.9609 17.8513 17.8526 18.9596 15.8359 18.9596ZM10.8359 2.29297C9.51927 2.29297 8.96094 2.8513 8.96094 4.16797V15.8346C8.96094 17.1513 9.51927 17.7096 10.8359 17.7096H15.8359C17.1526 17.7096 17.7109 17.1513 17.7109 15.8346V4.16797C17.7109 2.8513 17.1526 2.29297 15.8359 2.29297H10.8359Z" fill="#292D32"/>
</svg>
