<svg width="28" height="27" viewBox="0 0 28 27" fill="none" xmlns="http://www.w3.org/2000/svg">
	<path d="M24.9924 25.3169H3.00707C2.55637 25.3169 2.18262 24.9431 2.18262 24.4924C2.18262 24.0417 2.55637 23.668 3.00707 23.668H24.9924C25.4431 23.668 25.8168 24.0417 25.8168 24.4924C25.8168 24.9431 25.4431 25.3169 24.9924 25.3169Z" fill="#14205B" />
	<path d="M23.8934 25.3168H4.10668C3.65598 25.3168 3.28223 24.9431 3.28223 24.4924V6.90413C3.28223 3.58435 5.18395 1.68262 8.50373 1.68262H19.4964C22.8162 1.68262 24.7179 3.58435 24.7179 6.90413V24.4924C24.7179 24.9431 24.3441 25.3168 23.8934 25.3168ZM4.93112 23.6679H23.069V6.90413C23.069 4.46376 21.9368 3.33151 19.4964 3.33151H8.50373C6.06337 3.33151 4.93112 4.46376 4.93112 6.90413V23.6679Z" fill="#14205B" />
	<path d="M11.801 19.271H8.50316C8.05246 19.271 7.67871 18.8972 7.67871 18.4465C7.67871 17.9958 8.05246 17.6221 8.50316 17.6221H11.801C12.2517 17.6221 12.6254 17.9958 12.6254 18.4465C12.6254 18.8972 12.2517 19.271 11.801 19.271Z" fill="#0C1438" />
	<path d="M19.4963 19.271H16.1985C15.7478 19.271 15.374 18.8972 15.374 18.4465C15.374 17.9958 15.7478 17.6221 16.1985 17.6221H19.4963C19.947 17.6221 20.3207 17.9958 20.3207 18.4465C20.3207 18.8972 19.947 19.271 19.4963 19.271Z" fill="#14205B" />
	<path d="M11.801 14.3247H8.50316C8.05246 14.3247 7.67871 13.9509 7.67871 13.5002C7.67871 13.0495 8.05246 12.6758 8.50316 12.6758H11.801C12.2517 12.6758 12.6254 13.0495 12.6254 13.5002C12.6254 13.9509 12.2517 14.3247 11.801 14.3247Z" fill="#0C1438" />
	<path d="M19.4963 14.3247H16.1985C15.7478 14.3247 15.374 13.9509 15.374 13.5002C15.374 13.0495 15.7478 12.6758 16.1985 12.6758H19.4963C19.947 12.6758 20.3207 13.0495 20.3207 13.5002C20.3207 13.9509 19.947 14.3247 19.4963 14.3247Z" fill="#0C1438" />
	<path d="M11.801 9.37741H8.50316C8.05246 9.37741 7.67871 9.00366 7.67871 8.55296C7.67871 8.10227 8.05246 7.72852 8.50316 7.72852H11.801C12.2517 7.72852 12.6254 8.10227 12.6254 8.55296C12.6254 9.00366 12.2517 9.37741 11.801 9.37741Z" fill="#0C1438" />
	<path d="M19.4963 9.37741H16.1985C15.7478 9.37741 15.374 9.00366 15.374 8.55296C15.374 8.10227 15.7478 7.72852 16.1985 7.72852H19.4963C19.947 7.72852 20.3207 8.10227 20.3207 8.55296C20.3207 9.00366 19.947 9.37741 19.4963 9.37741Z" fill="#0C1438" />
</svg>
