<svg width="15" height="15" viewBox="0 0 15 15" fill="none" xmlns="http://www.w3.org/2000/svg">
<path d="M5 3.59375C4.74375 3.59375 4.53125 3.38125 4.53125 3.125V1.25C4.53125 0.99375 4.74375 0.78125 5 0.78125C5.25625 0.78125 5.46875 0.99375 5.46875 1.25V3.125C5.46875 3.38125 5.25625 3.59375 5 3.59375Z" fill="#14205B"/>
<path d="M10 3.59375C9.74375 3.59375 9.53125 3.38125 9.53125 3.125V1.25C9.53125 0.99375 9.74375 0.78125 10 0.78125C10.2563 0.78125 10.4688 0.99375 10.4688 1.25V3.125C10.4688 3.38125 10.2563 3.59375 10 3.59375Z" fill="#14205B"/>
<path d="M12.8125 6.14844H2.1875C1.93125 6.14844 1.71875 5.93594 1.71875 5.67969C1.71875 5.42344 1.93125 5.21094 2.1875 5.21094H12.8125C13.0688 5.21094 13.2812 5.42344 13.2812 5.67969C13.2812 5.93594 13.0688 6.14844 12.8125 6.14844Z" fill="#14205B"/>
<path d="M10 14.2188H5C2.71875 14.2188 1.40625 12.9062 1.40625 10.625V5.3125C1.40625 3.03125 2.71875 1.71875 5 1.71875H10C12.2812 1.71875 13.5938 3.03125 13.5938 5.3125V10.625C13.5938 12.9062 12.2812 14.2188 10 14.2188ZM5 2.65625C3.2125 2.65625 2.34375 3.525 2.34375 5.3125V10.625C2.34375 12.4125 3.2125 13.2812 5 13.2812H10C11.7875 13.2812 12.6562 12.4125 12.6562 10.625V5.3125C12.6562 3.525 11.7875 2.65625 10 2.65625H5Z" fill="#14205B"/>
<path d="M5.3125 9.06251C5.23125 9.06251 5.15 9.04377 5.075 9.01252C5 8.98127 4.93126 8.9375 4.86876 8.88125C4.81251 8.81875 4.76874 8.75001 4.73749 8.67501C4.70624 8.60001 4.6875 8.51876 4.6875 8.43751C4.6875 8.27501 4.75626 8.11251 4.86876 7.99376C4.93126 7.93751 5 7.89375 5.075 7.8625C5.1875 7.8125 5.31251 7.8 5.43751 7.825C5.47501 7.83125 5.5125 7.84375 5.55 7.8625C5.5875 7.875 5.625 7.89377 5.6625 7.91877C5.69375 7.94377 5.72499 7.96876 5.75624 7.99376C5.78124 8.02501 5.81249 8.05626 5.83124 8.08751C5.85624 8.12501 5.87501 8.1625 5.88751 8.2C5.90626 8.2375 5.91876 8.275 5.92501 8.3125C5.93126 8.35625 5.9375 8.39376 5.9375 8.43751C5.9375 8.60001 5.86874 8.7625 5.75624 8.88125C5.63749 8.99375 5.475 9.06251 5.3125 9.06251Z" fill="#14205B"/>
<path d="M7.5 9.06181C7.3375 9.06181 7.17501 8.99306 7.05626 8.88056C7.03126 8.84931 7.00626 8.81806 6.98126 8.78681C6.95626 8.74931 6.93749 8.71181 6.92499 8.67431C6.90624 8.63681 6.89374 8.59932 6.88749 8.56182C6.88124 8.51807 6.875 8.48056 6.875 8.43681C6.875 8.35556 6.89374 8.27431 6.92499 8.19931C6.95624 8.12431 7.00001 8.05557 7.05626 7.99307C7.23126 7.81807 7.5125 7.7618 7.7375 7.8618C7.81875 7.89305 7.88124 7.93682 7.94374 7.99307C8.05624 8.11182 8.125 8.27431 8.125 8.43681C8.125 8.48056 8.11876 8.51807 8.11251 8.56182C8.10626 8.59932 8.09376 8.63681 8.07501 8.67431C8.06251 8.71181 8.04374 8.74931 8.01874 8.78681C7.99374 8.81806 7.96874 8.84931 7.94374 8.88056C7.88124 8.93681 7.81875 8.98057 7.7375 9.01182C7.6625 9.04307 7.58125 9.06181 7.5 9.06181Z" fill="#14205B"/>
<path d="M5.3125 11.2493C5.23125 11.2493 5.15 11.2306 5.075 11.1993C5 11.1681 4.93126 11.1243 4.86876 11.0681C4.81251 11.0056 4.76874 10.9431 4.73749 10.8618C4.70624 10.7868 4.6875 10.7056 4.6875 10.6243C4.6875 10.4618 4.75626 10.2993 4.86876 10.1806C4.93126 10.1243 5 10.0806 5.075 10.0493C5.30625 9.9493 5.58124 10.0056 5.75624 10.1806C5.78124 10.2118 5.81249 10.2431 5.83124 10.2743C5.85624 10.3118 5.87501 10.3493 5.88751 10.3868C5.90626 10.4243 5.91876 10.4618 5.92501 10.5056C5.93126 10.5431 5.9375 10.5868 5.9375 10.6243C5.9375 10.7868 5.86874 10.9493 5.75624 11.0681C5.63749 11.1806 5.475 11.2493 5.3125 11.2493Z" fill="#14205B"/>
</svg>
