<svg width="28" height="28" viewBox="0 0 28 28" fill="none" xmlns="http://www.w3.org/2000/svg">
<path d="M15.0997 13.8901H8.50414C8.05344 13.8901 7.67969 13.5164 7.67969 13.0657C7.67969 12.615 8.05344 12.2412 8.50414 12.2412H15.0997C15.5504 12.2412 15.9242 12.615 15.9242 13.0657C15.9242 13.5164 15.5504 13.8901 15.0997 13.8901Z" fill="#14205B"/>
<path d="M3.00804 13.8902C2.55734 13.8902 2.18359 13.5165 2.18359 13.0658V7.98718C2.18359 5.29398 4.37113 3.10645 7.06433 3.10645H13.2422C16.0673 3.10645 18.1229 4.98619 18.1229 7.56946C18.1229 8.02016 17.7492 8.39391 17.2985 8.39391C16.8478 8.39391 16.474 8.02016 16.474 7.56946C16.474 5.63475 14.7922 4.75534 13.2422 4.75534H7.06433C5.28352 4.75534 3.83249 6.20637 3.83249 7.98718V13.0658C3.83249 13.5275 3.45874 13.8902 3.00804 13.8902Z" fill="#14205B"/>
<path d="M18.3978 24.883H7.4051C4.52503 24.883 2.18359 22.5416 2.18359 19.6615V11.9666C2.18359 9.08655 4.52503 6.74512 7.4051 6.74512H18.3978C21.2778 6.74512 23.6193 9.08655 23.6193 11.9666V13.5605C23.6193 14.0112 23.2455 14.385 22.7948 14.385H21.6076C21.2228 14.385 20.8711 14.5279 20.6183 14.7917L20.6073 14.8027C20.2445 15.1654 20.1016 15.6711 20.2335 16.1658C20.3984 16.7813 21.047 17.2321 21.7725 17.2321H22.7948C23.2455 17.2321 23.6193 17.6058 23.6193 18.0565V19.6505C23.6193 22.5415 21.2778 24.883 18.3978 24.883ZM7.4051 8.39401C5.43742 8.39401 3.83249 9.99894 3.83249 11.9666V19.6615C3.83249 21.6292 5.43742 23.2341 7.4051 23.2341H18.3978C20.3654 23.2341 21.9704 21.6292 21.9704 19.6615V18.892H21.7725C20.2885 18.892 19.0023 17.9576 18.6396 16.6055C18.3537 15.5392 18.6616 14.4069 19.4421 13.6375C20.0137 13.0549 20.7831 12.7361 21.6076 12.7361H21.9704V11.9666C21.9704 9.99894 20.3654 8.39401 18.3978 8.39401H7.4051Z" fill="#14205B"/>
<path d="M23.8598 18.8913H21.7382C20.0783 18.8913 18.6713 17.6601 18.5394 16.0772C18.4514 15.1648 18.7812 14.2743 19.4408 13.6258C19.9904 13.0541 20.7709 12.7354 21.5953 12.7354H23.8488C24.9261 12.7354 25.8055 13.6038 25.8055 14.6811V16.9456C25.8165 18.0228 24.9371 18.8913 23.8598 18.8913ZM21.6063 14.3842C21.2216 14.3842 20.8698 14.5271 20.617 14.791C20.2982 15.0988 20.1443 15.5165 20.1883 15.9342C20.2432 16.6598 20.9467 17.2424 21.7382 17.2424H23.8598C24.0247 17.2424 24.1676 17.1104 24.1676 16.9456V14.6811C24.1676 14.5162 24.0247 14.3842 23.8598 14.3842H21.6063Z" fill="#0C1438"/>
</svg>
