<svg width="60" height="60" viewBox="0 0 60 60" fill="none" xmlns="http://www.w3.org/2000/svg">
<path fill-rule="evenodd" clip-rule="evenodd" d="M30 0C13.4315 0 0 13.4315 0 30C0 46.5685 13.4315 60 30 60C46.5685 60 60 46.5685 60 30C60 13.4315 46.5685 0 30 0ZM44.2012 23.7467C45.2663 22.6816 45.2663 20.9548 44.2012 19.8897C43.1361 18.8246 41.4093 18.8246 40.3443 19.8897L25.9091 34.3249L19.6557 28.0715C18.5907 27.0065 16.8639 27.0065 15.7988 28.0715C14.7337 29.1366 14.7337 30.8634 15.7988 31.9285L23.9806 40.1103C25.0457 41.1754 26.7725 41.1754 27.8376 40.1103L44.2012 23.7467Z" fill="#1164E7"/>
</svg>
