<svg width="38" height="38" viewBox="0 0 38 38" fill="none" xmlns="http://www.w3.org/2000/svg">
<path d="M19.5022 21.75H17.0022C16.5922 21.75 16.2522 21.41 16.2522 21C16.2522 20.59 16.5922 20.25 17.0022 20.25H19.5022C22.1222 20.25 24.2522 18.12 24.2522 15.5C24.2522 12.88 22.1222 10.75 19.5022 10.75H14.5022C11.8822 10.75 9.75219 12.88 9.75219 15.5C9.75219 16.6 10.1422 17.67 10.8422 18.52C11.1022 18.84 11.0622 19.31 10.7422 19.58C10.4222 19.84 9.95219 19.8 9.68219 19.48C8.75219 18.36 8.24219 16.95 8.24219 15.5C8.24219 12.05 11.0422 9.25 14.4922 9.25H19.4922C22.9422 9.25 25.7422 12.05 25.7422 15.5C25.7422 18.95 22.9522 21.75 19.5022 21.75Z" fill="#0C1438"/>
<path d="M23.5 28.75H18.5C15.05 28.75 12.25 25.95 12.25 22.5C12.25 19.05 15.05 16.25 18.5 16.25H21C21.41 16.25 21.75 16.59 21.75 17C21.75 17.41 21.41 17.75 21 17.75H18.5C15.88 17.75 13.75 19.88 13.75 22.5C13.75 25.12 15.88 27.25 18.5 27.25H23.5C26.12 27.25 28.25 25.12 28.25 22.5C28.25 21.4 27.86 20.33 27.16 19.48C26.9 19.16 26.94 18.69 27.26 18.42C27.58 18.15 28.05 18.2 28.32 18.52C29.25 19.64 29.76 21.05 29.76 22.5C29.75 25.95 26.95 28.75 23.5 28.75Z" fill="#0C1438"/>
</svg>
