<svg width="15" height="15" viewBox="0 0 15 15" fill="none" xmlns="http://www.w3.org/2000/svg">
<path d="M7.5 14.2188C3.79375 14.2188 0.78125 11.2063 0.78125 7.5C0.78125 3.79375 3.79375 0.78125 7.5 0.78125C11.2063 0.78125 14.2188 3.79375 14.2188 7.5C14.2188 11.2063 11.2063 14.2188 7.5 14.2188ZM7.5 1.71875C4.3125 1.71875 1.71875 4.3125 1.71875 7.5C1.71875 10.6875 4.3125 13.2812 7.5 13.2812C10.6875 13.2812 13.2812 10.6875 13.2812 7.5C13.2812 4.3125 10.6875 1.71875 7.5 1.71875Z" fill="#14205B"/>
<path d="M9.81914 9.95781C9.73789 9.95781 9.65664 9.93906 9.58164 9.88906L7.64414 8.73281C7.16289 8.44531 6.80664 7.81406 6.80664 7.25781V4.69531C6.80664 4.43906 7.01914 4.22656 7.27539 4.22656C7.53164 4.22656 7.74414 4.43906 7.74414 4.69531V7.25781C7.74414 7.48281 7.93164 7.81406 8.12539 7.92656L10.0629 9.08281C10.2879 9.21406 10.3566 9.50156 10.2254 9.72656C10.1316 9.87656 9.97539 9.95781 9.81914 9.95781Z" fill="#14205B"/>
</svg>
