<svg width="24" height="25" viewBox="0 0 24 25" fill="none" xmlns="http://www.w3.org/2000/svg">
	<path d="M12 23.2969C6.76 23.2969 2.5 19.0369 2.5 13.7969C2.5 8.55688 6.76 4.29688 12 4.29688C17.24 4.29688 21.5 8.55688 21.5 13.7969C21.5 19.0369 17.24 23.2969 12 23.2969ZM12 5.79688C7.59 5.79688 4 9.38688 4 13.7969C4 18.2069 7.59 21.7969 12 21.7969C16.41 21.7969 20 18.2069 20 13.7969C20 9.38688 16.41 5.79688 12 5.79688Z" fill="#0A3D8D" />
	<path d="M12 14.2969C11.59 14.2969 11.25 13.9569 11.25 13.5469V8.54688C11.25 8.13688 11.59 7.79688 12 7.79688C12.41 7.79688 12.75 8.13688 12.75 8.54688V13.5469C12.75 13.9569 12.41 14.2969 12 14.2969Z" fill="#0A3D8D" />
	<path d="M15 3.29688H9C8.59 3.29688 8.25 2.95687 8.25 2.54688C8.25 2.13688 8.59 1.79688 9 1.79688H15C15.41 1.79688 15.75 2.13688 15.75 2.54688C15.75 2.95687 15.41 3.29688 15 3.29688Z" fill="#0A3D8D" />
</svg>
