<svg width="24" height="25" viewBox="0 0 24 25" fill="none" xmlns="http://www.w3.org/2000/svg">
<rect y="0.163086" width="24" height="24" rx="12" fill="#EC0000"/>
<path d="M16.6061 18.1631C16.2517 18.1631 15.8974 18.0328 15.6177 17.7536L6.40559 8.54075C5.8648 8.00101 5.8648 7.10764 6.40559 6.56789C6.94639 6.02815 7.84149 6.02815 8.38228 6.56789L17.5944 15.7808C18.1352 16.3205 18.1352 17.2139 17.5944 17.7536C17.3147 18.0328 16.9604 18.1631 16.6061 18.1631Z" fill="white"/>
<path d="M7.39394 18.1631C7.03963 18.1631 6.68531 18.0326 6.40559 17.753C5.8648 17.2124 5.8648 16.3176 6.40559 15.7771L15.6177 6.56852C16.1585 6.02794 17.0536 6.02794 17.5944 6.56852C18.1352 7.10911 18.1352 8.00386 17.5944 8.54445L8.38228 17.753C8.10256 18.0326 7.74825 18.1631 7.39394 18.1631Z" fill="white"/>
</svg>
