<svg width="20" height="20" viewBox="0 0 20 20" fill="none" xmlns="http://www.w3.org/2000/svg">
<path d="M9.9987 18.9596C6.66536 18.9596 3.95703 16.568 3.95703 13.6263V10.543C3.95703 10.2013 4.24036 9.91797 4.58203 9.91797C4.9237 9.91797 5.20703 10.2013 5.20703 10.543C5.20703 12.7263 7.26536 14.3763 9.9987 14.3763C12.732 14.3763 14.7904 12.7263 14.7904 10.543C14.7904 10.2013 15.0737 9.91797 15.4154 9.91797C15.757 9.91797 16.0404 10.2013 16.0404 10.543V13.6263C16.0404 16.568 13.332 18.9596 9.9987 18.9596ZM5.20703 13.718C5.26536 15.9263 7.39036 17.7096 9.9987 17.7096C12.607 17.7096 14.732 15.9263 14.7904 13.718C13.707 14.893 11.9904 15.6263 9.9987 15.6263C8.00703 15.6263 6.2987 14.893 5.20703 13.718Z" fill="#3D3D3D"/>
<path d="M9.9987 11.4596C7.6987 11.4596 5.63202 10.4263 4.62369 8.75963C4.19035 8.0513 3.95703 7.2263 3.95703 6.3763C3.95703 4.94297 4.5987 3.59297 5.75703 2.5763C6.89037 1.58464 8.3987 1.04297 9.9987 1.04297C11.5987 1.04297 13.0987 1.58464 14.2404 2.56797C15.3987 3.59297 16.0404 4.94297 16.0404 6.3763C16.0404 7.2263 15.807 8.04297 15.3737 8.75963C14.3654 10.4263 12.2987 11.4596 9.9987 11.4596ZM9.9987 2.29297C8.6987 2.29297 7.48204 2.7263 6.57371 3.5263C5.69038 4.29297 5.20703 5.30964 5.20703 6.3763C5.20703 7.0013 5.37369 7.58463 5.69035 8.10963C6.48202 9.40963 8.13203 10.2096 9.9987 10.2096C11.8654 10.2096 13.5154 9.4013 14.307 8.10963C14.632 7.58463 14.7904 7.0013 14.7904 6.3763C14.7904 5.30964 14.307 4.29297 13.4154 3.50963C12.507 2.7263 11.2987 2.29297 9.9987 2.29297Z" fill="#3D3D3D"/>
<path d="M9.9987 15.6263C6.55703 15.6263 3.95703 13.443 3.95703 10.543V6.3763C3.95703 3.43464 6.66536 1.04297 9.9987 1.04297C11.5987 1.04297 13.0987 1.58464 14.2404 2.56797C15.3987 3.59297 16.0404 4.94297 16.0404 6.3763V10.543C16.0404 13.443 13.4404 15.6263 9.9987 15.6263ZM9.9987 2.29297C7.35703 2.29297 5.20703 4.1263 5.20703 6.3763V10.543C5.20703 12.7263 7.26536 14.3763 9.9987 14.3763C12.732 14.3763 14.7904 12.7263 14.7904 10.543V6.3763C14.7904 5.30964 14.307 4.29297 13.4154 3.50963C12.507 2.7263 11.2987 2.29297 9.9987 2.29297Z" fill="#3D3D3D"/>
</svg>
