<svg width="23" height="22" viewBox="0 0 23 22" fill="none" xmlns="http://www.w3.org/2000/svg">
<path d="M11.5 13.5208C11.1242 13.5208 10.8125 13.2092 10.8125 12.8333V8.25C10.8125 7.87417 11.1242 7.5625 11.5 7.5625C11.8758 7.5625 12.1875 7.87417 12.1875 8.25V12.8333C12.1875 13.2092 11.8758 13.5208 11.5 13.5208Z" fill="#E3BE00"/>
<path d="M11.4987 16.4997C11.4437 16.4997 11.3795 16.4905 11.3154 16.4814C11.2604 16.4722 11.2054 16.4539 11.1504 16.4264C11.0954 16.408 11.0404 16.3805 10.9854 16.3439C10.9395 16.3072 10.8937 16.2705 10.8479 16.2339C10.6829 16.0597 10.582 15.8214 10.582 15.583C10.582 15.3447 10.6829 15.1064 10.8479 14.9322C10.8937 14.8955 10.9395 14.8589 10.9854 14.8222C11.0404 14.7855 11.0954 14.758 11.1504 14.7397C11.2054 14.7122 11.2604 14.6939 11.3154 14.6847C11.4345 14.6572 11.5629 14.6572 11.6729 14.6847C11.737 14.6939 11.792 14.7122 11.847 14.7397C11.902 14.758 11.957 14.7855 12.012 14.8222C12.0579 14.8589 12.1037 14.8955 12.1495 14.9322C12.3145 15.1064 12.4154 15.3447 12.4154 15.583C12.4154 15.8214 12.3145 16.0597 12.1495 16.2339C12.1037 16.2705 12.0579 16.3072 12.012 16.3439C11.957 16.3805 11.902 16.408 11.847 16.4264C11.792 16.4539 11.737 16.4722 11.6729 16.4814C11.6179 16.4905 11.5537 16.4997 11.4987 16.4997Z" fill="#E3BE00"/>
<path d="M17.0556 20.3142H5.94559C4.15809 20.3142 2.79225 19.6633 2.09559 18.49C1.40809 17.3167 1.49975 15.8042 2.37059 14.2367L7.92559 4.245C8.84225 2.595 10.1073 1.6875 11.5006 1.6875C12.8939 1.6875 14.1589 2.595 15.0756 4.245L20.6306 14.2458C21.5014 15.8133 21.6023 17.3167 20.9056 18.4992C20.2089 19.6633 18.8431 20.3142 17.0556 20.3142ZM11.5006 3.0625C10.6389 3.0625 9.79559 3.7225 9.12642 4.91417L3.58059 14.915C2.95725 16.0333 2.85642 17.06 3.28725 17.8025C3.71809 18.545 4.67142 18.9483 5.95475 18.9483H17.0648C18.3481 18.9483 19.2923 18.545 19.7323 17.8025C20.1723 17.06 20.0623 16.0425 19.4389 14.915L13.8748 4.91417C13.2056 3.7225 12.3623 3.0625 11.5006 3.0625Z" fill="#E3BE00"/>
</svg>
