<svg width="37" height="38" viewBox="0 0 37 38" fill="none" xmlns="http://www.w3.org/2000/svg">
	<path d="M31.894 12.1573C31.8643 12.1573 31.8196 12.1573 31.775 12.1573C23.9067 11.3698 16.0532 11.0727 8.27415 11.8601L5.23986 12.1573C4.61515 12.2167 4.06482 11.771 4.00532 11.147C3.94583 10.523 4.39204 9.98811 5.00188 9.92868L8.03617 9.63153C15.9491 8.82923 23.9662 9.14123 31.9981 9.92868C32.608 9.98811 33.0542 10.5378 32.9947 11.147C32.9501 11.7264 32.4592 12.1573 31.894 12.1573Z" fill="#EC0000" />
	<path d="M13.148 10.1616C13.0868 10.1616 13.0257 10.1616 12.9492 10.1482C12.3375 10.0542 11.9094 9.53083 12.0164 8.99401L12.3528 7.23591C12.5975 5.94754 12.9339 4.1626 16.4968 4.1626H20.5032C24.0814 4.1626 24.4178 6.01464 24.6472 7.24933L24.9836 8.99401C25.0906 9.54425 24.6625 10.0677 24.0508 10.1482C23.4238 10.2421 22.8275 9.86635 22.7357 9.32952L22.3993 7.58485C22.1852 6.41726 22.1394 6.18911 20.5185 6.18911H16.5121C14.8912 6.18911 14.8606 6.377 14.6313 7.57143L14.2796 9.3161C14.1878 9.81267 13.6985 10.1616 13.148 10.1616Z" fill="#EC0000" />
	<path d="M22.9337 32.1626H14.0663C9.24579 32.1626 9.05242 29.6091 8.90049 27.5452L8.00269 14.2222C7.96126 13.6798 8.40325 13.2035 8.96955 13.1638C9.54966 13.1373 10.0331 13.5475 10.0745 14.0899L10.9723 27.4129C11.1243 29.4239 11.1795 30.178 14.0663 30.178H22.9337C25.8343 30.178 25.8896 29.4239 26.0277 27.4129L26.9255 14.0899C26.9669 13.5475 27.4641 13.1373 28.0304 13.1638C28.5968 13.2035 29.0387 13.6666 28.9973 14.2222L28.0995 27.5452C27.9476 29.6091 27.7542 32.1626 22.9337 32.1626Z" fill="#EC0000" />
	<path d="M20.913 26.1626H16.087C15.4928 26.1626 15 25.7093 15 25.1626C15 24.6159 15.4928 24.1626 16.087 24.1626H20.913C21.5072 24.1626 22 24.6159 22 25.1626C22 25.7093 21.5072 26.1626 20.913 26.1626Z" fill="#EC0000" />
	<path d="M21.9615 20.1626H15.0385C14.4708 20.1626 14 19.7093 14 19.1626C14 18.6159 14.4708 18.1626 15.0385 18.1626H21.9615C22.5292 18.1626 23 18.6159 23 19.1626C23 19.7093 22.5292 20.1626 21.9615 20.1626Z" fill="#EC0000" />
</svg>
