<svg width="22" height="22" viewBox="0 0 22 22" fill="none" xmlns="http://www.w3.org/2000/svg">
	<path d="M9.16536 4.58333H12.832C12.832 4.0971 12.6389 3.63079 12.2951 3.28697C11.9512 2.94315 11.4849 2.75 10.9987 2.75C10.5125 2.75 10.0462 2.94315 9.70234 3.28697C9.35852 3.63079 9.16536 4.0971 9.16536 4.58333ZM7.79036 4.58333C7.79036 4.16201 7.87335 3.74481 8.03458 3.35556C8.19582 2.9663 8.43214 2.61262 8.73006 2.3147C9.02799 2.01678 9.38167 1.78045 9.77092 1.61922C10.1602 1.45799 10.5774 1.375 10.9987 1.375C11.42 1.375 11.8372 1.45799 12.2265 1.61922C12.6157 1.78045 12.9694 2.01678 13.2673 2.3147C13.5653 2.61262 13.8016 2.9663 13.9628 3.35556C14.124 3.74481 14.207 4.16201 14.207 4.58333H19.4779C19.6602 4.58333 19.8351 4.65577 19.964 4.7847C20.0929 4.91363 20.1654 5.0885 20.1654 5.27083C20.1654 5.45317 20.0929 5.62804 19.964 5.75697C19.8351 5.8859 19.6602 5.95833 19.4779 5.95833H18.2679L17.1954 17.0601C17.1131 17.9107 16.7169 18.7002 16.0841 19.2746C15.4512 19.849 14.6271 20.167 13.7725 20.1667H8.22486C7.37041 20.1668 6.54654 19.8486 5.9139 19.2743C5.28126 18.6999 4.8852 17.9106 4.80295 17.0601L3.72953 5.95833H2.51953C2.33719 5.95833 2.16233 5.8859 2.0334 5.75697C1.90446 5.62804 1.83203 5.45317 1.83203 5.27083C1.83203 5.0885 1.90446 4.91363 2.0334 4.7847C2.16233 4.65577 2.33719 4.58333 2.51953 4.58333H7.79036ZM9.6237 8.9375C9.6237 8.75516 9.55126 8.5803 9.42233 8.45136C9.2934 8.32243 9.11853 8.25 8.9362 8.25C8.75386 8.25 8.57899 8.32243 8.45006 8.45136C8.32113 8.5803 8.2487 8.75516 8.2487 8.9375V15.8125C8.2487 15.9948 8.32113 16.1697 8.45006 16.2986C8.57899 16.4276 8.75386 16.5 8.9362 16.5C9.11853 16.5 9.2934 16.4276 9.42233 16.2986C9.55126 16.1697 9.6237 15.9948 9.6237 15.8125V8.9375ZM13.0612 8.25C13.2435 8.25 13.4184 8.32243 13.5473 8.45136C13.6763 8.5803 13.7487 8.75516 13.7487 8.9375V15.8125C13.7487 15.9948 13.6763 16.1697 13.5473 16.2986C13.4184 16.4276 13.2435 16.5 13.0612 16.5C12.8789 16.5 12.704 16.4276 12.5751 16.2986C12.4461 16.1697 12.3737 15.9948 12.3737 15.8125V8.9375C12.3737 8.75516 12.4461 8.5803 12.5751 8.45136C12.704 8.32243 12.8789 8.25 13.0612 8.25ZM6.17153 16.9281C6.22097 17.4383 6.45867 17.9119 6.83829 18.2564C7.2179 18.601 7.71222 18.7918 8.22486 18.7917H13.7725C14.2852 18.7918 14.7795 18.601 15.1591 18.2564C15.5387 17.9119 15.7764 17.4383 15.8259 16.9281L16.8874 5.95833H5.11003L6.17153 16.9281Z" fill="#E60000" />
</svg>
