<svg width="36" height="36" viewBox="0 0 36 36" fill="none" xmlns="http://www.w3.org/2000/svg">
<path d="M13.5002 26.6247C12.8852 26.6247 12.3752 26.1147 12.3752 25.4997L12.3752 19.2147L11.2952 20.2947C10.8602 20.7297 10.1402 20.7297 9.70516 20.2947C9.27016 19.8597 9.27016 19.1397 9.70516 18.7047L12.7052 15.7047C13.0202 15.3897 13.5152 15.2847 13.9352 15.4647C14.3552 15.6297 14.6252 16.0497 14.6252 16.4997L14.6252 25.4997C14.6252 26.1147 14.1152 26.6247 13.5002 26.6247Z" fill="#1164E7"/>
<path d="M16.5002 20.6252C16.2152 20.6252 15.9302 20.5202 15.7052 20.2952L12.7052 17.2952C12.2702 16.8602 12.2702 16.1402 12.7052 15.7052C13.1402 15.2702 13.8602 15.2702 14.2952 15.7052L17.2952 18.7052C17.7302 19.1402 17.7302 19.8602 17.2952 20.2952C17.0702 20.5202 16.7852 20.6252 16.5002 20.6252Z" fill="#1164E7"/>
<path d="M22.5 34.125H13.5C5.355 34.125 1.875 30.645 1.875 22.5V13.5C1.875 5.355 5.355 1.875 13.5 1.875H21C21.615 1.875 22.125 2.385 22.125 3C22.125 3.615 21.615 4.125 21 4.125H13.5C6.585 4.125 4.125 6.585 4.125 13.5V22.5C4.125 29.415 6.585 31.875 13.5 31.875H22.5C29.415 31.875 31.875 29.415 31.875 22.5V15C31.875 14.385 32.385 13.875 33 13.875C33.615 13.875 34.125 14.385 34.125 15V22.5C34.125 30.645 30.645 34.125 22.5 34.125Z" fill="#1164E7"/>
<path d="M33 16.1247H27C21.87 16.1247 19.875 14.1297 19.875 8.99974V2.99974C19.875 2.54974 20.145 2.12974 20.565 1.96474C20.985 1.78474 21.465 1.88974 21.795 2.20474L33.795 14.2047C34.11 14.5197 34.215 15.0147 34.035 15.4347C33.855 15.8547 33.45 16.1247 33 16.1247ZM22.125 5.71474V8.99974C22.125 12.8697 23.13 13.8747 27 13.8747H30.285L22.125 5.71474Z" fill="#1164E7"/>
</svg>
