<svg width="24" height="25" viewBox="0 0 24 25" fill="none" xmlns="http://www.w3.org/2000/svg">
<path d="M11 17.7748C10.81 17.7748 10.62 17.7048 10.47 17.5548C10.18 17.2648 10.18 16.7848 10.47 16.4948L11.19 15.7748H7C6.59 15.7748 6.25 15.4348 6.25 15.0248C6.25 14.6148 6.59 14.2748 7 14.2748H11.19L10.47 13.5548C10.32 13.4048 10.25 13.2148 10.25 13.0248C10.25 12.8348 10.32 12.6448 10.47 12.4948C10.76 12.2048 11.24 12.2048 11.53 12.4948L13.53 14.4948C13.66 14.6248 13.73 14.7948 13.74 14.9548C13.74 15.0048 13.74 15.0648 13.74 15.1148C13.72 15.2548 13.66 15.3848 13.56 15.5048C13.55 15.5148 13.53 15.5348 13.52 15.5448L11.52 17.5448C11.38 17.7048 11.19 17.7748 11 17.7748Z" fill="white"/>
<path d="M15 22.7734H9C3.57 22.7734 1.25 20.4534 1.25 15.0234V9.02344C1.25 3.59344 3.57 1.27344 9 1.27344H14C14.41 1.27344 14.75 1.61344 14.75 2.02344C14.75 2.43344 14.41 2.77344 14 2.77344H9C4.39 2.77344 2.75 4.41344 2.75 9.02344V15.0234C2.75 19.6334 4.39 21.2734 9 21.2734H15C19.61 21.2734 21.25 19.6334 21.25 15.0234V10.0234C21.25 9.61344 21.59 9.27344 22 9.27344C22.41 9.27344 22.75 9.61344 22.75 10.0234V15.0234C22.75 20.4534 20.43 22.7734 15 22.7734Z" fill="white"/>
<path d="M22 10.772H18C14.58 10.772 13.25 9.44196 13.25 6.02196V2.02196C13.25 1.72196 13.43 1.44196 13.71 1.33196C13.99 1.21196 14.31 1.28196 14.53 1.49196L22.53 9.49196C22.74 9.70196 22.81 10.032 22.69 10.312C22.57 10.592 22.3 10.772 22 10.772ZM14.75 3.83196V6.02196C14.75 8.60196 15.42 9.27196 18 9.27196H20.19L14.75 3.83196Z" fill="white"/>
</svg>
