<svg width="20" height="20" viewBox="0 0 20 20" fill="none" xmlns="http://www.w3.org/2000/svg">
<path d="M12.5013 18.9584H7.5013C2.9763 18.9584 1.04297 17.0251 1.04297 12.5001V7.50008C1.04297 2.97508 2.9763 1.04175 7.5013 1.04175H12.5013C17.0263 1.04175 18.9596 2.97508 18.9596 7.50008V12.5001C18.9596 17.0251 17.0263 18.9584 12.5013 18.9584ZM7.5013 2.29175C3.65964 2.29175 2.29297 3.65841 2.29297 7.50008V12.5001C2.29297 16.3417 3.65964 17.7084 7.5013 17.7084H12.5013C16.343 17.7084 17.7096 16.3417 17.7096 12.5001V7.50008C17.7096 3.65841 16.343 2.29175 12.5013 2.29175H7.5013Z" fill="#3D3D3D"/>
<path d="M13.125 8.125H6.875C6.53333 8.125 6.25 7.84167 6.25 7.5C6.25 7.15833 6.53333 6.875 6.875 6.875H13.125C13.4667 6.875 13.75 7.15833 13.75 7.5C13.75 7.84167 13.4667 8.125 13.125 8.125Z" fill="#3D3D3D"/>
<path d="M13.125 13.125H6.875C6.53333 13.125 6.25 12.8417 6.25 12.5C6.25 12.1583 6.53333 11.875 6.875 11.875H13.125C13.4667 11.875 13.75 12.1583 13.75 12.5C13.75 12.8417 13.4667 13.125 13.125 13.125Z" fill="#3D3D3D"/>
</svg>
