<svg width="20" height="20" viewBox="0 0 20 20" fill="none" xmlns="http://www.w3.org/2000/svg">
	<path d="M7.5 14.793C7.41667 14.793 7.34167 14.7763 7.25833 14.743C7.025 14.6513 6.875 14.418 6.875 14.168V9.16797C6.875 8.8263 7.15833 8.54297 7.5 8.54297C7.84167 8.54297 8.125 8.8263 8.125 9.16797V12.6596L8.725 12.0596C8.96667 11.818 9.36667 11.818 9.60833 12.0596C9.85 12.3013 9.85 12.7013 9.60833 12.943L7.94167 14.6096C7.825 14.7263 7.65833 14.793 7.5 14.793Z" fill="white" />
	<path d="M7.50052 14.7935C7.34219 14.7935 7.18385 14.7352 7.05885 14.6102L5.39219 12.9435C5.15052 12.7018 5.15052 12.3018 5.39219 12.0602C5.63385 11.8185 6.03385 11.8185 6.27552 12.0602L7.94219 13.7268C8.18385 13.9685 8.18385 14.3685 7.94219 14.6102C7.81719 14.7352 7.65885 14.7935 7.50052 14.7935Z" fill="white" />
	<path d="M12.4993 18.9596H7.49935C2.97435 18.9596 1.04102 17.0263 1.04102 12.5013V7.5013C1.04102 2.9763 2.97435 1.04297 7.49935 1.04297H11.666C12.0077 1.04297 12.291 1.3263 12.291 1.66797C12.291 2.00964 12.0077 2.29297 11.666 2.29297H7.49935C3.65768 2.29297 2.29102 3.65964 2.29102 7.5013V12.5013C2.29102 16.343 3.65768 17.7096 7.49935 17.7096H12.4993C16.341 17.7096 17.7077 16.343 17.7077 12.5013V8.33464C17.7077 7.99297 17.991 7.70964 18.3327 7.70964C18.6744 7.70964 18.9577 7.99297 18.9577 8.33464V12.5013C18.9577 17.0263 17.0243 18.9596 12.4993 18.9596Z" fill="white" />
	<path d="M18.3327 8.95841H14.9993C12.1493 8.95841 11.041 7.85007 11.041 5.00007V1.66674C11.041 1.41674 11.191 1.18341 11.4243 1.09174C11.6577 0.991739 11.9243 1.05007 12.1077 1.22507L18.7743 7.89174C18.9493 8.06674 19.0077 8.34174 18.9077 8.57507C18.8077 8.8084 18.5827 8.95841 18.3327 8.95841ZM12.291 3.17507V5.00007C12.291 7.15007 12.8493 7.70841 14.9993 7.70841H16.8243L12.291 3.17507Z" fill="white" />
</svg>
