
<svg width="24" height="25" viewBox="0 0 24 25" fill="none" xmlns="http://www.w3.org/2000/svg">
	<path d="M15 22.7725H9C3.57 22.7725 1.25 20.4525 1.25 15.0225V9.02246C1.25 3.59246 3.57 1.27246 9 1.27246H14C14.41 1.27246 14.75 1.61246 14.75 2.02246C14.75 2.43246 14.41 2.77246 14 2.77246H9C4.39 2.77246 2.75 4.41246 2.75 9.02246V15.0225C2.75 19.6325 4.39 21.2725 9 21.2725H15C19.61 21.2725 21.25 19.6325 21.25 15.0225V10.0225C21.25 9.61246 21.59 9.27246 22 9.27246C22.41 9.27246 22.75 9.61246 22.75 10.0225V15.0225C22.75 20.4525 20.43 22.7725 15 22.7725Z" fill="white" />
	<path d="M22 10.7729H18C14.58 10.7729 13.25 9.44294 13.25 6.02294V2.02294C13.25 1.72294 13.43 1.44294 13.71 1.33294C13.99 1.21294 14.31 1.28294 14.53 1.49294L22.53 9.49294C22.74 9.70294 22.81 10.0329 22.69 10.3129C22.57 10.5929 22.3 10.7729 22 10.7729ZM14.75 3.83294V6.02294C14.75 8.60294 15.42 9.27294 18 9.27294H20.19L14.75 3.83294Z" fill="white" />
</svg>
