<svg width="22" height="22" viewBox="0 0 22 22" fill="none" xmlns="http://www.w3.org/2000/svg">
<path d="M10.4507 20.8555H6.96732C2.94315 20.8555 1.14648 19.0588 1.14648 15.0346V11.5513C1.14648 7.52714 2.94315 5.73047 6.96732 5.73047H9.71732C10.0932 5.73047 10.4048 6.04214 10.4048 6.41797C10.4048 6.7938 10.0932 7.10547 9.71732 7.10547H6.96732C3.68565 7.10547 2.52148 8.26964 2.52148 11.5513V15.0346C2.52148 18.3163 3.68565 19.4805 6.96732 19.4805H10.4507C13.7323 19.4805 14.8965 18.3163 14.8965 15.0346V12.2846C14.8965 11.9088 15.2082 11.5971 15.584 11.5971C15.9598 11.5971 16.2715 11.9088 16.2715 12.2846V15.0346C16.2715 19.0588 14.4748 20.8555 10.4507 20.8555Z" fill="#14205B"/>
<path d="M15.5835 12.9708H12.6501C10.0743 12.9708 9.0293 11.9258 9.0293 9.34995V6.41662C9.0293 6.14162 9.1943 5.88495 9.45096 5.78412C9.70763 5.67412 10.001 5.73828 10.2026 5.93078L16.0693 11.7974C16.2618 11.9899 16.326 12.2924 16.216 12.5491C16.1151 12.8058 15.8585 12.9708 15.5835 12.9708ZM10.4043 8.07578V9.34995C10.4043 11.1741 10.826 11.5958 12.6501 11.5958H13.9243L10.4043 8.07578Z" fill="#14205B"/>
<path d="M14.2995 2.51953H10.6328C10.257 2.51953 9.94531 2.20786 9.94531 1.83203C9.94531 1.4562 10.257 1.14453 10.6328 1.14453H14.2995C14.6753 1.14453 14.987 1.4562 14.987 1.83203C14.987 2.20786 14.6753 2.51953 14.2995 2.51953Z" fill="#14205B"/>
<path d="M6.41602 5.26953C6.04018 5.26953 5.72852 4.95786 5.72852 4.58203C5.72852 2.68453 7.26852 1.14453 9.16602 1.14453H11.5677C11.9435 1.14453 12.2552 1.4562 12.2552 1.83203C12.2552 2.20786 11.9435 2.51953 11.5677 2.51953H9.16602C8.02935 2.51953 7.10352 3.44536 7.10352 4.58203C7.10352 4.95786 6.79185 5.26953 6.41602 5.26953Z" fill="#14205B"/>
<path d="M17.5918 16.2695C17.216 16.2695 16.9043 15.9579 16.9043 15.582C16.9043 15.2062 17.216 14.8945 17.5918 14.8945C18.6368 14.8945 19.4801 14.042 19.4801 13.0062V7.33203C19.4801 6.9562 19.7918 6.64453 20.1676 6.64453C20.5435 6.64453 20.8551 6.9562 20.8551 7.33203V13.0062C20.8551 14.8029 19.3885 16.2695 17.5918 16.2695Z" fill="#14205B"/>
<path d="M20.166 8.02208H17.416C14.9777 8.02208 13.9785 7.02292 13.9785 4.58458V1.83458C13.9785 1.55958 14.1435 1.30292 14.4002 1.20208C14.6568 1.09208 14.9502 1.15625 15.1518 1.34875L20.6518 6.84875C20.8443 7.04125 20.9085 7.34375 20.7985 7.60042C20.6977 7.85708 20.441 8.02208 20.166 8.02208ZM15.3535 3.49375V4.58458C15.3535 6.26208 15.7385 6.64708 17.416 6.64708H18.5068L15.3535 3.49375Z" fill="#14205B"/>
</svg>
