<svg width="20" height="20" viewBox="0 0 20 20" fill="none" xmlns="http://www.w3.org/2000/svg">
<path d="M4.61763 16.2676C4.1093 16.2676 3.6343 16.0926 3.29263 15.7676C2.8593 15.3593 2.65097 14.7426 2.72597 14.0759L3.0343 11.3759C3.09263 10.8676 3.40097 10.1926 3.7593 9.82594L10.601 2.58427C12.3093 0.775936 14.0926 0.725936 15.901 2.43427C17.7093 4.1426 17.7593 5.92594 16.051 7.73427L9.2093 14.9759C8.8593 15.3509 8.2093 15.7009 7.70096 15.7843L5.01763 16.2426C4.87597 16.2509 4.75097 16.2676 4.61763 16.2676ZM13.276 2.42594C12.6343 2.42594 12.076 2.82594 11.5093 3.42594L4.66763 10.6759C4.50097 10.8509 4.3093 11.2676 4.27597 11.5093L3.96763 14.2093C3.9343 14.4843 4.00097 14.7093 4.15097 14.8509C4.30097 14.9926 4.52597 15.0426 4.80097 15.0009L7.4843 14.5426C7.72597 14.5009 8.12597 14.2843 8.29263 14.1093L15.1343 6.8676C16.1676 5.7676 16.5426 4.75094 15.0343 3.33427C14.3676 2.6926 13.7926 2.42594 13.276 2.42594Z" fill="#14205B"/>
<path d="M14.4497 9.12406C14.433 9.12406 14.408 9.12406 14.3914 9.12406C11.7914 8.86573 9.69971 6.89073 9.29971 4.30739C9.24971 3.96573 9.48305 3.64906 9.82471 3.59073C10.1664 3.54073 10.483 3.77406 10.5414 4.11573C10.858 6.13239 12.4914 7.68239 14.5247 7.88239C14.8664 7.91573 15.1164 8.22406 15.083 8.56573C15.0414 8.88239 14.7664 9.12406 14.4497 9.12406Z" fill="#14205B"/>
<path d="M17.5 18.959L2.5 18.959C2.15833 18.959 1.875 18.6757 1.875 18.334C1.875 17.9923 2.15833 17.709 2.5 17.709L17.5 17.709C17.8417 17.709 18.125 17.9923 18.125 18.334C18.125 18.6757 17.8417 18.959 17.5 18.959Z" fill="#14205B"/>
</svg>
