<svg width="36" height="36" viewBox="0 0 36 36" fill="none" xmlns="http://www.w3.org/2000/svg">
	<path fill-rule="evenodd" clip-rule="evenodd" d="M18 0C8.05887 0 0 8.05887 0 18C0 27.9411 8.05887 36 18 36C27.9411 36 36 27.9411 36 18C36 8.05887 27.9411 0 18 0ZM26.5207 14.248C27.1598 13.609 27.1598 12.5729 26.5207 11.9338C25.8817 11.2948 24.8456 11.2948 24.2066 11.9338L15.5455 20.5949L11.7934 16.8429C11.1544 16.2039 10.1183 16.2039 9.47928 16.8429C8.84024 17.482 8.84024 18.518 9.47928 19.1571L14.3884 24.0662C15.0274 24.7052 16.0635 24.7052 16.7025 24.0662L26.5207 14.248Z" fill="#1164E7" />
</svg>
