<svg width="27" height="27" viewBox="0 0 27 27" fill="none" xmlns="http://www.w3.org/2000/svg">
	<path d="M18.8849 23.4035H8.11565C4.18488 23.4035 1.92334 21.142 1.92334 17.2112V9.67278C1.92334 5.74201 4.18488 3.48047 8.11565 3.48047H18.8849C22.8157 3.48047 25.0772 5.74201 25.0772 9.67278V17.2112C25.0772 21.142 22.8157 23.4035 18.8849 23.4035ZM8.11565 5.09585C5.03565 5.09585 3.53872 6.59278 3.53872 9.67278V17.2112C3.53872 20.2912 5.03565 21.7882 8.11565 21.7882H18.8849C21.9649 21.7882 23.4618 20.2912 23.4618 17.2112V9.67278C23.4618 6.59278 21.9649 5.09585 18.8849 5.09585H8.11565Z" fill="#292D32" />
	<path d="M13.4999 14.3781C12.5953 14.3781 11.6799 14.0981 10.9799 13.5274L7.60914 10.8351C7.26453 10.5551 7.19991 10.0489 7.47992 9.7043C7.75992 9.35968 8.26607 9.29507 8.61069 9.57507L11.9814 12.2674C12.7999 12.9243 14.1891 12.9243 15.0076 12.2674L18.3784 9.57507C18.723 9.29507 19.2399 9.34891 19.5091 9.7043C19.7891 10.0489 19.7353 10.5658 19.3799 10.8351L16.0091 13.5274C15.3199 14.0981 14.4045 14.3781 13.4999 14.3781Z" fill="#292D32" />
</svg>
