<svg width="20" height="20" viewBox="0 0 20 20" fill="none" xmlns="http://www.w3.org/2000/svg">
	<path d="M10.0009 13.6073C8.00924 13.6073 6.39258 11.9906 6.39258 9.99896C6.39258 8.00729 8.00924 6.39062 10.0009 6.39062C11.9926 6.39062 13.6092 8.00729 13.6092 9.99896C13.6092 11.9906 11.9926 13.6073 10.0009 13.6073ZM10.0009 7.64062C8.70091 7.64062 7.64258 8.69896 7.64258 9.99896C7.64258 11.299 8.70091 12.3573 10.0009 12.3573C11.3009 12.3573 12.3592 11.299 12.3592 9.99896C12.3592 8.69896 11.3009 7.64062 10.0009 7.64062Z" fill="white" />
	<path d="M10.0004 17.5177C6.86706 17.5177 3.90872 15.6844 1.87539 12.501C0.992057 11.126 0.992057 8.88438 1.87539 7.50104C3.91706 4.31771 6.87539 2.48438 10.0004 2.48438C13.1254 2.48438 16.0837 4.31771 18.1171 7.50104C19.0004 8.87604 19.0004 11.1177 18.1171 12.501C16.0837 15.6844 13.1254 17.5177 10.0004 17.5177ZM10.0004 3.73438C7.30872 3.73438 4.73372 5.35104 2.93372 8.17604C2.30872 9.15104 2.30872 10.851 2.93372 11.826C4.73372 14.651 7.30872 16.2677 10.0004 16.2677C12.6921 16.2677 15.2671 14.651 17.0671 11.826C17.6921 10.851 17.6921 9.15104 17.0671 8.17604C15.2671 5.35104 12.6921 3.73438 10.0004 3.73438Z" fill="white" />
</svg>
