<svg width="25" height="25" viewBox="0 0 25 25" fill="none" xmlns="http://www.w3.org/2000/svg">
	<path d="M9.96992 16.2218C9.77992 16.2218 9.58992 16.1518 9.43992 16.0018C8.61992 15.1818 8.16992 14.0918 8.16992 12.9418C8.16992 10.5518 10.1099 8.61182 12.4999 8.61182C13.6499 8.61182 14.7399 9.06182 15.5599 9.88182C15.6999 10.0218 15.7799 10.2118 15.7799 10.4118C15.7799 10.6118 15.6999 10.8018 15.5599 10.9418L10.4999 16.0018C10.3499 16.1518 10.1599 16.2218 9.96992 16.2218ZM12.4999 10.1118C10.9399 10.1118 9.66992 11.3818 9.66992 12.9418C9.66992 13.4418 9.79992 13.9218 10.0399 14.3418L13.8999 10.4818C13.4799 10.2418 12.9999 10.1118 12.4999 10.1118Z" fill="#292D32" />
	<path d="M6.10009 19.4519C5.93009 19.4519 5.75009 19.3919 5.61009 19.2719C4.54009 18.3619 3.58009 17.2419 2.76009 15.9419C1.70009 14.2919 1.70009 11.6019 2.76009 9.94187C5.20009 6.12188 8.75009 3.92188 12.5001 3.92188C14.7001 3.92188 16.8701 4.68188 18.7701 6.11188C19.1001 6.36188 19.1701 6.83187 18.9201 7.16187C18.6701 7.49187 18.2001 7.56187 17.8701 7.31187C16.2301 6.07187 14.3701 5.42188 12.5001 5.42188C9.27009 5.42188 6.18009 7.36188 4.02009 10.7519C3.27009 11.9219 3.27009 13.9619 4.02009 15.1319C4.77009 16.3019 5.63009 17.3119 6.58009 18.1319C6.89009 18.4019 6.93009 18.8719 6.66009 19.1919C6.52009 19.3619 6.31009 19.4519 6.10009 19.4519Z" fill="#292D32" />
	<path d="M12.5001 21.9619C11.1701 21.9619 9.87006 21.6919 8.62006 21.1619C8.24006 21.0019 8.06006 20.5619 8.22006 20.1819C8.38006 19.8019 8.82006 19.6219 9.20006 19.7819C10.2601 20.2319 11.3701 20.4619 12.4901 20.4619C15.7201 20.4619 18.8101 18.5219 20.9701 15.1319C21.7201 13.9619 21.7201 11.9219 20.9701 10.7519C20.6601 10.2619 20.3201 9.79189 19.9601 9.35189C19.7001 9.03189 19.7501 8.56189 20.0701 8.29189C20.3901 8.03189 20.8601 8.07189 21.1301 8.40189C21.5201 8.88189 21.9001 9.40189 22.2401 9.94189C23.3001 11.5919 23.3001 14.2819 22.2401 15.9419C19.8001 19.7619 16.2501 21.9619 12.5001 21.9619Z" fill="#292D32" />
	<path d="M13.1901 17.2118C12.8401 17.2118 12.5201 16.9618 12.4501 16.6018C12.3701 16.1918 12.6401 15.8018 13.0501 15.7318C14.1501 15.5318 15.0701 14.6118 15.2701 13.5118C15.3501 13.1018 15.7401 12.8418 16.1501 12.9118C16.5601 12.9918 16.8301 13.3818 16.7501 13.7918C16.4301 15.5218 15.0501 16.8918 13.3301 17.2118C13.2801 17.2018 13.2401 17.2118 13.1901 17.2118Z" fill="#292D32" />
	<path d="M2.49994 23.6921C2.30994 23.6921 2.11994 23.6221 1.96994 23.4721C1.67994 23.1821 1.67994 22.7021 1.96994 22.4121L9.43994 14.9421C9.72994 14.6521 10.2099 14.6521 10.4999 14.9421C10.7899 15.2321 10.7899 15.7121 10.4999 16.0021L3.02994 23.4721C2.87994 23.6221 2.68994 23.6921 2.49994 23.6921Z" fill="#292D32" />
	<path d="M15.03 11.1618C14.84 11.1618 14.65 11.0918 14.5 10.9418C14.21 10.6518 14.21 10.1718 14.5 9.88184L21.97 2.41184C22.26 2.12184 22.74 2.12184 23.03 2.41184C23.32 2.70184 23.32 3.18184 23.03 3.47184L15.56 10.9418C15.41 11.0918 15.22 11.1618 15.03 11.1618Z" fill="#292D32" />
</svg>
