<svg width="37" height="38" viewBox="0 0 37 38" fill="none" xmlns="http://www.w3.org/2000/svg">
	<path d="M3.17839 19.1993C3.04991 18.8532 3.04991 18.4724 3.17839 18.1263C4.42976 15.0921 6.5539 12.4977 9.2815 10.6722C12.0091 8.84662 15.2173 7.87207 18.4995 7.87207C21.7816 7.87207 24.9899 8.84662 27.7175 10.6722C30.4451 12.4977 32.5692 15.0921 33.8206 18.1263C33.949 18.4724 33.949 18.8532 33.8206 19.1993C32.5692 22.2335 30.4451 24.8279 27.7175 26.6534C24.9899 28.479 21.7816 29.4535 18.4995 29.4535C15.2173 29.4535 12.0091 28.479 9.2815 26.6534C6.5539 24.8279 4.42976 22.2335 3.17839 19.1993Z" stroke="#1164E7" stroke-width="2" stroke-linecap="round" stroke-linejoin="round" />
	<path d="M18.5 23.2876C21.0543 23.2876 23.125 21.2169 23.125 18.6626C23.125 16.1083 21.0543 14.0376 18.5 14.0376C15.9457 14.0376 13.875 16.1083 13.875 18.6626C13.875 21.2169 15.9457 23.2876 18.5 23.2876Z" stroke="#1164E7" stroke-width="2" stroke-linecap="round" stroke-linejoin="round" />
</svg>
