<svg width="24" height="25" viewBox="0 0 24 25" fill="none" xmlns="http://www.w3.org/2000/svg">
	<path fill-rule="evenodd" clip-rule="evenodd" d="M11.4774 1.35857C11.8197 1.26589 12.1805 1.26589 12.5228 1.35857C12.9202 1.46616 13.2548 1.72882 13.5218 1.93845C13.5473 1.95847 13.5721 1.978 13.5964 1.99686L20.3787 7.27199C20.4048 7.2923 20.4307 7.3124 20.4564 7.33235C20.833 7.62463 21.1648 7.88213 21.4121 8.21643C21.6291 8.50981 21.7907 8.84032 21.8891 9.19172C22.0012 9.59213 22.0007 10.0121 22.0002 10.4889C22.0002 10.5214 22.0001 10.5542 22.0001 10.5873V17.8608C22.0002 18.3879 22.0002 18.8427 21.9696 19.2172C21.9373 19.6126 21.866 20.0058 21.6732 20.3842C21.3855 20.9487 20.9266 21.4076 20.3621 21.6952C19.9837 21.888 19.5905 21.9593 19.1952 21.9916C18.8206 22.0222 18.3658 22.0222 17.8387 22.0222H6.16157C5.63443 22.0222 5.17968 22.0222 4.80511 21.9916C4.40977 21.9593 4.01655 21.888 3.63817 21.6952C3.07368 21.4076 2.61474 20.9487 2.32712 20.3842C2.13433 20.0058 2.06301 19.6126 2.03071 19.2172C2.00011 18.8427 2.00012 18.3879 2.00014 17.8607L2.00014 10.5873C2.00014 10.5542 2.0001 10.5214 2.00007 10.4889C1.99955 10.0121 1.9991 9.59213 2.11118 9.19172C2.20954 8.84032 2.37119 8.50981 2.58818 8.21643C2.83544 7.88212 3.16725 7.62462 3.54389 7.33233C3.56958 7.31239 3.59549 7.29229 3.62159 7.27199L10.4039 1.99686C10.4282 1.978 10.453 1.95847 10.4785 1.93845C10.7455 1.72882 11.0801 1.46616 11.4774 1.35857ZM11.9928 3.30374C11.9177 3.35396 11.8187 3.4302 11.6318 3.57557L4.84947 8.85069C4.3514 9.23808 4.25864 9.32123 4.19615 9.40572C4.12382 9.50352 4.06994 9.61368 4.03715 9.73082C4.00883 9.83202 4.00014 9.95628 4.00014 10.5873V17.8222C4.00014 18.3988 4.00092 18.771 4.02407 19.0544C4.04626 19.326 4.08394 19.4267 4.10913 19.4762C4.20501 19.6644 4.35799 19.8173 4.54615 19.9132C4.59559 19.9384 4.69631 19.9761 4.96798 19.9983C5.25131 20.0214 5.62359 20.0222 6.20014 20.0222H17.8001C18.3767 20.0222 18.749 20.0214 19.0323 19.9983C19.304 19.9761 19.4047 19.9384 19.4541 19.9132C19.6423 19.8173 19.7953 19.6644 19.8911 19.4762C19.9163 19.4267 19.954 19.326 19.9762 19.0544C19.9994 18.771 20.0001 18.3988 20.0001 17.8222V10.5873C20.0001 9.95628 19.9915 9.83202 19.9631 9.73082C19.9303 9.61368 19.8765 9.50351 19.8041 9.40572C19.7416 9.32123 19.6489 9.23809 19.1508 8.85069L12.3685 3.57557C12.1816 3.4302 12.0826 3.35396 12.0074 3.30374C12.0049 3.30204 12.0025 3.30043 12.0001 3.29891C11.9978 3.30043 11.9954 3.30204 11.9928 3.30374ZM7.00014 17.0222C7.00014 16.4699 7.44785 16.0222 8.00014 16.0222H16.0001C16.5524 16.0222 17.0001 16.4699 17.0001 17.0222C17.0001 17.5745 16.5524 18.0222 16.0001 18.0222H8.00014C7.44785 18.0222 7.00014 17.5745 7.00014 17.0222Z" fill="white" />
</svg>
