<svg width="60" height="60" viewBox="0 0 60 60" fill="none" xmlns="http://www.w3.org/2000/svg">
<path fill-rule="evenodd" clip-rule="evenodd" d="M26.1118 10.0453L6.60052 44.6696C4.72229 48.0027 7.13068 52.1243 10.9565 52.1243H49.0432C52.8232 52.1243 55.2362 48.0914 53.4492 44.7605L34.8737 10.1363C33.0101 6.66251 28.047 6.61102 26.1118 10.0453ZM32.1565 23.4491C32.1824 22.2423 31.2113 21.25 30.0042 21.25C28.7976 21.25 27.8267 22.2414 27.8518 23.4477L28.1316 36.884C28.1527 37.9007 28.9829 38.7138 29.9998 38.7138C31.0162 38.7138 31.8462 37.9014 31.868 36.8852L32.1565 23.4491ZM28.2265 45.4771C28.7189 45.9924 29.3098 46.25 29.9992 46.25C30.4538 46.25 30.8666 46.1333 31.2378 45.8998C31.6166 45.6582 31.9197 45.3362 32.1469 44.9336C32.3818 44.531 32.4992 44.0841 32.4992 43.593C32.4992 42.8684 32.2492 42.2484 31.7492 41.7331C31.2568 41.2178 30.6735 40.9601 29.9992 40.9601C29.3098 40.9601 28.7189 41.2178 28.2265 41.7331C27.7416 42.2484 27.4992 42.8684 27.4992 43.593C27.4992 44.3337 27.7416 44.9618 28.2265 45.4771Z" fill="#E20000"/>
</svg>
