<svg width="95" height="95" viewBox="0 0 95 95" fill="none" xmlns="http://www.w3.org/2000/svg">
	<path d="M82.5858 16.1948L82.3056 15.884L81.5364 15.018C73.7883 6.89809 63.4678 1.8295 52.3067 0.70371L52.2099 0.693522C51.8635 0.657864 51.4967 0.627299 51.1249 0.596735L50.9669 0.586546C50.6205 0.561076 50.2742 0.535606 49.9278 0.520324L49.6323 0.505041C49.3114 0.489759 49.0108 0.479571 48.7154 0.469383C48.5269 0.464289 48.3384 0.464289 48.1448 0.459195L47.452 0.454102L46.8306 0.459195C46.6421 0.464289 46.4485 0.464289 46.26 0.469383C45.9646 0.479571 45.6691 0.489759 45.3737 0.505041L45.0425 0.520324C44.7012 0.535606 44.3549 0.561076 44.0135 0.586546L43.8658 0.596735C43.4838 0.627299 43.117 0.657864 42.7502 0.693522L42.6738 0.70371C31.4057 1.84478 20.9935 6.99997 13.2199 15.2625L12.3998 16.1948C4.71287 24.8241 0.474609 35.9393 0.474609 47.5029C0.474609 58.2411 3.9997 68.3579 10.6729 76.7479L11.6866 78.0214C19.3074 86.9717 29.8368 92.6821 41.4971 94.1645C41.8791 94.2103 42.2255 94.2511 42.577 94.2867L42.8317 94.3122C43.1323 94.3428 43.443 94.3682 43.7487 94.3937L44.146 94.4243C44.4211 94.4446 44.6962 94.4599 44.9763 94.4752L45.6946 94.5058C45.8729 94.516 46.0512 94.521 46.2295 94.5261C46.5759 94.5363 46.9172 94.5414 47.2585 94.5414L47.5335 94.5465L47.7424 94.5414C48.0888 94.5414 48.4352 94.5363 48.7765 94.5261C48.9548 94.521 49.1331 94.516 49.3114 94.5058L50.0296 94.4752C50.3098 94.4599 50.5849 94.4395 50.8651 94.4243L51.2522 94.3937C51.5629 94.3682 51.8737 94.3428 52.1793 94.3122L52.434 94.2867C52.7753 94.2511 53.1217 94.2103 53.4681 94.1696L53.5394 94.1594C65.3067 92.6668 75.938 86.8341 83.5842 77.7056L84.3279 76.7479C84.384 76.6766 84.4349 76.6052 84.491 76.5339C91.0521 68.1848 94.5263 58.1545 94.5263 47.5029C94.5212 35.9241 90.2829 24.8088 82.5858 16.1948ZM50.5339 40.2846V46.968L47.6915 46.2192L47.396 46.1427H47.3909L44.2479 46.968V40.2846L47.3909 39.4542H47.396L47.503 39.4797L50.5339 40.2846ZM58.8729 49.1126L52.6021 47.5079V40.8195L58.8729 42.4241V49.1126ZM42.1797 47.5029L35.9089 49.1075V42.4241L42.1797 40.8195V47.5029ZM70.0951 64.405C68.0779 67.0997 65.592 69.4379 62.7393 71.2768L62.3216 62.4998L64.2268 60.1973L66.0199 58.0272V53.5597L60.6049 52.1283V42.5871L63.8906 41.7058C64.1045 41.6498 64.1707 41.3747 64.0026 41.227L55.5873 33.7693L48.644 27.6207C47.9156 26.9738 46.8204 26.9738 46.0919 27.6207L30.7486 41.2219C30.5805 41.3696 30.6467 41.6498 30.8658 41.7058L34.0903 42.4903V52.1232L28.9657 53.4273V59.0817C29.9947 60.0852 31.6401 62.5151 31.6401 62.5151L31.2682 70.6248C23.9328 65.439 19.2309 56.881 19.2309 47.5029C19.2309 34.1462 28.6957 22.5114 41.7518 19.8115L41.8689 19.7861C42.3019 19.6995 42.7349 19.618 43.1781 19.5517C43.6722 19.4753 44.1256 19.4193 44.579 19.3734L44.6554 19.3633C45.1139 19.3174 45.5876 19.2818 46.0563 19.2563C46.9783 19.2104 47.9411 19.2104 48.8529 19.2512L49.0974 19.2665C49.51 19.2868 49.9328 19.3225 50.3506 19.3633L50.427 19.3734C50.8905 19.4244 51.3286 19.4753 51.7616 19.5416L51.8329 19.5517C52.2354 19.6129 52.648 19.6842 53.0606 19.7708L53.2083 19.8013C58.3482 20.8609 62.9278 23.3112 66.6006 26.6987C72.2601 31.9252 75.7546 39.3931 75.7546 47.5029C75.7546 53.7533 73.6661 59.6369 70.0951 64.405Z" fill="#ffffff" />
	<mask id="mask0_3_24249" style="mask-type:luminance" maskUnits="userSpaceOnUse" x="0" y="0" width="95" height="95">
		<path d="M35.9038 42.419L42.1797 40.8144V47.4978L35.9038 49.1024V42.419ZM52.6021 47.5029V40.8195L58.878 42.4241V49.1075L52.6021 47.5029ZM44.2428 40.2846L47.3858 39.4593H47.396L47.503 39.4848L50.539 40.2846V46.968L47.6966 46.2192L47.396 46.1376H47.3858L44.2428 46.968V40.2846ZM19.236 47.4978C19.236 34.1411 28.7008 22.5063 41.7569 19.8064L41.874 19.781C42.307 19.6944 42.7451 19.6129 43.1832 19.5466C43.6773 19.4702 44.1307 19.4142 44.5841 19.3684L44.6605 19.3582C45.119 19.3123 45.5978 19.2716 46.0614 19.2512C46.9834 19.2053 47.9462 19.2053 48.858 19.2461L49.1025 19.2614C49.5151 19.2818 49.9379 19.3174 50.3557 19.3582L50.4321 19.3684C50.8956 19.4193 51.3337 19.4702 51.7667 19.5365L51.838 19.5466C52.2354 19.6078 52.6531 19.6842 53.0657 19.7657L53.2134 19.7963C58.3533 20.8558 62.9329 23.3061 66.6057 26.6936C72.2703 31.9201 75.7597 39.388 75.7597 47.4927C75.7597 53.7482 73.6661 59.642 70.1002 64.4101C68.083 67.1048 65.592 69.443 62.7444 71.2819L62.3267 62.5049L64.2319 60.2024L66.025 58.0323V53.5699L60.61 52.1385V42.5973L63.9008 41.716C64.1147 41.6549 64.1809 41.3798 64.0128 41.2321L55.5923 33.7693L48.6491 27.6207C47.9207 26.9738 46.8255 26.9738 46.097 27.6207L30.7537 41.2219C30.5805 41.3747 30.6518 41.6549 30.8709 41.7058L34.0903 42.4903V52.1232L28.9657 53.4273V59.0817C29.9947 60.0852 31.635 62.51 31.635 62.51L31.2682 70.6248C23.9379 65.4289 19.236 56.8759 19.236 47.4978ZM46.8357 0.464289C46.6421 0.464289 46.4587 0.469383 46.2702 0.474477C45.9748 0.479571 45.6793 0.494853 45.3839 0.505041L45.0527 0.520324C44.7114 0.535606 44.365 0.561076 44.0237 0.586546L43.876 0.596735C43.494 0.627299 43.1272 0.657864 42.7553 0.698616L42.6789 0.70371C31.4108 1.84478 20.9986 6.99997 13.225 15.2625L12.4049 16.1897C4.71796 24.8139 0.474609 35.9342 0.474609 47.4978C0.474609 58.236 3.9997 68.3529 10.6729 76.7428L11.6815 78.0163C19.3074 86.9666 29.8317 92.677 41.492 94.1594C41.874 94.2052 42.2204 94.246 42.5719 94.2816L42.8266 94.3071C43.1272 94.3377 43.4328 94.3631 43.7436 94.3886L44.1409 94.4192C44.416 94.4396 44.6911 94.4548 44.9712 94.4701L45.6895 94.5007C45.8678 94.5109 46.0461 94.516 46.2244 94.5211C46.5657 94.5312 46.9121 94.5363 47.2534 94.5363L47.5285 94.5414L47.7373 94.5363C48.0837 94.5363 48.425 94.5312 48.7714 94.5211C48.9497 94.516 49.128 94.5109 49.3063 94.5007L50.0245 94.4701C50.3047 94.4548 50.5798 94.4345 50.86 94.4192L51.2471 94.3886C51.5578 94.3631 51.8686 94.3377 52.1742 94.3071L52.4289 94.2816C52.7702 94.246 53.1166 94.2052 53.463 94.1645L53.5344 94.1543C65.2965 92.6617 75.9329 86.829 83.5791 77.7005L84.3229 76.7428C84.3789 76.6715 84.4298 76.6001 84.4859 76.5288C91.047 68.1746 94.5212 58.1444 94.5212 47.4978C94.5212 35.9342 90.2829 24.819 82.5909 16.1948L82.3158 15.884L81.5415 15.018C73.7934 6.89809 63.4729 1.8295 52.3118 0.70371L52.215 0.693522C51.8686 0.657864 51.5018 0.622205 51.13 0.596735L50.972 0.586546C50.6256 0.561076 50.2792 0.5407 49.9328 0.520324L49.6374 0.510136C49.3165 0.494853 49.021 0.479571 48.7205 0.474477C48.532 0.469383 48.3435 0.464289 48.155 0.464289L47.4673 0.454102L46.8357 0.464289Z" fill="white" />
	</mask>
	<g mask="url(#mask0_3_24249)">
		<path d="M112.442 62.9889L47.3906 46.1327L48.7406 39.6276L87.1294 -7.95605L112.442 62.9889Z" fill="#009DCC" />
	</g>
</svg>
