<svg width="25" height="25" viewBox="0 0 25 25" fill="none" xmlns="http://www.w3.org/2000/svg">
<path d="M18.5 11.6917C18.09 11.6917 17.75 11.3517 17.75 10.9417V8.94165C17.75 5.79165 16.86 3.69165 12.5 3.69165C8.14 3.69165 7.25 5.79165 7.25 8.94165V10.9417C7.25 11.3517 6.91 11.6917 6.5 11.6917C6.09 11.6917 5.75 11.3517 5.75 10.9417V8.94165C5.75 6.04165 6.45 2.19165 12.5 2.19165C18.55 2.19165 19.25 6.04165 19.25 8.94165V10.9417C19.25 11.3517 18.91 11.6917 18.5 11.6917Z" fill="#0E1640"/>
<path d="M12.5 20.1917C10.71 20.1917 9.25 18.7317 9.25 16.9417C9.25 15.1517 10.71 13.6917 12.5 13.6917C14.29 13.6917 15.75 15.1517 15.75 16.9417C15.75 18.7317 14.29 20.1917 12.5 20.1917ZM12.5 15.1917C11.54 15.1917 10.75 15.9817 10.75 16.9417C10.75 17.9017 11.54 18.6917 12.5 18.6917C13.46 18.6917 14.25 17.9017 14.25 16.9417C14.25 15.9817 13.46 15.1917 12.5 15.1917Z" fill="#0E1640"/>
<path d="M17.5 23.6917H7.5C3.09 23.6917 1.75 22.3517 1.75 17.9417V15.9417C1.75 11.5317 3.09 10.1917 7.5 10.1917H17.5C21.91 10.1917 23.25 11.5317 23.25 15.9417V17.9417C23.25 22.3517 21.91 23.6917 17.5 23.6917ZM7.5 11.6917C3.92 11.6917 3.25 12.3717 3.25 15.9417V17.9417C3.25 21.5117 3.92 22.1917 7.5 22.1917H17.5C21.08 22.1917 21.75 21.5117 21.75 17.9417V15.9417C21.75 12.3717 21.08 11.6917 17.5 11.6917H7.5Z" fill="#0E1640"/>
</svg>
