<svg width="24" height="22" viewBox="0 0 24 22" fill="none" xmlns="http://www.w3.org/2000/svg">
	<path d="M15.2405 20.4143H15.1105C10.6705 20.4143 8.5305 18.8101 8.1605 15.2168C8.1205 14.8409 8.4205 14.5018 8.8405 14.4651C9.2405 14.4284 9.6205 14.7126 9.6605 15.0884C9.9505 17.9668 11.4305 19.0393 15.1205 19.0393H15.2505C19.3205 19.0393 20.7605 17.7193 20.7605 13.9884V8.01177C20.7605 4.28094 19.3205 2.96094 15.2505 2.96094H15.1205C11.4105 2.96094 9.9305 4.05177 9.6605 6.9851C9.6105 7.36094 9.2605 7.6451 8.8405 7.60844C8.4205 7.58094 8.1205 7.24177 8.1505 6.86594C8.4905 3.2176 10.6405 1.58594 15.1105 1.58594H15.2405C20.1505 1.58594 22.2505 3.51094 22.2505 8.01177V13.9884C22.2505 18.4893 20.1505 20.4143 15.2405 20.4143Z" fill="white" />
	<path d="M14.9991 11.6875H3.61914C3.20914 11.6875 2.86914 11.3758 2.86914 11C2.86914 10.6242 3.20914 10.3125 3.61914 10.3125H14.9991C15.4091 10.3125 15.7491 10.6242 15.7491 11C15.7491 11.3758 15.4091 11.6875 14.9991 11.6875Z" fill="white" />
	<path d="M5.84945 14.7585C5.65945 14.7585 5.46945 14.6943 5.31945 14.5568L1.96945 11.486C1.67945 11.2202 1.67945 10.7802 1.96945 10.5143L5.31945 7.44352C5.60945 7.17768 6.08945 7.17768 6.37945 7.44352C6.66945 7.70935 6.66945 8.14935 6.37945 8.41518L3.55945 11.0002L6.37945 13.5852C6.66945 13.851 6.66945 14.291 6.37945 14.5568C6.23945 14.6943 6.03945 14.7585 5.84945 14.7585Z" fill="white" />
</svg>
