<svg width="72" height="72" viewBox="0 0 72 72" fill="none" xmlns="http://www.w3.org/2000/svg">
<path d="M62.8591 12.0448L62.6446 11.807L62.0558 11.1444C56.1244 4.93097 48.2236 1.05246 39.6794 0.191002L39.6053 0.183206C39.3401 0.15592 39.0593 0.132532 38.7746 0.109144L38.6537 0.101347C38.3886 0.0818574 38.1234 0.0623677 37.8582 0.0506737L37.632 0.0389794C37.3863 0.0272854 37.1563 0.0194895 36.9301 0.0116935C36.7858 0.00779553 36.6415 0.00779535 36.4933 0.00389735L35.963 0L35.4872 0.00389735C35.3429 0.00779535 35.1947 0.00779553 35.0504 0.0116935C34.8242 0.0194895 34.5981 0.0272854 34.3719 0.0389794L34.1184 0.0506737C33.8571 0.0623677 33.5919 0.0818574 33.3307 0.101347L33.2176 0.109144C32.9251 0.132532 32.6443 0.15592 32.3635 0.183206L32.305 0.191002C23.6789 1.06415 15.708 5.00893 9.75703 11.3315L9.12918 12.0448C3.24454 18.648 0 27.1535 0 36.0019C0 44.2189 2.69859 51.9604 7.80718 58.3804L8.58322 59.3549C14.4172 66.2037 22.4778 70.5733 31.4042 71.7076C31.6967 71.7427 31.9619 71.7739 32.2309 71.8012L32.4259 71.8207C32.656 71.8441 32.8939 71.8636 33.1279 71.8831L33.4321 71.9064C33.6426 71.922 33.8532 71.9337 34.0677 71.9454L34.6176 71.9688C34.754 71.9766 34.8905 71.9805 35.027 71.9844C35.2922 71.9922 35.5535 71.9961 35.8148 71.9961L36.0253 72L36.1852 71.9961C36.4504 71.9961 36.7156 71.9922 36.9769 71.9844C37.1134 71.9805 37.2499 71.9766 37.3863 71.9688L37.9362 71.9454C38.1507 71.9337 38.3613 71.9181 38.5757 71.9064L38.8721 71.8831C39.11 71.8636 39.3479 71.8441 39.5819 71.8207L39.7768 71.8012C40.0381 71.7739 40.3033 71.7427 40.5685 71.7115L40.6231 71.7038C49.6314 70.5616 57.77 66.0984 63.6235 59.1132L64.1928 58.3804C64.2357 58.3258 64.2747 58.2712 64.3176 58.2167C69.3404 51.8278 72 44.1527 72 36.0019C71.9961 27.1418 68.7516 18.6363 62.8591 12.0448ZM38.3223 30.4785V35.5927L36.1462 35.0196L35.9201 34.9612H35.9162L33.51 35.5927V30.4785L35.9162 29.8431H35.9201L36.0019 29.8626L38.3223 30.4785ZM44.7061 37.2337L39.9055 36.0058V30.8878L44.7061 32.1156V37.2337ZM31.9268 36.0019L27.1263 37.2298V32.1156L31.9268 30.8878V36.0019ZM53.2971 48.9355C51.7528 50.9976 49.8498 52.7867 47.6659 54.1939L47.3461 47.4777L48.8046 45.7158L50.1773 44.0552V40.6367L46.032 39.5413V32.2404L48.5473 31.566C48.711 31.5231 48.7617 31.3126 48.633 31.1996L42.1908 25.4929L36.8755 20.788C36.3178 20.293 35.4794 20.293 34.9217 20.788L23.1759 31.1957C23.0472 31.3088 23.0979 31.5231 23.2656 31.566L25.7341 32.1663V39.5374L21.811 40.5353V44.8621C22.5987 45.63 23.8583 47.4894 23.8583 47.4894L23.5736 53.695C17.9581 49.7268 14.3587 43.1782 14.3587 36.0019C14.3587 25.7814 21.6043 16.8783 31.5992 14.8124L31.6889 14.7929C32.0204 14.7267 32.3518 14.6643 32.6911 14.6136C33.0694 14.5551 33.4165 14.5123 33.7635 14.4772L33.822 14.4694C34.173 14.4343 34.5357 14.407 34.8944 14.3875C35.6003 14.3524 36.3373 14.3524 37.0354 14.3836L37.2225 14.3953C37.5384 14.4109 37.8621 14.4382 38.1819 14.4694L38.2404 14.4772C38.5952 14.5162 38.9306 14.5551 39.2621 14.6058L39.3167 14.6136C39.6248 14.6604 39.9406 14.715 40.2565 14.7812L40.3696 14.8046C44.3044 15.6154 47.8102 17.4903 50.6219 20.0825C54.9544 24.0819 57.6296 29.7963 57.6296 36.0019C57.6296 40.7848 56.0308 45.287 53.2971 48.9355Z" fill="#0C1438"/>
<mask id="mask0_3_24012" style="mask-type:luminance" maskUnits="userSpaceOnUse" x="0" y="0" width="72" height="72">
<path d="M27.1224 32.1117L31.9268 30.8839V35.9981L27.1224 37.2259V32.1117ZM39.9055 36.0019V30.8878L44.71 32.1156V37.2298L39.9055 36.0019ZM33.5061 30.4785L35.9123 29.847H35.9201L36.0019 29.8665L38.3262 30.4785V35.5927L36.1501 35.0196L35.9201 34.9573H35.9123L33.5061 35.5927V30.4785ZM14.3626 35.9981C14.3626 25.7775 21.6082 16.8745 31.6031 14.8085L31.6928 14.789C32.0243 14.7228 32.3596 14.6604 32.695 14.6097C33.0733 14.5512 33.4204 14.5084 33.7674 14.4733L33.8259 14.4655C34.1769 14.4304 34.5435 14.3992 34.8983 14.3836C35.6042 14.3485 36.3412 14.3485 37.0393 14.3797L37.2265 14.3914C37.5423 14.407 37.866 14.4343 38.1858 14.4655L38.2443 14.4733C38.5991 14.5123 38.9345 14.5512 39.266 14.6019L39.3206 14.6097C39.6248 14.6565 39.9445 14.715 40.2604 14.7773L40.3735 14.8007C44.3083 15.6115 47.8141 17.4864 50.6258 20.0786C54.9623 24.078 57.6335 29.7924 57.6335 35.9942C57.6335 40.7809 56.0308 45.2909 53.301 48.9394C51.7567 51.0015 49.8498 52.7906 47.6698 54.1978L47.3501 47.4816L48.8085 45.7197L50.1812 44.0591V40.6445L46.0359 39.5491V32.2482L48.5551 31.5738C48.7188 31.527 48.7695 31.3166 48.6409 31.2035L42.1947 25.4929L36.8794 20.788C36.3217 20.293 35.4833 20.293 34.9256 20.788L23.1798 31.1957C23.0472 31.3127 23.1018 31.527 23.2695 31.566L25.7341 32.1663V39.5374L21.811 40.5353V44.8621C22.5987 45.63 23.8544 47.4855 23.8544 47.4855L23.5736 53.695C17.962 49.719 14.3626 43.1743 14.3626 35.9981ZM35.4911 0.00779544C35.3429 0.00779544 35.2025 0.0116936 35.0582 0.0155916C34.832 0.0194896 34.6059 0.0311834 34.3797 0.0389794L34.1262 0.0506737C33.8649 0.0623677 33.5997 0.0818574 33.3385 0.101347L33.2254 0.109144C32.9329 0.132532 32.6521 0.15592 32.3674 0.187104L32.3089 0.191002C23.6828 1.06415 15.7119 5.00893 9.76093 11.3315L9.13308 12.0409C3.24844 18.6402 0 27.1496 0 35.9981C0 44.215 2.69859 51.9565 7.80718 58.3765L8.57932 59.351C14.4172 66.1998 22.4739 70.5694 31.4003 71.7038C31.6928 71.7388 31.958 71.77 32.2271 71.7973L32.422 71.8168C32.6521 71.8402 32.8861 71.8597 33.124 71.8792L33.4282 71.9025C33.6387 71.9181 33.8493 71.9298 34.0638 71.9415L34.6137 71.9649C34.7502 71.9727 34.8866 71.9766 35.0231 71.9805C35.2844 71.9883 35.5496 71.9922 35.8109 71.9922L36.0215 71.9961L36.1813 71.9922C36.4465 71.9922 36.7078 71.9883 36.973 71.9805C37.1095 71.9766 37.246 71.9727 37.3824 71.9649L37.9323 71.9415C38.1468 71.9298 38.3574 71.9142 38.5718 71.9025L38.8682 71.8792C39.1061 71.8597 39.344 71.8402 39.578 71.8168L39.773 71.7973C40.0342 71.77 40.2994 71.7388 40.5646 71.7076L40.6192 71.6999C49.6236 70.5577 57.7661 66.0945 63.6196 59.1093L64.1889 58.3765C64.2318 58.3219 64.2708 58.2673 64.3137 58.2128C69.3365 51.82 71.9961 44.1449 71.9961 35.9981C71.9961 27.1496 68.7516 18.6441 62.863 12.0448L62.6524 11.807L62.0597 11.1444C56.1283 4.93097 48.2275 1.05246 39.6833 0.191002L39.6092 0.183206C39.344 0.15592 39.0632 0.128634 38.7785 0.109144L38.6576 0.101347C38.3925 0.0818574 38.1273 0.0662657 37.8621 0.0506737L37.6359 0.0428775C37.3902 0.0311835 37.1641 0.0194896 36.934 0.0155916C36.7897 0.0116936 36.6454 0.00779544 36.5011 0.00779544L35.9747 0L35.4911 0.00779544Z" fill="white"/>
</mask>
<g mask="url(#mask0_3_24012)">
<path d="M85.7131 47.8519L35.9141 34.9534L36.9475 29.9757L66.3356 -6.43555L85.7131 47.8519Z" fill="#009DCC"/>
</g>
</svg>
