<svg width="277" height="112" viewBox="0 0 277 112" fill="none" xmlns="http://www.w3.org/2000/svg">
	<g clip-path="url(#clip0_3_24517)">
		<path d="M91.2909 24.8339L91.0107 24.5245L90.2415 23.6623C82.4934 15.5779 72.1728 10.5315 61.0118 9.41063L60.915 9.40048C60.5686 9.36498 60.2018 9.33455 59.8299 9.30412L59.672 9.29397C59.3256 9.26862 58.9792 9.24326 58.6328 9.22804L58.3374 9.21283C58.0164 9.19761 57.7159 9.18747 57.4204 9.17732C57.232 9.17225 57.0435 9.17225 56.8499 9.16718L56.1571 9.16211L55.5356 9.16718C55.3472 9.17225 55.1536 9.17225 54.9651 9.17732C54.6697 9.18747 54.3742 9.19761 54.0787 9.21283L53.7476 9.22804C53.4063 9.24326 53.0599 9.26862 52.7186 9.29397L52.5709 9.30412C52.1888 9.33455 51.8221 9.36498 51.4553 9.40048L51.3789 9.41063C40.1108 10.5467 29.6986 15.6793 21.925 23.9058L21.1049 24.8339C13.4179 33.4255 9.17969 44.4921 9.17969 56.0051C9.17969 66.6964 12.7048 76.7689 19.378 85.1222L20.3917 86.3901C28.0124 95.3012 38.5419 100.987 50.2022 102.463C50.5842 102.508 50.9306 102.549 51.2821 102.584L51.5368 102.61C51.8374 102.64 52.1481 102.665 52.4537 102.691L52.8511 102.721C53.1262 102.742 53.4012 102.757 53.6814 102.772L54.3997 102.802C54.578 102.813 54.7562 102.818 54.9345 102.823C55.2809 102.833 55.6222 102.838 55.9635 102.838L56.2386 102.843L56.4475 102.838C56.7939 102.838 57.1403 102.833 57.4816 102.823C57.6599 102.818 57.8382 102.813 58.0164 102.802L58.7347 102.772C59.0149 102.757 59.29 102.736 59.5701 102.721L59.9573 102.691C60.268 102.665 60.5788 102.64 60.8844 102.61L61.1391 102.584C61.4804 102.549 61.8268 102.508 62.1732 102.468L62.2445 102.458C74.0118 100.971 84.6431 95.1643 92.2893 86.0757L93.033 85.1222C93.0891 85.0512 93.14 84.9802 93.196 84.9091C99.7572 76.5965 103.231 66.6102 103.231 56.0051C103.226 44.4769 98.988 33.4103 91.2909 24.8339ZM59.239 48.8184V55.4725L56.3965 54.727L56.1011 54.6509H56.096L52.953 55.4725V48.8184L56.096 47.9917H56.1011L56.2081 48.017L59.239 48.8184ZM67.578 57.6078L61.3072 56.0101V49.3509L67.578 50.9485V57.6078ZM50.8848 56.0051L44.614 57.6027V50.9485L50.8848 49.3509V56.0051ZM78.8002 72.8332C76.783 75.5162 74.2971 77.8442 71.4444 79.6751L71.0267 70.9364L72.9319 68.6439L74.725 66.4834V62.0354L69.31 60.6102V51.1108L72.5957 50.2334C72.8096 50.1776 72.8758 49.9037 72.7077 49.7566L64.2923 42.3315L57.3491 36.2099C56.6207 35.5658 55.5255 35.5658 54.797 36.2099L39.4537 49.7516C39.2856 49.8986 39.3518 50.1776 39.5709 50.2334L42.7954 51.0144V60.6052L37.6708 61.9036V67.5332C38.6998 68.5324 40.3452 70.9516 40.3452 70.9516L39.9733 79.0259C32.6378 73.8628 27.936 65.3422 27.936 56.0051C27.936 42.7069 37.4008 31.1229 50.4569 28.4349L50.574 28.4095C51.007 28.3233 51.44 28.2421 51.8832 28.1762C52.3773 28.1001 52.8307 28.0443 53.2841 27.9987L53.3605 27.9886C53.8189 27.9429 54.2927 27.9074 54.7613 27.882C55.6834 27.8364 56.6461 27.8364 57.558 27.877L57.8025 27.8922C58.2151 27.9125 58.6379 27.948 59.0556 27.9886L59.132 27.9987C59.5956 28.0494 60.0337 28.1001 60.4667 28.1661L60.538 28.1762C60.9404 28.2371 61.3531 28.3081 61.7657 28.3943L61.9134 28.4247C67.0533 29.4797 71.6329 31.9192 75.3057 35.2919C80.9652 40.4956 84.4597 47.9308 84.4597 56.0051C84.4597 62.2281 82.3712 68.0861 78.8002 72.8332Z" fill="#0C1438" />
		<mask id="mask0_3_24517" style="mask-type:luminance" maskUnits="userSpaceOnUse" x="9" y="9" width="95" height="94">
			<path d="M44.6089 50.9434L50.8848 49.3458V56L44.6089 57.5976V50.9434ZM61.3072 56.0051V49.3509L67.5831 50.9485V57.6027L61.3072 56.0051ZM52.9479 48.8184L56.0909 47.9967H56.1011L56.2081 48.0221L59.2441 48.8184V55.4725L56.4016 54.727L56.1011 54.6458H56.0909L52.9479 55.4725V48.8184ZM27.9411 56C27.9411 42.7018 37.4059 31.1178 50.462 28.4298L50.5791 28.4044C51.0121 28.3182 51.4502 28.2371 51.8883 28.1711C52.3824 28.0951 52.8358 28.0393 53.2892 27.9936L53.3656 27.9835C53.824 27.9378 54.3029 27.8973 54.7664 27.877C55.6885 27.8313 56.6512 27.8313 57.5631 27.8719L57.8076 27.8871C58.2202 27.9074 58.643 27.9429 59.0607 27.9835L59.1371 27.9936C59.6007 28.0443 60.0388 28.0951 60.4718 28.161L60.5431 28.1711C60.9404 28.232 61.3582 28.3081 61.7708 28.3892L61.9185 28.4197C67.0584 29.4746 71.638 31.9141 75.3108 35.2868C80.9754 40.4905 84.4648 47.9257 84.4648 55.9949C84.4648 62.2231 82.3711 68.0911 78.8053 72.8383C76.7881 75.5213 74.2971 77.8492 71.4495 79.6801L71.0318 70.9415L72.937 68.649L74.7301 66.4884V62.0456L69.3151 60.6204V51.1209L72.6058 50.2435C72.8198 50.1827 72.886 49.9088 72.7179 49.7617L64.2974 42.3315L57.3542 36.2099C56.6258 35.5658 55.5305 35.5658 54.8021 36.2099L39.4588 49.7516C39.2856 49.9037 39.3569 50.1827 39.5759 50.2334L42.7954 51.0144V60.6052L37.6708 61.9036V67.5332C38.6998 68.5324 40.3401 70.9465 40.3401 70.9465L39.9733 79.0259C32.6429 73.8527 27.9411 65.3371 27.9411 56ZM55.5407 9.17225C55.3472 9.17225 55.1638 9.17732 54.9753 9.1824C54.6798 9.18747 54.3844 9.20268 54.0889 9.21283L53.7578 9.22804C53.4165 9.24326 53.0701 9.26862 52.7288 9.29397L52.5811 9.30412C52.199 9.33455 51.8323 9.36498 51.4604 9.40555L51.384 9.41063C40.1159 10.5467 29.7037 15.6793 21.9301 23.9058L21.11 24.8288C13.423 33.4154 9.17969 44.4871 9.17969 56C9.17969 66.6913 12.7048 76.7639 19.378 85.1171L20.3866 86.385C28.0124 95.2962 38.5368 100.982 50.1971 102.458C50.5791 102.503 50.9255 102.544 51.277 102.579L51.5317 102.605C51.8323 102.635 52.1379 102.66 52.4486 102.686L52.846 102.716C53.1211 102.736 53.3961 102.752 53.6763 102.767L54.3946 102.797C54.5729 102.807 54.7512 102.813 54.9294 102.818C55.2707 102.828 55.6171 102.833 55.9585 102.833L56.2335 102.838L56.4424 102.833C56.7888 102.833 57.1301 102.828 57.4765 102.818C57.6548 102.813 57.8331 102.807 58.0114 102.797L58.7296 102.767C59.0098 102.752 59.2849 102.731 59.565 102.716L59.9522 102.686C60.2629 102.66 60.5737 102.635 60.8793 102.605L61.134 102.579C61.4753 102.544 61.8217 102.503 62.1681 102.463L62.2394 102.452C74.0016 100.966 84.638 95.1592 92.2842 86.0706L93.0279 85.1171C93.084 85.0461 93.1349 84.9751 93.1909 84.9041C99.7521 76.5863 103.226 66.6 103.226 56C103.226 44.4871 98.988 33.4204 91.2959 24.8339L91.0209 24.5245L90.2466 23.6623C82.4985 15.5779 72.1779 10.5315 61.0169 9.41063L60.9201 9.40048C60.5737 9.36498 60.2069 9.32948 59.835 9.30412L59.6771 9.29397C59.3307 9.26862 58.9843 9.24833 58.6379 9.22804L58.3425 9.2179C58.0215 9.20268 57.7261 9.18747 57.4255 9.1824C57.2371 9.17732 57.0486 9.17225 56.8601 9.17225L56.1724 9.16211L55.5407 9.17225Z" fill="white" />
		</mask>
		<g mask="url(#mask0_3_24517)">
			<path d="M121.147 71.4232L56.0962 54.6407L57.4461 48.1641L95.835 0.788574L121.147 71.4232Z" fill="#009DCC" />
		</g>
		<path d="M126.48 46.8605V46.7946C126.48 40.2013 131.473 34.7998 138.63 34.7998C143.021 34.7998 145.655 36.2554 147.819 38.3754L144.559 42.1235C142.761 40.4954 140.932 39.5064 138.599 39.5064C134.672 39.5064 131.839 42.7524 131.839 46.7286V46.7946C131.839 50.7708 134.6 54.0878 138.599 54.0878C141.263 54.0878 142.894 53.0278 144.722 51.3693L147.988 54.6507C145.588 57.2019 142.929 58.7944 138.436 58.7944C131.575 58.7944 126.48 53.5197 126.48 46.8605Z" fill="#0C1438" />
		<path d="M148.823 46.8605V46.7946C148.823 40.2013 154.05 34.7998 161.237 34.7998C168.43 34.7998 173.585 40.1353 173.585 46.7286V46.7946C173.585 53.3879 168.359 58.7944 161.171 58.7944C153.984 58.7944 148.823 53.4589 148.823 46.8605ZM168.227 46.8605V46.7946C168.227 42.8183 165.297 39.5013 161.166 39.5013C157.04 39.5013 154.177 42.7473 154.177 46.7236V46.7895C154.177 50.7658 157.106 54.0827 161.232 54.0827C165.364 54.0878 168.227 50.8368 168.227 46.8605Z" fill="#0C1438" />
		<path d="M176.585 34.7998H187.237C190.202 34.7998 192.494 35.6569 194.028 37.2343C195.326 38.5681 196.024 40.4548 196.024 42.7219V42.7879C196.024 46.6576 193.992 49.0921 191.032 50.2282L196.727 58.7995H190.732L185.739 51.1208H181.71V58.7995H176.585V34.7998ZM186.906 46.4548C189.402 46.4548 190.834 45.0854 190.834 43.0617V42.9907C190.834 40.7287 189.3 39.5622 186.804 39.5622H181.71V46.4497H186.906V46.4548Z" fill="#0C1438" />
		<path d="M199.091 34.7998H216.834V39.6028H204.216V44.705H215.336V49.508H204.216V58.7944H199.091V34.7998Z" fill="#0C1438" />
		<path d="M224.725 34.7998H219.6V58.7944H224.725V34.7998Z" fill="#0C1438" />
		<path d="M228.988 34.7998H238.076C245.396 34.7998 250.46 39.9781 250.46 46.7286V46.7996C250.46 53.5552 245.401 58.7995 238.076 58.7995H228.988V34.7998ZM238.076 54.032C242.268 54.032 245.101 51.1157 245.101 46.8656V46.7996C245.101 42.5495 242.274 39.5673 238.076 39.5673H234.113V54.0371H238.076V54.032Z" fill="#0C1438" />
		<path d="M126.48 71.3981V71.3778C126.48 69.2984 128.055 67.5942 130.311 67.5942C131.697 67.5942 132.527 68.0558 133.205 68.7202L132.176 69.9019C131.61 69.3896 131.029 69.0752 130.296 69.0752C129.058 69.0752 128.167 70.0997 128.167 71.3524V71.3727C128.167 72.6254 129.038 73.6702 130.296 73.6702C131.136 73.6702 131.651 73.3355 132.227 72.8131L133.256 73.8477C132.502 74.6542 131.661 75.1563 130.245 75.1563C128.085 75.1613 126.48 73.4978 126.48 71.3981Z" fill="#0C1438" />
		<path d="M133.526 71.3981V71.3778C133.526 69.2984 135.171 67.5942 137.438 67.5942C139.705 67.5942 141.33 69.273 141.33 71.3524V71.3727C141.33 73.4521 139.685 75.1563 137.418 75.1563C135.151 75.1563 133.526 73.4775 133.526 71.3981ZM139.639 71.3981V71.3778C139.639 70.1251 138.717 69.0803 137.413 69.0803C136.114 69.0803 135.212 70.1048 135.212 71.3575V71.3778C135.212 72.6305 136.134 73.6753 137.438 73.6753C138.737 73.6753 139.639 72.6508 139.639 71.3981Z" fill="#0C1438" />
		<path d="M142.277 67.7207H145.634C146.566 67.7207 147.29 67.9844 147.774 68.4612C148.181 68.8669 148.4 69.4451 148.4 70.1349V70.1552C148.4 71.3369 147.758 72.0774 146.826 72.4222L148.619 75.0342H146.729L145.155 72.691H143.887V75.0342H142.272L142.277 67.7207ZM145.527 71.2709C146.312 71.2709 146.765 70.8551 146.765 70.2363V70.216C146.765 69.5263 146.281 69.1712 145.497 69.1712H143.892V71.2709H145.527Z" fill="#0C1438" />
		<path d="M149.368 67.7207H152.369C154.121 67.7207 155.18 68.7553 155.18 70.2464V70.2667C155.18 71.9607 153.861 72.8381 152.211 72.8381H150.983V75.0291H149.368V67.7207ZM152.262 71.4079C153.066 71.4079 153.54 70.9261 153.54 70.3022V70.282C153.54 69.5618 153.036 69.1763 152.231 69.1763H150.983V71.413H152.262V71.4079Z" fill="#0C1438" />
		<path d="M155.558 71.3981V71.3778C155.558 69.2984 157.203 67.5942 159.47 67.5942C161.737 67.5942 163.362 69.273 163.362 71.3524V71.3727C163.362 73.4521 161.716 75.1563 159.449 75.1563C157.188 75.1613 155.558 73.4775 155.558 71.3981ZM161.676 71.3981V71.3778C161.676 70.1251 160.754 69.0803 159.449 69.0803C158.145 69.0803 157.244 70.1048 157.244 71.3575V71.3778C157.244 72.6305 158.166 73.6753 159.47 73.6753C160.774 73.6753 161.676 72.6508 161.676 71.3981Z" fill="#0C1438" />
		<path d="M164.309 67.7207H167.666C168.598 67.7207 169.322 67.9844 169.806 68.4612C170.213 68.8669 170.437 69.4451 170.437 70.1349V70.1552C170.437 71.3369 169.795 72.0774 168.863 72.4222L170.656 75.0342H168.766L167.192 72.691H165.924V75.0342H164.309V67.7207ZM167.564 71.2709C168.354 71.2709 168.802 70.8551 168.802 70.2363V70.216C168.802 69.5263 168.318 69.1712 167.534 69.1712H165.929V71.2709H167.564Z" fill="#0C1438" />
		<path d="M173.921 67.6753H175.409L178.557 75.0395H176.866L176.193 73.4013H173.086L172.414 75.0395H170.763L173.921 67.6753ZM175.623 71.9711L174.645 69.5975L173.667 71.9711H175.623Z" fill="#0C1438" />
		<path d="M178.404 71.3981V71.3778C178.404 69.2984 179.978 67.5942 182.235 67.5942C183.621 67.5942 184.451 68.0558 185.128 68.7202L184.099 69.9019C183.534 69.3896 182.953 69.0752 182.22 69.0752C180.982 69.0752 180.09 70.0997 180.09 71.3524V71.3727C180.09 72.6254 180.962 73.6702 182.22 73.6702C183.06 73.6702 183.575 73.3355 184.15 72.8131L185.179 73.8477C184.425 74.6542 183.585 75.1563 182.169 75.1563C180.009 75.1613 178.404 73.4978 178.404 71.3981Z" fill="#0C1438" />
		<path d="M187.665 67.7207H186.05V75.0342H187.665V67.7207Z" fill="#0C1438" />
		<path d="M188.684 71.398V71.3777C188.684 69.2983 190.329 67.5941 192.596 67.5941C194.863 67.5941 196.488 69.2729 196.488 71.3523V71.3726C196.488 73.452 194.843 75.1562 192.576 75.1562C190.314 75.1612 188.684 73.4774 188.684 71.398ZM194.802 71.398V71.3777C194.802 70.125 193.88 69.0802 192.576 69.0802C191.277 69.0802 190.37 70.1047 190.37 71.3574V71.3777C190.37 72.6304 191.292 73.6752 192.596 73.6752C193.9 73.6752 194.802 72.6507 194.802 71.398ZM193.208 65.4082L194.583 66.0016L193.157 67.0464H191.939L193.208 65.4082Z" fill="#0C1438" />
		<path d="M197.436 67.7207H198.928L202.367 72.2244V67.7207H203.961V75.0342H202.586L199.03 70.3834V75.0342H197.436V67.7207Z" fill="#0C1438" />
		<path d="M207.889 67.7207H213.482V69.1864H209.503V70.7384H213.008V72.2042H209.503V75.0342H207.889V67.7207Z" fill="#0C1438" />
		<path d="M215.968 67.7207H214.353V75.0342H215.968V67.7207Z" fill="#0C1438" />
		<path d="M217.312 67.7207H220.175C222.483 67.7207 224.077 69.298 224.077 71.3572V71.3775C224.077 73.4366 222.483 75.0342 220.175 75.0342H217.312V67.7207ZM220.175 73.5837C221.495 73.5837 222.386 72.6961 222.386 71.3977V71.3775C222.386 70.0841 221.495 69.1712 220.175 69.1712H218.927V73.5786L220.175 73.5837Z" fill="#0C1438" />
		<path d="M224.908 71.8998V67.7207H226.523V71.8593C226.523 73.0511 227.119 73.6648 228.107 73.6648C229.095 73.6648 229.691 73.0714 229.691 71.91V67.7207H231.306V71.8441C231.306 74.0604 230.058 75.1458 228.086 75.1458C226.115 75.1559 224.908 74.0503 224.908 71.8998Z" fill="#0C1438" />
		<path d="M232.136 71.3981V71.3778C232.136 69.2984 233.71 67.5942 235.967 67.5942C237.353 67.5942 238.183 68.0558 238.86 68.7202L237.831 69.9019C237.266 69.3896 236.685 69.0752 235.952 69.0752C234.714 69.0752 233.822 70.0997 233.822 71.3524V71.3727C233.822 72.6254 234.693 73.6702 235.952 73.6702C236.792 73.6702 237.307 73.3355 237.882 72.8131L238.911 73.8477C238.157 74.6542 237.317 75.1563 235.901 75.1563C233.741 75.1613 232.136 73.4978 232.136 71.3981Z" fill="#0C1438" />
		<path d="M241.402 67.7207H239.788V75.0342H241.402V67.7207Z" fill="#0C1438" />
		<path d="M245.264 67.6753H246.752L249.9 75.0395H248.208L247.536 73.4013H244.429L243.756 75.0395H242.111L245.264 67.6753ZM246.965 71.9711L245.987 69.5975L245.009 71.9711H246.965Z" fill="#0C1438" />
		<path d="M250.541 67.7207H253.898C254.83 67.7207 255.554 67.9844 256.038 68.4612C256.445 68.8669 256.669 69.4451 256.669 70.1349V70.1552C256.669 71.3369 256.027 72.0774 255.095 72.4222L256.888 75.0342H254.998L253.424 72.691H252.156V75.0342H250.541V67.7207ZM253.796 71.2709C254.581 71.2709 255.034 70.8551 255.034 70.2363V70.216C255.034 69.5263 254.55 69.1712 253.766 69.1712H252.161V71.2709H253.796Z" fill="#0C1438" />
		<path d="M259.323 67.7207H257.708V75.0342H259.323V67.7207Z" fill="#0C1438" />
		<path d="M263.185 67.6753H264.672L267.821 75.0395H266.129L265.457 73.4013H262.35L261.677 75.0395H260.032L263.185 67.6753ZM264.886 71.9711L263.908 69.5975L262.93 71.9711H264.886Z" fill="#0C1438" />
	</g>
	<defs>
		<clipPath id="clip0_3_24517">
			<rect width="275.451" height="111.883" fill="white" transform="translate(0.774414 0.0581055)" />
		</clipPath>
	</defs>
</svg>
