<svg width="20" height="20" viewBox="0 0 20 20" fill="none" xmlns="http://www.w3.org/2000/svg">
<path d="M6.04934 15.7425C5.98268 15.7425 5.91602 15.7341 5.84935 15.7258C5.34935 15.6591 4.92435 15.3424 4.71602 14.8924L3.66601 12.5841C1.99934 11.3508 1.04102 9.50912 1.04102 7.50911C1.04102 3.95078 4.12435 1.05078 7.91602 1.05078C10.591 1.05078 13.0327 2.51744 14.141 4.79244C14.566 5.63411 14.791 6.55078 14.791 7.50911C14.791 10.9758 11.866 13.8174 8.21602 13.9591L7.16602 15.2258C6.88269 15.5508 6.47434 15.7425 6.04934 15.7425ZM7.91602 2.29244C4.81602 2.29244 2.29102 4.62577 2.29102 7.50077C2.29102 9.14244 3.10768 10.6591 4.52434 11.6591C4.61601 11.7258 4.69101 11.8091 4.73268 11.9091L5.84935 14.3674C5.89102 14.4591 5.97435 14.4841 6.01602 14.4841C6.05768 14.4924 6.14102 14.4841 6.19935 14.4174L7.43268 12.9341C7.54935 12.7925 7.72435 12.7091 7.91602 12.7091C11.016 12.7091 13.541 10.3758 13.541 7.50077C13.541 6.74244 13.366 6.01742 13.0244 5.34242C12.1244 3.48408 10.116 2.29244 7.91602 2.29244Z" fill="#0A3D8D"/>
<path d="M13.9494 18.9596C13.5161 18.9596 13.1161 18.7679 12.8327 18.4346L11.7827 17.1762C9.76608 17.0929 7.86608 16.1679 6.64941 14.6679C6.45775 14.4345 6.46609 14.1013 6.65775 13.8763L7.43275 12.9429C7.54941 12.8013 7.72442 12.7179 7.91608 12.7179C11.0161 12.7179 13.5411 10.3846 13.5411 7.50957C13.5411 6.75124 13.3661 6.02622 13.0244 5.35122C12.9161 5.13455 12.9411 4.87623 13.0911 4.68456C13.2411 4.49289 13.4911 4.40954 13.7244 4.45954C16.8078 5.16788 18.9578 7.74289 18.9578 10.7262C18.9578 12.7262 17.9994 14.5679 16.3328 15.8012L15.2827 18.1095C15.0661 18.5762 14.6411 18.8929 14.1328 18.9512C14.0744 18.9596 14.0078 18.9596 13.9494 18.9596ZM7.96608 14.2512C9.00775 15.3095 10.5078 15.9262 12.0828 15.9262C12.2661 15.9262 12.4411 16.0096 12.5661 16.1512L13.7994 17.6345C13.8577 17.7095 13.9327 17.7179 13.9827 17.7096C14.0161 17.7096 14.1078 17.6845 14.1578 17.5845L15.2744 15.1263C15.3244 15.0263 15.3911 14.9345 15.4828 14.8762C16.8994 13.8762 17.7161 12.3596 17.7161 10.7179C17.7161 8.71788 16.4911 6.94292 14.6244 6.06792C14.7411 6.53459 14.7994 7.00956 14.7994 7.50123C14.7994 10.9679 11.8744 13.8096 8.22441 13.9512L7.96608 14.2512Z" fill="#0A3D8D"/>
<path d="M10.0007 8.125H5.83398C5.49232 8.125 5.20898 7.84167 5.20898 7.5C5.20898 7.15833 5.49232 6.875 5.83398 6.875H10.0007C10.3423 6.875 10.6257 7.15833 10.6257 7.5C10.6257 7.84167 10.3423 8.125 10.0007 8.125Z" fill="#0A3D8D"/>
</svg>
