<svg width="20" height="20" viewBox="0 0 20 20" fill="none" xmlns="http://www.w3.org/2000/svg">
<path d="M14.168 17.7087H5.83464C2.79297 17.7087 1.04297 15.9587 1.04297 12.917V7.08366C1.04297 4.04199 2.79297 2.29199 5.83464 2.29199H14.168C17.2096 2.29199 18.9596 4.04199 18.9596 7.08366V12.917C18.9596 15.9587 17.2096 17.7087 14.168 17.7087ZM5.83464 3.54199C3.4513 3.54199 2.29297 4.70033 2.29297 7.08366V12.917C2.29297 15.3003 3.4513 16.4587 5.83464 16.4587H14.168C16.5513 16.4587 17.7096 15.3003 17.7096 12.917V7.08366C17.7096 4.70033 16.5513 3.54199 14.168 3.54199H5.83464Z" fill="#363538"/>
<path d="M10 13.125C8.275 13.125 6.875 11.725 6.875 10C6.875 8.275 8.275 6.875 10 6.875C11.725 6.875 13.125 8.275 13.125 10C13.125 11.725 11.725 13.125 10 13.125ZM10 8.125C8.96667 8.125 8.125 8.96667 8.125 10C8.125 11.0333 8.96667 11.875 10 11.875C11.0333 11.875 11.875 11.0333 11.875 10C11.875 8.96667 11.0333 8.125 10 8.125Z" fill="#363538"/>
<path d="M4.58203 12.7087C4.24036 12.7087 3.95703 12.4253 3.95703 12.0837V7.91699C3.95703 7.57533 4.24036 7.29199 4.58203 7.29199C4.9237 7.29199 5.20703 7.57533 5.20703 7.91699V12.0837C5.20703 12.4253 4.9237 12.7087 4.58203 12.7087Z" fill="#363538"/>
<path d="M15.418 12.7087C15.0763 12.7087 14.793 12.4253 14.793 12.0837V7.91699C14.793 7.57533 15.0763 7.29199 15.418 7.29199C15.7596 7.29199 16.043 7.57533 16.043 7.91699V12.0837C16.043 12.4253 15.7596 12.7087 15.418 12.7087Z" fill="#363538"/>
</svg>
