<svg width="20" height="20" viewBox="0 0 20 20" fill="none" xmlns="http://www.w3.org/2000/svg">
<path d="M9.79036 0.832031C7.55078 0.832031 5.75445 1.61589 5.75445 1.61589L5.03125 1.90703L5.38118 2.57891L6.57096 4.84089C4.97876 5.74232 0.832031 8.5026 0.832031 13.0154C0.832031 15.1318 1.54648 16.7387 3.09494 17.6289C4.64341 18.5191 6.813 18.7487 9.79036 18.7487C12.7677 18.7487 14.9373 18.5191 16.4858 17.6289C18.0342 16.7387 18.7487 15.1318 18.7487 13.0154C18.7487 10.0703 16.9582 7.86432 15.2727 6.43099C16.7249 6.99648 17.4423 7.77474 17.4423 7.77474L18.5621 6.78932C18.5621 6.78932 16.6578 4.85768 13.1964 4.48255L14.1995 2.57891L14.5495 1.90703L13.8263 1.61589C13.8263 1.61589 12.0299 0.832031 9.79036 0.832031ZM9.79036 2.26536C10.9656 2.26536 11.855 2.47533 12.4732 2.66849L11.5634 4.41536H8.01736L7.10753 2.66849C7.72575 2.47533 8.61517 2.26536 9.79036 2.26536ZM7.78407 5.8487H11.7967C11.9804 5.94108 17.2556 8.61178 17.2556 13.0154C17.2556 14.8574 16.8095 15.7673 15.7159 16.3971C14.6224 17.027 12.6744 17.3154 9.79036 17.3154C6.90632 17.3154 4.95835 17.027 3.8648 16.3971C2.77125 15.7673 2.32509 14.8574 2.32509 13.0154C2.32509 8.61178 7.60035 5.94108 7.78407 5.8487ZM9.04384 7.28203V8.13307C8.18066 8.43542 7.55078 9.22767 7.55078 10.1487C7.55078 10.745 7.89488 11.2545 8.27398 11.5596C8.65308 11.8648 9.09049 12.0495 9.46376 12.2315C9.83702 12.4135 10.1695 12.5814 10.3503 12.7242C10.5311 12.867 10.5369 12.9062 10.5369 13.0154C10.5369 13.3905 10.1986 13.732 9.79036 13.732C9.36753 13.732 9.04384 13.4213 9.04384 13.0154H7.55078C7.55078 13.942 8.18066 14.7314 9.04384 15.031V15.882H10.5369V15.031C11.403 14.7286 12.0299 13.9336 12.0299 13.0154C12.0299 12.4191 11.6625 11.9292 11.2834 11.6268C10.9043 11.3245 10.4902 11.1341 10.117 10.9549C9.74371 10.7758 9.4346 10.6078 9.2538 10.4622C9.073 10.3167 9.04384 10.2691 9.04384 10.1487C9.04384 9.76237 9.37628 9.43203 9.79036 9.43203C10.2132 9.43203 10.5369 9.74277 10.5369 10.1487H12.0299C12.0299 9.22207 11.4001 8.43262 10.5369 8.13307V7.28203H9.04384Z" fill="#292D32"/>
</svg>
