<svg width="20" height="20" viewBox="0 0 20 20" fill="none" xmlns="http://www.w3.org/2000/svg">
<path d="M10.0172 17.1086C8.07554 17.1086 6.13388 16.8003 4.29221 16.1836C3.59221 15.9419 3.05888 15.4503 2.82554 14.8086C2.58388 14.1669 2.66721 13.4586 3.05054 12.8253L4.00888 11.2336C4.20888 10.9003 4.39221 10.2336 4.39221 9.84193V7.43359C4.39221 4.33359 6.91721 1.80859 10.0172 1.80859C13.1172 1.80859 15.6422 4.33359 15.6422 7.43359V9.84193C15.6422 10.2253 15.8255 10.9003 16.0255 11.2419L16.9755 12.8253C17.3339 13.4253 17.4005 14.1503 17.1589 14.8086C16.9172 15.4669 16.3922 15.9669 15.7339 16.1836C13.9005 16.8003 11.9589 17.1086 10.0172 17.1086ZM10.0172 3.05859C7.60888 3.05859 5.64221 5.01693 5.64221 7.43359V9.84193C5.64221 10.4503 5.39221 11.3503 5.08388 11.8753L4.12554 13.4669C3.94221 13.7753 3.89221 14.1003 4.00054 14.3753C4.10054 14.6586 4.35054 14.8753 4.69221 14.9919C8.17554 16.1586 11.8672 16.1586 15.3505 14.9919C15.6505 14.8919 15.8839 14.6669 15.9922 14.3669C16.1005 14.0669 16.0755 13.7419 15.9089 13.4669L14.9505 11.8753C14.6339 11.3336 14.3922 10.4419 14.3922 9.83359V7.43359C14.3922 5.01693 12.4339 3.05859 10.0172 3.05859Z" fill="#0A3D8D"/>
<path d="M11.5659 3.28438C11.5075 3.28438 11.4492 3.27604 11.3909 3.25937C11.1492 3.19271 10.9159 3.14271 10.6909 3.10938C9.98253 3.01771 9.2992 3.06771 8.65753 3.25937C8.4242 3.33437 8.1742 3.25937 8.01587 3.08437C7.85753 2.90937 7.80753 2.65938 7.8992 2.43438C8.24087 1.55938 9.0742 0.984375 10.0242 0.984375C10.9742 0.984375 11.8075 1.55104 12.1492 2.43438C12.2325 2.65938 12.1909 2.90937 12.0325 3.08437C11.9075 3.21771 11.7325 3.28438 11.5659 3.28438Z" fill="#0A3D8D"/>
<path d="M10.0176 19.0078C9.19258 19.0078 8.39258 18.6745 7.80924 18.0911C7.22591 17.5078 6.89258 16.7078 6.89258 15.8828H8.14258C8.14258 16.3745 8.34258 16.8578 8.69258 17.2078C9.04258 17.5578 9.52591 17.7578 10.0176 17.7578C11.0509 17.7578 11.8926 16.9161 11.8926 15.8828H13.1426C13.1426 17.6078 11.7426 19.0078 10.0176 19.0078Z" fill="#0A3D8D"/>
</svg>
