<svg width="20" height="20" viewBox="0 0 20 20" fill="none" xmlns="http://www.w3.org/2000/svg">
<path d="M18.3327 9.16602V6.83268C18.3327 5.89926 18.3327 5.43255 18.151 5.07603C17.9912 4.76243 17.7363 4.50746 17.4227 4.34767C17.0661 4.16602 16.5994 4.16602 15.666 4.16602H4.33268C3.39926 4.16602 2.93255 4.16602 2.57603 4.34767C2.26243 4.50746 2.00746 4.76243 1.84767 5.07603C1.66602 5.43255 1.66602 5.89926 1.66602 6.83268V9.83268C1.66602 10.7661 1.66602 11.2328 1.84767 11.5893C2.00746 11.9029 2.26243 12.1579 2.57603 12.3177C2.93255 12.4993 3.39926 12.4993 4.33268 12.4993H9.16602M9.99935 8.33268H10.0035M14.166 8.33268H14.1702M5.83268 8.33268H5.83685M16.041 14.166V12.7077C16.041 11.9023 15.3881 11.2493 14.5827 11.2493C13.7773 11.2493 13.1243 11.9023 13.1243 12.7077V14.166M10.2077 8.33268C10.2077 8.44774 10.1144 8.54102 9.99935 8.54102C9.88429 8.54102 9.79102 8.44774 9.79102 8.33268C9.79102 8.21762 9.88429 8.12435 9.99935 8.12435C10.1144 8.12435 10.2077 8.21762 10.2077 8.33268ZM14.3743 8.33268C14.3743 8.44774 14.2811 8.54102 14.166 8.54102C14.051 8.54102 13.9577 8.44774 13.9577 8.33268C13.9577 8.21762 14.051 8.12435 14.166 8.12435C14.2811 8.12435 14.3743 8.21762 14.3743 8.33268ZM6.04102 8.33268C6.04102 8.44774 5.94774 8.54102 5.83268 8.54102C5.71762 8.54102 5.62435 8.44774 5.62435 8.33268C5.62435 8.21762 5.71762 8.12435 5.83268 8.12435C5.94774 8.12435 6.04102 8.21762 6.04102 8.33268ZM12.9993 17.4993H16.166C16.6327 17.4993 16.8661 17.4993 17.0443 17.4085C17.2011 17.3286 17.3286 17.2011 17.4085 17.0443C17.4993 16.8661 17.4993 16.6327 17.4993 16.166V15.4993C17.4993 15.0326 17.4993 14.7993 17.4085 14.621C17.3286 14.4642 17.2011 14.3367 17.0443 14.2568C16.8661 14.166 16.6327 14.166 16.166 14.166H12.9993C12.5326 14.166 12.2993 14.166 12.121 14.2568C11.9642 14.3367 11.8367 14.4642 11.7568 14.621C11.666 14.7993 11.666 15.0326 11.666 15.4993V16.166C11.666 16.6327 11.666 16.8661 11.7568 17.0443C11.8367 17.2011 11.9642 17.3286 12.121 17.4085C12.2993 17.4993 12.5326 17.4993 12.9993 17.4993Z" stroke="#0A3D8D" stroke-width="1.5" stroke-linecap="round" stroke-linejoin="round"/>
</svg>
