<svg width="27" height="27" viewBox="0 0 27 27" fill="none" xmlns="http://www.w3.org/2000/svg">
<path d="M13.6717 13.0905C13.6394 13.0905 13.6178 13.0905 13.5855 13.0905C13.5317 13.0798 13.4563 13.0798 13.3917 13.0905C10.2686 12.9936 7.91016 10.5382 7.91016 7.51208C7.91016 4.43208 10.4194 1.92285 13.4994 1.92285C16.5794 1.92285 19.0886 4.43208 19.0886 7.51208C19.0779 10.5382 16.7086 12.9936 13.704 13.0905C13.6932 13.0905 13.6825 13.0905 13.6717 13.0905ZM13.4994 3.53824C11.3132 3.53824 9.52554 5.32593 9.52554 7.51208C9.52554 9.66593 11.2055 11.3998 13.3486 11.4752C13.4025 11.4644 13.5532 11.4644 13.6932 11.4752C15.804 11.3782 17.4625 9.64439 17.4732 7.51208C17.4732 5.32593 15.6855 3.53824 13.4994 3.53824Z" fill="#0C1438"/>
<path d="M13.6836 24.8621C11.5728 24.8621 9.45125 24.3236 7.84663 23.2467C6.34971 22.2559 5.53125 20.899 5.53125 19.4236C5.53125 17.9482 6.34971 16.5805 7.84663 15.579C11.0774 13.4359 16.3113 13.4359 19.5205 15.579C21.0066 16.5698 21.8359 17.9267 21.8359 19.4021C21.8359 20.8774 21.0174 22.2451 19.5205 23.2467C17.9051 24.3236 15.7943 24.8621 13.6836 24.8621ZM8.74048 16.9359C7.70663 17.6251 7.14663 18.5082 7.14663 19.4344C7.14663 20.3498 7.7174 21.2328 8.74048 21.9113C11.422 23.7098 15.9451 23.7098 18.6266 21.9113C19.6605 21.2221 20.2205 20.339 20.2205 19.4128C20.2205 18.4974 19.6497 17.6144 18.6266 16.9359C15.9451 15.1482 11.422 15.1482 8.74048 16.9359Z" fill="#0C1438"/>
</svg>
