<svg width="27" height="27" viewBox="0 0 27 27" fill="none" xmlns="http://www.w3.org/2000/svg">
	<path d="M13.5004 19.3652H13.5111M9.40807 24.2113H17.5927C18.7989 24.2113 19.4021 24.2113 19.8628 23.9766C20.2681 23.7701 20.5976 23.4406 20.8041 23.0353C21.0388 22.5746 21.0388 21.9714 21.0388 20.7652V6.119C21.0388 4.91274 21.0388 4.3096 20.8041 3.84887C20.5976 3.4436 20.2681 3.1141 19.8628 2.90761C19.4021 2.67285 18.7989 2.67285 17.5927 2.67285H9.40807C8.2018 2.67285 7.59867 2.67285 7.13793 2.90761C6.73266 3.1141 6.40317 3.4436 6.19667 3.84887C5.96191 4.3096 5.96191 4.91274 5.96191 6.11901V20.7652C5.96191 21.9714 5.96191 22.5746 6.19667 23.0353C6.40317 23.4406 6.73266 23.7701 7.13793 23.9766C7.59867 24.2113 8.2018 24.2113 9.40807 24.2113ZM14.0388 19.3652C14.0388 19.6625 13.7978 19.9036 13.5004 19.9036C13.203 19.9036 12.9619 19.6625 12.9619 19.3652C12.9619 19.0678 13.203 18.8267 13.5004 18.8267C13.7978 18.8267 14.0388 19.0678 14.0388 19.3652Z" stroke="#14205B" stroke-width="2" stroke-linecap="round" stroke-linejoin="round" />
</svg>
