<svg width="38" height="38" viewBox="0 0 38 38" fill="none" xmlns="http://www.w3.org/2000/svg">
<path fill-rule="evenodd" clip-rule="evenodd" d="M18.222 6.55545C16.0742 6.55545 14.3331 8.29656 14.3331 10.4443C14.3331 12.5921 16.0742 14.3332 18.222 14.3332C20.1336 14.3332 21.723 12.954 22.0495 11.1364C22.0546 11.0434 22.0678 10.9526 22.0884 10.8647C22.1033 10.7266 22.1109 10.5864 22.1109 10.4443C22.1109 8.29656 20.3698 6.55545 18.222 6.55545ZM25.1452 9.404C24.6427 6.03139 21.7345 3.44434 18.222 3.44434C14.356 3.44434 11.222 6.57834 11.222 10.4443C11.222 10.8233 11.2521 11.1951 11.3101 11.5577C8.84677 13.2402 7.10757 15.9101 6.66553 18.9999H6.55534C5.69623 18.9999 4.99978 18.3034 4.99978 17.4443C4.99978 16.8705 5.30967 16.3672 5.77869 16.0959C6.52234 15.6658 6.77646 14.7142 6.34628 13.9705C5.9161 13.2269 4.96453 12.9728 4.22088 13.4029C2.83007 14.2075 1.88867 15.7151 1.88867 17.4443C1.88867 20.0217 3.97801 22.111 6.55534 22.111H6.66564C7.00156 24.4571 8.08576 26.5631 9.66634 28.1761L9.66633 31.7914C9.66626 31.9767 9.66618 32.198 9.68211 32.393C9.70056 32.6189 9.74792 32.9424 9.92066 33.2814C10.1444 33.7205 10.5013 34.0774 10.9404 34.3011C11.2794 34.4739 11.6029 34.5212 11.8288 34.5397C12.0238 34.5556 12.245 34.5555 12.4303 34.5555C12.4425 34.5555 12.4545 34.5555 12.4663 34.5555H15.4219C15.4337 34.5555 15.4457 34.5555 15.4579 34.5555C15.6432 34.5555 15.8645 34.5556 16.0594 34.5397C16.2853 34.5212 16.6089 34.4739 16.9479 34.3011C17.3869 34.0774 17.7439 33.7205 17.9676 33.2814C18.1403 32.9424 18.1877 32.6189 18.2061 32.393C18.2221 32.198 18.222 31.9767 18.2219 31.7914L18.2219 31.4443H19.7775L19.7774 31.7914C19.7774 31.9767 19.7773 32.198 19.7932 32.393C19.8117 32.6189 19.859 32.9424 20.0318 33.2814C20.2555 33.7205 20.6124 34.0774 21.0515 34.3011C21.3905 34.4739 21.714 34.5212 21.9399 34.5397C22.1349 34.5556 22.3562 34.5555 22.5414 34.5555C22.5536 34.5555 22.5656 34.5555 22.5775 34.5555H25.5331C25.545 34.5555 25.557 34.5555 25.5691 34.5555C25.7544 34.5555 25.9757 34.5556 26.1706 34.5397C26.3965 34.5212 26.7201 34.4739 27.0591 34.3011C27.4981 34.0774 27.8551 33.7205 28.0788 33.2814C28.2515 32.9424 28.2989 32.6189 28.3174 32.393C28.3333 32.198 28.3332 31.9768 28.3331 31.7915C28.3331 31.7793 28.3331 31.7673 28.3331 31.7555V30.3961C30.0539 29.5788 31.5246 28.3248 32.6034 26.7777L33.3469 26.7777C33.5322 26.7778 33.7535 26.7778 33.9484 26.7619C34.1743 26.7435 34.4978 26.6961 34.8369 26.5234C35.2759 26.2996 35.6329 25.9427 35.8566 25.5037C36.0293 25.1646 36.0767 24.8411 36.0951 24.6152C36.1111 24.4203 36.111 24.199 36.1109 24.0137C36.1109 24.0015 36.1109 23.9895 36.1109 23.9777L36.1109 18.6324C36.111 18.456 36.111 18.2452 36.0966 18.0593C36.0798 17.8444 36.037 17.536 35.8798 17.2096M12.5329 14.5238C13.8034 16.2924 15.8782 17.4443 18.222 17.4443C21.2908 17.4443 23.8983 15.4696 24.8433 12.7216C24.921 12.704 24.9896 12.6842 25.0267 12.6735C25.0313 12.6722 25.0354 12.671 25.039 12.6699L28.3331 11.7288V13.0424C28.3331 13.0539 28.333 13.0673 28.3329 13.0824C28.3319 13.2248 28.3299 13.516 28.397 13.7969C28.455 14.0399 28.5437 14.2552 28.6736 14.4686C28.8246 14.7164 29.0444 14.9349 29.1551 15.0449C29.1674 15.0571 29.1784 15.0679 29.1877 15.0774C29.8238 15.7184 30.3484 16.4687 30.7311 17.2966L30.7418 17.3198C30.8038 17.454 30.8724 17.6025 30.938 17.7274C31.0071 17.859 31.1255 18.0696 31.316 18.2708C31.5853 18.5552 31.8939 18.7525 32.265 18.8776C32.5176 18.9628 32.7867 18.9899 32.9998 18.9978V23.6666H32.4689C32.4542 23.6666 32.4371 23.6664 32.4179 23.6662C32.2377 23.6647 31.8697 23.6614 31.5251 23.7646C31.2275 23.8536 30.9713 23.9886 30.7295 24.1836C30.4483 24.4104 30.2294 24.7355 30.1186 24.9001C30.1062 24.9185 30.0951 24.935 30.0855 24.949C29.2975 26.0976 28.2097 27.0238 26.9371 27.6146L26.9127 27.6259C26.7725 27.691 26.6173 27.763 26.4868 27.8323C26.349 27.9054 26.1292 28.0306 25.9218 28.2339C25.6612 28.4894 25.4782 28.7761 25.3562 29.1201C25.2148 29.519 25.2193 29.9596 25.2216 30.1758C25.2218 30.1992 25.222 30.2199 25.222 30.2377V31.4443H22.8886L22.8886 31.0972C22.8886 30.912 22.8887 30.6907 22.8728 30.4957C22.8543 30.2698 22.807 29.9463 22.6343 29.6073C22.4105 29.1682 22.0536 28.8113 21.6145 28.5875C21.2755 28.4148 20.952 28.3674 20.7261 28.349C20.5311 28.3331 20.3098 28.3331 20.1245 28.3332C20.1124 28.3332 20.1004 28.3332 20.0886 28.3332H17.9108C17.899 28.3332 17.887 28.3332 17.8748 28.3332C17.6895 28.3331 17.4682 28.3331 17.2733 28.349C17.0474 28.3674 16.7238 28.4148 16.3848 28.5875C15.9458 28.8113 15.5888 29.1682 15.3651 29.6073C15.1924 29.9463 15.145 30.2698 15.1265 30.4957C15.1106 30.6907 15.1107 30.9119 15.1108 31.0972L15.1108 31.4443H12.7775V28.0685C12.7775 28.057 12.7775 28.0436 12.7777 28.0285C12.7787 27.8861 12.7807 27.5949 12.7136 27.314C12.6556 27.071 12.5669 26.8556 12.4369 26.6423C12.286 26.3945 12.0662 26.176 11.9554 26.066C11.9431 26.0538 11.9322 26.043 11.9228 26.0335C10.5264 24.6261 9.66634 22.6927 9.66634 20.5555C9.66634 18.1239 10.7818 15.9513 12.5329 14.5238ZM25.1452 9.404L27.875 8.62408C27.8889 8.6201 27.903 8.61608 27.9171 8.61203C28.1487 8.54579 28.4108 8.47082 28.642 8.4265C28.8973 8.37757 29.2987 8.32555 29.7477 8.45293C30.3076 8.61175 30.7878 8.97403 31.0943 9.46868C31.3402 9.86542 31.4004 10.2657 31.4235 10.5246C31.4444 10.7591 31.4443 11.0317 31.4442 11.2726C31.4442 11.2873 31.4442 11.3019 31.4442 11.3163V12.9348C32.2848 13.7926 32.985 14.7896 33.5072 15.889C33.649 15.8896 33.8016 15.8923 33.9404 15.9031C34.1553 15.9198 34.4637 15.9627 34.7901 16.1199C35.2662 16.3492 35.6504 16.7334 35.8798 17.2096" fill="#14205B"/>
</svg>
