<svg width="21" height="15" viewBox="0 0 21 15" fill="none" xmlns="http://www.w3.org/2000/svg">
<mask id="mask0_3_22333" style="mask-type:luminance" maskUnits="userSpaceOnUse" x="0" y="0" width="21" height="15">
<path d="M0.177734 0H20.9365V15H0.177734V0Z" fill="white"/>
</mask>
<g mask="url(#mask0_3_22333)">
<path fill-rule="evenodd" clip-rule="evenodd" d="M5.36719 0H20.9363V15H5.36719V0Z" fill="#EF0000"/>
<path fill-rule="evenodd" clip-rule="evenodd" d="M0.177734 0H7.96229V15H0.177734V0Z" fill="#2F8D00"/>
<mask id="mask1_3_22333" style="mask-type:luminance" maskUnits="userSpaceOnUse" x="2" y="2" width="11" height="11">
<path fill-rule="evenodd" clip-rule="evenodd" d="M7.90083 12.3801C5.13701 12.3801 2.89648 10.1955 2.89648 7.50061C2.89648 4.80573 5.13701 2.62109 7.90083 2.62109C10.6647 2.62109 12.9052 4.80573 12.9052 7.50061C12.9052 10.1955 10.6647 12.3801 7.90083 12.3801Z" fill="white"/>
</mask>
<g mask="url(#mask1_3_22333)">
<path fill-rule="evenodd" clip-rule="evenodd" d="M7.5918 2.5H8.24051V4.18675H7.5918V2.5Z" fill="#FFE017"/>
<path fill-rule="evenodd" clip-rule="evenodd" d="M7.5918 10.9336H8.24051V12.4999H7.5918V10.9336Z" fill="#FFE017"/>
<path d="M2.9763 7.75302L2.79492 7.30471C4.79632 6.53489 6.30689 6.03846 7.33182 5.81472C8.83566 5.48647 10.4879 5.2436 12.2889 5.08594L12.3331 5.56594C10.5528 5.72179 8.92168 5.96154 7.43983 6.28502C6.44538 6.50208 4.95579 6.99164 2.9763 7.75302Z" fill="#FFE017"/>
<path d="M12.5944 4.7914L12.4473 5.25146C10.9346 4.79139 9.70247 4.59363 8.75535 4.65489L8.72266 4.17401C9.73958 4.10824 11.0286 4.31514 12.5944 4.7914Z" fill="#FFE017"/>
<path d="M13.1185 7.36328L12.8389 7.76072C12.0678 7.24491 11.1178 6.98584 9.98242 6.98584V6.50391C11.2133 6.50391 12.2608 6.78959 13.1185 7.36328Z" fill="#FFE017"/>
<path d="M12.6995 7.50586L12.8273 7.97142C11.1649 8.40523 9.60409 8.65142 8.14488 8.70936C6.67554 8.76773 4.96305 8.52073 3.00586 7.97017L3.14285 7.50711C5.05247 8.0443 6.71362 8.28386 8.12477 8.22786C9.54597 8.17136 11.0709 7.93092 12.6995 7.50586Z" fill="#FFE017"/>
<path d="M12.5122 9.77223L11.7309 10.5439C10.2462 9.11479 8.93907 8.09291 7.81758 7.47897C6.67694 6.85447 5.18946 6.22036 3.35742 5.57918L3.73312 4.55859C5.6192 5.21869 7.1614 5.87613 8.36204 6.53348C9.58188 7.20129 10.9625 8.28066 12.5122 9.77223Z" fill="#FFE017"/>
<path d="M3.71955 10.2099L3.42383 9.82378C3.46513 9.79372 3.53881 9.74359 3.64034 9.68003C3.80796 9.57509 3.9941 9.47034 4.19438 9.37247C4.74598 9.10291 5.29929 8.93459 5.82703 8.91909C5.85284 8.91834 5.87854 8.91797 5.90413 8.91797V9.39991C5.88351 9.39991 5.86276 9.40022 5.84187 9.40084C5.39713 9.41384 4.90874 9.56241 4.41585 9.80334C4.23214 9.89309 4.06096 9.98941 3.90733 10.0856C3.85386 10.119 3.80655 10.15 3.766 10.1776C3.74237 10.1937 3.72669 10.2047 3.71955 10.2099Z" fill="#FFE017"/>
<path d="M3.94922 10.3778L4.07369 9.91139C5.7215 10.3295 6.99187 10.5378 7.87847 10.5378C8.76175 10.5378 10.0764 10.2921 11.8139 9.79883L11.9521 10.2616C10.1735 10.7665 8.81845 11.0197 7.87847 11.0197C6.94179 11.0197 5.63415 10.8053 3.94922 10.3778Z" fill="#FFE017"/>
<path d="M3.30664 6.05902L4.08969 5.28906L5.23617 6.39759L4.45312 7.16753L3.30664 6.05902Z" fill="#FFE017"/>
<path d="M9.80078 9.90611L10.3833 8.98242L12.202 10.0727L11.6196 10.9964L9.80078 9.90611Z" fill="#FFE017"/>
</g>
<path fill-rule="evenodd" clip-rule="evenodd" d="M2.89648 7.50061C2.89648 10.1955 5.13701 12.3801 7.90083 12.3801C10.6647 12.3801 12.9052 10.1955 12.9052 7.50061C12.9052 4.80573 10.6647 2.62109 7.90083 2.62109C5.13701 2.62109 2.89648 4.80573 2.89648 7.50061ZM12.2874 7.56086C12.2874 9.88974 10.3511 11.7777 7.96265 11.7777C5.57413 11.7777 3.63787 9.88974 3.63787 7.56086C3.63787 5.23194 5.57413 3.34399 7.96265 3.34399C10.3511 3.34399 12.2874 5.23194 12.2874 7.56086Z" fill="#F9E813"/>
<path d="M5.14453 4.49023V8.40317C5.41189 9.95198 6.3126 10.7264 7.84665 10.7264C9.38073 10.7264 10.2815 9.95198 10.5488 8.40317V4.49023H5.14453Z" fill="white"/>
<path d="M4.77344 4.12891H10.9191V8.43351L10.914 8.46326C10.6171 10.1831 9.56463 11.088 7.84625 11.088C6.1279 11.088 5.07545 10.1831 4.77858 8.46326L4.77344 8.43351V4.12891Z" fill="#C51918"/>
<path d="M6.17969 5.44336H9.51388V8.21893C9.51388 8.21893 9.26646 9.65224 7.84681 9.65224C6.42711 9.65224 6.17969 8.21893 6.17969 8.21893V5.44336Z" fill="#F7FCFF"/>
<path fill-rule="evenodd" clip-rule="evenodd" d="M5.36719 4.42969H5.83614V4.73089H5.36719V4.42969Z" fill="#F9E813"/>
<path fill-rule="evenodd" clip-rule="evenodd" d="M5.11914 4.55078H5.98409V4.70138H5.11914V4.55078Z" fill="#060101"/>
<path fill-rule="evenodd" clip-rule="evenodd" d="M5.11914 4.67188H5.58809V4.82248H5.11914V4.67188Z" fill="#F9E813"/>
<path fill-rule="evenodd" clip-rule="evenodd" d="M5.61328 4.67188H6.08223V4.82248H5.61328V4.67188Z" fill="#F9E813"/>
<path fill-rule="evenodd" clip-rule="evenodd" d="M5.11914 5.0332H5.43177V5.48501H5.11914V5.0332Z" fill="#F9E813"/>
<path fill-rule="evenodd" clip-rule="evenodd" d="M5.73828 5.0332H6.05092V5.48501H5.73828V5.0332Z" fill="#F9E813"/>
<path fill-rule="evenodd" clip-rule="evenodd" d="M5.49023 5.0332H5.64655V5.48501H5.49023V5.0332Z" fill="#F9E813"/>
<path fill-rule="evenodd" clip-rule="evenodd" d="M5.11914 4.91211H5.98409V5.06272H5.11914V4.91211Z" fill="#060101"/>
<path fill-rule="evenodd" clip-rule="evenodd" d="M5.11914 5.27344H5.98409V5.42404H5.11914V5.27344Z" fill="#060101"/>
<path fill-rule="evenodd" clip-rule="evenodd" d="M5.24219 4.79102H5.3985V4.94162H5.24219V4.79102Z" fill="#F9E813"/>
<path fill-rule="evenodd" clip-rule="evenodd" d="M5.73828 4.79102H5.8946V4.94162H5.73828V4.79102Z" fill="#F9E813"/>
<path fill-rule="evenodd" clip-rule="evenodd" d="M5.49023 4.67188H5.64655V4.97308H5.49023V4.67188Z" fill="#F9E813"/>
<path fill-rule="evenodd" clip-rule="evenodd" d="M7.71484 4.42969H8.1838V4.73089H7.71484V4.42969Z" fill="#F9E813"/>
<path fill-rule="evenodd" clip-rule="evenodd" d="M7.4668 4.55078H8.33179V4.70138H7.4668V4.55078Z" fill="#060101"/>
<path fill-rule="evenodd" clip-rule="evenodd" d="M7.4668 4.67188H7.93575V4.82248H7.4668V4.67188Z" fill="#F9E813"/>
<path fill-rule="evenodd" clip-rule="evenodd" d="M7.96094 4.67188H8.42989V4.82248H7.96094V4.67188Z" fill="#F9E813"/>
<path fill-rule="evenodd" clip-rule="evenodd" d="M7.4668 5.0332H7.77948V5.48501H7.4668V5.0332Z" fill="#F9E813"/>
<path fill-rule="evenodd" clip-rule="evenodd" d="M8.08594 5.0332H8.39862V5.48501H8.08594V5.0332Z" fill="#F9E813"/>
<path fill-rule="evenodd" clip-rule="evenodd" d="M7.83789 5.0332H7.99417V5.48501H7.83789V5.0332Z" fill="#F9E813"/>
<path fill-rule="evenodd" clip-rule="evenodd" d="M7.4668 4.91211H8.33179V5.06272H7.4668V4.91211Z" fill="#060101"/>
<path fill-rule="evenodd" clip-rule="evenodd" d="M7.4668 5.27344H8.33179V5.42404H7.4668V5.27344Z" fill="#060101"/>
<path fill-rule="evenodd" clip-rule="evenodd" d="M7.58984 4.79102H7.74612V4.94162H7.58984V4.79102Z" fill="#F9E813"/>
<path fill-rule="evenodd" clip-rule="evenodd" d="M8.08594 4.79102H8.24228V4.94162H8.08594V4.79102Z" fill="#F9E813"/>
<path fill-rule="evenodd" clip-rule="evenodd" d="M7.83789 4.67188H7.99417V4.97308H7.83789V4.67188Z" fill="#F9E813"/>
<path fill-rule="evenodd" clip-rule="evenodd" d="M9.9375 4.42969H10.4065V4.73089H9.9375V4.42969Z" fill="#F9E813"/>
<path fill-rule="evenodd" clip-rule="evenodd" d="M9.69141 4.55078H10.5563V4.70138H9.69141V4.55078Z" fill="#060101"/>
<path fill-rule="evenodd" clip-rule="evenodd" d="M9.69141 4.67188H10.1604V4.82248H9.69141V4.67188Z" fill="#F9E813"/>
<path fill-rule="evenodd" clip-rule="evenodd" d="M10.1855 4.67188H10.6545V4.82248H10.1855V4.67188Z" fill="#F9E813"/>
<path fill-rule="evenodd" clip-rule="evenodd" d="M9.69141 5.0332H10.004V5.48501H9.69141V5.0332Z" fill="#F9E813"/>
<path fill-rule="evenodd" clip-rule="evenodd" d="M10.3086 5.0332H10.6212V5.48501H10.3086V5.0332Z" fill="#F9E813"/>
<path fill-rule="evenodd" clip-rule="evenodd" d="M10.0605 5.0332H10.2169V5.48501H10.0605V5.0332Z" fill="#F9E813"/>
<path fill-rule="evenodd" clip-rule="evenodd" d="M9.69141 4.91211H10.5563V5.06272H9.69141V4.91211Z" fill="#060101"/>
<path fill-rule="evenodd" clip-rule="evenodd" d="M9.69141 5.27344H10.5563V5.42404H9.69141V5.27344Z" fill="#060101"/>
<path fill-rule="evenodd" clip-rule="evenodd" d="M9.81445 4.79102H9.97079V4.94162H9.81445V4.79102Z" fill="#F9E813"/>
<path fill-rule="evenodd" clip-rule="evenodd" d="M10.3086 4.79102H10.4649V4.94162H10.3086V4.79102Z" fill="#F9E813"/>
<path fill-rule="evenodd" clip-rule="evenodd" d="M10.0605 4.67188H10.2169V4.97308H10.0605V4.67188Z" fill="#F9E813"/>
<path fill-rule="evenodd" clip-rule="evenodd" d="M9.9375 6.59766H10.4065V6.89884H9.9375V6.59766Z" fill="#F9E813"/>
<path fill-rule="evenodd" clip-rule="evenodd" d="M9.69141 6.71875H10.5563V6.86931H9.69141V6.71875Z" fill="#060101"/>
<path fill-rule="evenodd" clip-rule="evenodd" d="M9.69141 6.83984H10.1604V6.99047H9.69141V6.83984Z" fill="#F9E813"/>
<path fill-rule="evenodd" clip-rule="evenodd" d="M10.1855 6.83984H10.6545V6.99047H10.1855V6.83984Z" fill="#F9E813"/>
<path fill-rule="evenodd" clip-rule="evenodd" d="M9.69141 7.20117H10.004V7.65298H9.69141V7.20117Z" fill="#F9E813"/>
<path fill-rule="evenodd" clip-rule="evenodd" d="M10.3086 7.20117H10.6212V7.65298H10.3086V7.20117Z" fill="#F9E813"/>
<path fill-rule="evenodd" clip-rule="evenodd" d="M10.0605 7.20117H10.2169V7.65298H10.0605V7.20117Z" fill="#F9E813"/>
<path fill-rule="evenodd" clip-rule="evenodd" d="M9.69141 7.08008H10.5563V7.2307H9.69141V7.08008Z" fill="#060101"/>
<path fill-rule="evenodd" clip-rule="evenodd" d="M9.69141 7.44336H10.5563V7.59392H9.69141V7.44336Z" fill="#060101"/>
<path fill-rule="evenodd" clip-rule="evenodd" d="M9.81445 6.95898H9.97079V7.10955H9.81445V6.95898Z" fill="#F9E813"/>
<path fill-rule="evenodd" clip-rule="evenodd" d="M10.3086 6.95898H10.4649V7.10955H10.3086V6.95898Z" fill="#F9E813"/>
<path fill-rule="evenodd" clip-rule="evenodd" d="M10.0605 6.83984H10.2169V7.14103H10.0605V6.83984Z" fill="#F9E813"/>
<path fill-rule="evenodd" clip-rule="evenodd" d="M5.36719 6.59766H5.83614V6.89884H5.36719V6.59766Z" fill="#F9E813"/>
<path fill-rule="evenodd" clip-rule="evenodd" d="M5.11914 6.71875H5.98409V6.86931H5.11914V6.71875Z" fill="#060101"/>
<path fill-rule="evenodd" clip-rule="evenodd" d="M5.11914 6.83984H5.58809V6.99047H5.11914V6.83984Z" fill="#F9E813"/>
<path fill-rule="evenodd" clip-rule="evenodd" d="M5.61328 6.83984H6.08223V6.99047H5.61328V6.83984Z" fill="#F9E813"/>
<path fill-rule="evenodd" clip-rule="evenodd" d="M5.11914 7.20117H5.43177V7.65298H5.11914V7.20117Z" fill="#F9E813"/>
<path fill-rule="evenodd" clip-rule="evenodd" d="M5.73828 7.20117H6.05092V7.65298H5.73828V7.20117Z" fill="#F9E813"/>
<path fill-rule="evenodd" clip-rule="evenodd" d="M5.49023 7.20117H5.64655V7.65298H5.49023V7.20117Z" fill="#F9E813"/>
<path fill-rule="evenodd" clip-rule="evenodd" d="M5.11914 7.08008H5.98409V7.2307H5.11914V7.08008Z" fill="#060101"/>
<path fill-rule="evenodd" clip-rule="evenodd" d="M5.11914 7.44336H5.98409V7.59392H5.11914V7.44336Z" fill="#060101"/>
<path fill-rule="evenodd" clip-rule="evenodd" d="M5.24219 6.95898H5.3985V7.10955H5.24219V6.95898Z" fill="#F9E813"/>
<path fill-rule="evenodd" clip-rule="evenodd" d="M5.73828 6.95898H5.8946V7.10955H5.73828V6.95898Z" fill="#F9E813"/>
<path fill-rule="evenodd" clip-rule="evenodd" d="M5.49023 6.83984H5.64655V7.14103H5.49023V6.83984Z" fill="#F9E813"/>
<path fill-rule="evenodd" clip-rule="evenodd" d="M5.66602 9.31878L5.96745 8.97266L6.20694 9.16628L5.90551 9.51241L5.66602 9.31878Z" fill="#F9E813"/>
<path fill-rule="evenodd" clip-rule="evenodd" d="M5.60352 9.57588L6.15949 8.9375L6.27923 9.03431L5.72325 9.67269L5.60352 9.57588Z" fill="#060101"/>
<path fill-rule="evenodd" clip-rule="evenodd" d="M5.69922 9.65472L6.00066 9.30859L6.1204 9.40541L5.81896 9.75147L5.69922 9.65472Z" fill="#F9E813"/>
<path fill-rule="evenodd" clip-rule="evenodd" d="M6.01758 9.28942L6.31901 8.94336L6.43875 9.04011L6.13732 9.38623L6.01758 9.28942Z" fill="#F9E813"/>
<path fill-rule="evenodd" clip-rule="evenodd" d="M5.98633 9.887L6.18729 9.65625L6.54652 9.94669L6.34557 10.1774L5.98633 9.887Z" fill="#F9E813"/>
<path fill-rule="evenodd" clip-rule="evenodd" d="M6.38477 9.42991L6.58572 9.19922L6.94497 9.48959L6.744 9.72034L6.38477 9.42991Z" fill="#F9E813"/>
<path fill-rule="evenodd" clip-rule="evenodd" d="M6.22656 9.61336L6.32704 9.49805L6.68627 9.78842L6.5858 9.9038L6.22656 9.61336Z" fill="#F9E813"/>
<path fill-rule="evenodd" clip-rule="evenodd" d="M5.89062 9.8083L6.4466 9.16992L6.56635 9.26673L6.01037 9.90511L5.89062 9.8083Z" fill="#060101"/>
<path fill-rule="evenodd" clip-rule="evenodd" d="M6.17969 10.0407L6.73567 9.40234L6.85543 9.49916L6.29943 10.1375L6.17969 10.0407Z" fill="#060101"/>
<path fill-rule="evenodd" clip-rule="evenodd" d="M5.875 9.64077L5.97548 9.52539L6.09523 9.6222L5.99475 9.73758L5.875 9.64077Z" fill="#F9E813"/>
<path fill-rule="evenodd" clip-rule="evenodd" d="M6.19336 9.27547L6.29383 9.16016L6.41358 9.25691L6.3131 9.37228L6.19336 9.27547Z" fill="#F9E813"/>
<path fill-rule="evenodd" clip-rule="evenodd" d="M5.9375 9.381L6.03798 9.26562L6.27746 9.45925L6.17699 9.57463L5.9375 9.381Z" fill="#F9E813"/>
<path fill-rule="evenodd" clip-rule="evenodd" d="M9.8938 9.04297L10.1952 9.38903L9.95575 9.58266L9.6543 9.23653L9.8938 9.04297Z" fill="#F9E813"/>
<path fill-rule="evenodd" clip-rule="evenodd" d="M9.63733 8.9375L10.1933 9.57588L10.0736 9.67269L9.51758 9.03431L9.63733 8.9375Z" fill="#060101"/>
<path fill-rule="evenodd" clip-rule="evenodd" d="M9.54358 9.01562L9.84504 9.36175L9.72528 9.45856L9.42383 9.11244L9.54358 9.01562Z" fill="#F9E813"/>
<path fill-rule="evenodd" clip-rule="evenodd" d="M9.86194 9.38086L10.1634 9.72692L10.0436 9.82373L9.74219 9.47761L9.86194 9.38086Z" fill="#F9E813"/>
<path fill-rule="evenodd" clip-rule="evenodd" d="M9.25568 9.24805L9.45665 9.4788L9.09739 9.76923L8.89648 9.53848L9.25568 9.24805Z" fill="#F9E813"/>
<path fill-rule="evenodd" clip-rule="evenodd" d="M9.65223 9.70312L9.8532 9.93387L9.49394 10.2243L9.29297 9.99356L9.65223 9.70312Z" fill="#F9E813"/>
<path fill-rule="evenodd" clip-rule="evenodd" d="M9.49402 9.52148L9.59451 9.63686L9.23525 9.92723L9.13477 9.81192L9.49402 9.52148Z" fill="#F9E813"/>
<path fill-rule="evenodd" clip-rule="evenodd" d="M9.35217 9.16992L9.90819 9.8083L9.78843 9.90511L9.23242 9.26673L9.35217 9.16992Z" fill="#060101"/>
<path fill-rule="evenodd" clip-rule="evenodd" d="M9.06507 9.40234L9.62108 10.0407L9.50132 10.1375L8.94531 9.49916L9.06507 9.40234Z" fill="#060101"/>
<path fill-rule="evenodd" clip-rule="evenodd" d="M9.52594 9.18555L9.62642 9.30092L9.50667 9.39773L9.40625 9.28236L9.52594 9.18555Z" fill="#F9E813"/>
<path fill-rule="evenodd" clip-rule="evenodd" d="M9.84436 9.54883L9.94485 9.6642L9.82509 9.76102L9.72461 9.64564L9.84436 9.54883Z" fill="#F9E813"/>
<path fill-rule="evenodd" clip-rule="evenodd" d="M9.78247 9.28906L9.88296 9.40444L9.64345 9.598L9.54297 9.48262L9.78247 9.28906Z" fill="#F9E813"/>
<path fill-rule="evenodd" clip-rule="evenodd" d="M8.32336 5.75586H7.4668V6.35678C7.4668 6.35678 7.53037 6.66709 7.89508 6.66709C8.25978 6.66709 8.32336 6.35678 8.32336 6.35678V5.75586ZM7.83754 5.99683C7.83754 6.06337 7.7822 6.11731 7.71396 6.11731C7.64571 6.11731 7.59038 6.06337 7.59038 5.99683C7.59038 5.93028 7.64571 5.87635 7.71396 5.87635C7.7822 5.87635 7.83754 5.93028 7.83754 5.99683ZM7.71396 6.59922C7.7822 6.59922 7.83754 6.54528 7.83754 6.47878C7.83754 6.41222 7.7822 6.35828 7.71396 6.35828C7.64571 6.35828 7.59038 6.41222 7.59038 6.47878C7.59038 6.54528 7.64571 6.59922 7.71396 6.59922ZM8.20821 6.47878C8.20821 6.54528 8.15288 6.59922 8.08463 6.59922C8.01639 6.59922 7.96105 6.54528 7.96105 6.47878C7.96105 6.41222 8.01639 6.35828 8.08463 6.35828C8.15288 6.35828 8.20821 6.41222 8.20821 6.47878ZM7.89929 6.35828C7.96754 6.35828 8.02287 6.30434 8.02287 6.23779C8.02287 6.17125 7.96754 6.11731 7.89929 6.11731C7.83105 6.11731 7.77571 6.17125 7.77571 6.23779C7.77571 6.30434 7.83105 6.35828 7.89929 6.35828ZM8.20821 5.99683C8.20821 6.06337 8.15288 6.11731 8.08463 6.11731C8.01639 6.11731 7.96105 6.06337 7.96105 5.99683C7.96105 5.93028 8.01639 5.87635 8.08463 5.87635C8.15288 5.87635 8.20821 5.93028 8.20821 5.99683Z" fill="#013399"/>
<path fill-rule="evenodd" clip-rule="evenodd" d="M8.32336 7.08008H7.4668V7.68102C7.4668 7.68102 7.53037 7.99133 7.89508 7.99133C8.25978 7.99133 8.32336 7.68102 8.32336 7.68102V7.08008ZM7.83754 7.32102C7.83754 7.38758 7.7822 7.44152 7.71396 7.44152C7.64571 7.44152 7.59038 7.38758 7.59038 7.32102C7.59038 7.25452 7.64571 7.20058 7.71396 7.20058C7.7822 7.20058 7.83754 7.25452 7.83754 7.32102ZM7.71396 7.92345C7.7822 7.92345 7.83754 7.86952 7.83754 7.80295C7.83754 7.73645 7.7822 7.68252 7.71396 7.68252C7.64571 7.68252 7.59038 7.73645 7.59038 7.80295C7.59038 7.86952 7.64571 7.92345 7.71396 7.92345ZM8.20821 7.80295C8.20821 7.86952 8.15288 7.92345 8.08463 7.92345C8.01639 7.92345 7.96105 7.86952 7.96105 7.80295C7.96105 7.73645 8.01639 7.68252 8.08463 7.68252C8.15288 7.68252 8.20821 7.73645 8.20821 7.80295ZM7.89929 7.68252C7.96754 7.68252 8.02287 7.62852 8.02287 7.56202C8.02287 7.49545 7.96754 7.44152 7.89929 7.44152C7.83105 7.44152 7.77571 7.49545 7.77571 7.56202C7.77571 7.62852 7.83105 7.68252 7.89929 7.68252ZM8.20821 7.32102C8.20821 7.38758 8.15288 7.44152 8.08463 7.44152C8.01639 7.44152 7.96105 7.38758 7.96105 7.32102C7.96105 7.25452 8.01639 7.20058 8.08463 7.20058C8.15288 7.20058 8.20821 7.25452 8.20821 7.32102Z" fill="#013399"/>
<path fill-rule="evenodd" clip-rule="evenodd" d="M9.43657 7.08008H8.58008V7.68102C8.58008 7.68102 8.64365 7.99133 9.00836 7.99133C9.373 7.99133 9.43657 7.68102 9.43657 7.68102V7.08008ZM8.95075 7.32102C8.95075 7.38758 8.89542 7.44152 8.82717 7.44152C8.75893 7.44152 8.70366 7.38758 8.70366 7.32102C8.70366 7.25452 8.75893 7.20058 8.82717 7.20058C8.89542 7.20058 8.95075 7.25452 8.95075 7.32102ZM8.82717 7.92345C8.89542 7.92345 8.95075 7.86952 8.95075 7.80295C8.95075 7.73645 8.89542 7.68252 8.82717 7.68252C8.75893 7.68252 8.70366 7.73645 8.70366 7.80295C8.70366 7.86952 8.75893 7.92345 8.82717 7.92345ZM9.32143 7.80295C9.32143 7.86952 9.26616 7.92345 9.19791 7.92345C9.12967 7.92345 9.07433 7.86952 9.07433 7.80295C9.07433 7.73645 9.12967 7.68252 9.19791 7.68252C9.26616 7.68252 9.32143 7.73645 9.32143 7.80295ZM9.01257 7.68252C9.08082 7.68252 9.13609 7.62852 9.13609 7.56202C9.13609 7.49545 9.08082 7.44152 9.01257 7.44152C8.94433 7.44152 8.889 7.49545 8.889 7.56202C8.889 7.62852 8.94433 7.68252 9.01257 7.68252ZM9.32143 7.32102C9.32143 7.38758 9.26616 7.44152 9.19791 7.44152C9.12967 7.44152 9.07433 7.38758 9.07433 7.32102C9.07433 7.25452 9.12967 7.20058 9.19791 7.20058C9.26616 7.20058 9.32143 7.25452 9.32143 7.32102Z" fill="#013399"/>
<path fill-rule="evenodd" clip-rule="evenodd" d="M7.21002 7.08008H6.35352V7.68102C6.35352 7.68102 6.41708 7.99133 6.78174 7.99133C7.14645 7.99133 7.21002 7.68102 7.21002 7.68102V7.08008ZM6.7242 7.32102C6.7242 7.38758 6.66887 7.44152 6.60064 7.44152C6.5324 7.44152 6.47708 7.38758 6.47708 7.32102C6.47708 7.25452 6.5324 7.20058 6.60064 7.20058C6.66887 7.20058 6.7242 7.25452 6.7242 7.32102ZM6.60064 7.92345C6.66887 7.92345 6.7242 7.86952 6.7242 7.80295C6.7242 7.73645 6.66887 7.68252 6.60064 7.68252C6.5324 7.68252 6.47708 7.73645 6.47708 7.80295C6.47708 7.86952 6.5324 7.92345 6.60064 7.92345ZM7.09488 7.80295C7.09488 7.86952 7.03961 7.92345 6.97136 7.92345C6.90312 7.92345 6.84778 7.86952 6.84778 7.80295C6.84778 7.73645 6.90312 7.68252 6.97136 7.68252C7.03961 7.68252 7.09488 7.73645 7.09488 7.80295ZM6.78596 7.68252C6.85421 7.68252 6.90954 7.62852 6.90954 7.56202C6.90954 7.49545 6.85421 7.44152 6.78596 7.44152C6.71778 7.44152 6.66243 7.49545 6.66243 7.56202C6.66243 7.62852 6.71778 7.68252 6.78596 7.68252ZM7.09488 7.32102C7.09488 7.38758 7.03961 7.44152 6.97136 7.44152C6.90312 7.44152 6.84778 7.38758 6.84778 7.32102C6.84778 7.25452 6.90312 7.20058 6.97136 7.20058C7.03961 7.20058 7.09488 7.25452 7.09488 7.32102Z" fill="#013399"/>
<path fill-rule="evenodd" clip-rule="evenodd" d="M8.32336 8.40625H7.4668V9.00719C7.4668 9.00719 7.53037 9.3175 7.89508 9.3175C8.25978 9.3175 8.32336 9.00719 8.32336 9.00719V8.40625ZM7.83754 8.64719C7.83754 8.71375 7.7822 8.76769 7.71396 8.76769C7.64571 8.76769 7.59038 8.71375 7.59038 8.64719C7.59038 8.58069 7.64571 8.52675 7.71396 8.52675C7.7822 8.52675 7.83754 8.58069 7.83754 8.64719ZM7.71396 9.24963C7.7822 9.24963 7.83754 9.19569 7.83754 9.12913C7.83754 9.06263 7.7822 9.00869 7.71396 9.00869C7.64571 9.00869 7.59038 9.06263 7.59038 9.12913C7.59038 9.19569 7.64571 9.24963 7.71396 9.24963ZM8.20821 9.12913C8.20821 9.19569 8.15288 9.24963 8.08463 9.24963C8.01639 9.24963 7.96105 9.19569 7.96105 9.12913C7.96105 9.06263 8.01639 9.00869 8.08463 9.00869C8.15288 9.00869 8.20821 9.06263 8.20821 9.12913ZM7.89929 9.00869C7.96754 9.00869 8.02287 8.95469 8.02287 8.88819C8.02287 8.82163 7.96754 8.76769 7.89929 8.76769C7.83105 8.76769 7.77571 8.82163 7.77571 8.88819C7.77571 8.95469 7.83105 9.00869 7.89929 9.00869ZM8.20821 8.64719C8.20821 8.71375 8.15288 8.76769 8.08463 8.76769C8.01639 8.76769 7.96105 8.71375 7.96105 8.64719C7.96105 8.58069 8.01639 8.52675 8.08463 8.52675C8.15288 8.52675 8.20821 8.58069 8.20821 8.64719Z" fill="#013399"/>
</g>
</svg>
