<svg width="20" height="20" viewBox="0 0 20 20" fill="none" xmlns="http://www.w3.org/2000/svg">
	<path d="M13.9577 6.45964H6.04102C5.69935 6.45964 5.41602 6.1763 5.41602 5.83464V4.16797C5.41602 2.03464 6.40768 1.04297 8.54102 1.04297H11.4577C13.591 1.04297 14.5827 2.03464 14.5827 4.16797V5.83464C14.5827 6.1763 14.2993 6.45964 13.9577 6.45964ZM6.66602 5.20964H13.3327V4.16797C13.3327 2.7513 12.8743 2.29297 11.4577 2.29297H8.54102C7.12435 2.29297 6.66602 2.7513 6.66602 4.16797V5.20964Z" fill="white" />
	<path d="M10.8327 18.9583H9.16602C7.14935 18.9583 6.04102 17.85 6.04102 15.8333V12.5C6.04102 12.1583 6.32435 11.875 6.66602 11.875H13.3327C13.6743 11.875 13.9577 12.1583 13.9577 12.5V15.8333C13.9577 17.85 12.8493 18.9583 10.8327 18.9583ZM7.29102 13.125V15.8333C7.29102 17.15 7.84935 17.7083 9.16602 17.7083H10.8327C12.1493 17.7083 12.7077 17.15 12.7077 15.8333V13.125H7.29102Z" fill="white" />
	<path d="M15 15.6237H13.3333C12.9917 15.6237 12.7083 15.3404 12.7083 14.9987V13.1237H7.29167V14.9987C7.29167 15.3404 7.00833 15.6237 6.66667 15.6237H5C2.98333 15.6237 1.875 14.5154 1.875 12.4987V8.33203C1.875 6.31536 2.98333 5.20703 5 5.20703H15C17.0167 5.20703 18.125 6.31536 18.125 8.33203V12.4987C18.125 14.5154 17.0167 15.6237 15 15.6237ZM13.9583 14.3737H15C16.3167 14.3737 16.875 13.8154 16.875 12.4987V8.33203C16.875 7.01536 16.3167 6.45703 15 6.45703H5C3.68333 6.45703 3.125 7.01536 3.125 8.33203V12.4987C3.125 13.8154 3.68333 14.3737 5 14.3737H6.04167V12.4987C6.04167 12.157 6.325 11.8737 6.66667 11.8737H13.3333C13.675 11.8737 13.9583 12.157 13.9583 12.4987V14.3737Z" fill="white" />
	<path d="M14.1673 13.125H5.83398C5.49232 13.125 5.20898 12.8417 5.20898 12.5C5.20898 12.1583 5.49232 11.875 5.83398 11.875H14.1673C14.509 11.875 14.7923 12.1583 14.7923 12.5C14.7923 12.8417 14.509 13.125 14.1673 13.125Z" fill="white" />
	<path d="M8.33398 9.79297H5.83398C5.49232 9.79297 5.20898 9.50964 5.20898 9.16797C5.20898 8.8263 5.49232 8.54297 5.83398 8.54297H8.33398C8.67565 8.54297 8.95898 8.8263 8.95898 9.16797C8.95898 9.50964 8.67565 9.79297 8.33398 9.79297Z" fill="white" />
</svg>
