<svg width="24" height="25" viewBox="0 0 24 25" fill="none" xmlns="http://www.w3.org/2000/svg">
<path d="M12 22.7734C11.22 22.7734 10.46 22.3734 9.94 21.6734L8.93 20.3234C8.72 20.0434 8.44 19.8834 8.14 19.8634C7.84 19.8534 7.54 19.9834 7.3 20.2334L6.73 19.7234L7.28 20.2334C5.84 21.7734 4.73 21.6534 4.2 21.4434C3.66 21.2334 2.75 20.5434 2.75 18.3234V7.06344C2.75 2.62344 4.03 1.27344 8.22 1.27344H15.78C19.97 1.27344 21.25 2.62344 21.25 7.06344V18.3234C21.25 20.5334 20.34 21.2234 19.8 21.4434C19.27 21.6534 18.17 21.7734 16.72 20.2334C16.48 19.9734 16.19 19.8334 15.87 19.8634C15.57 19.8834 15.28 20.0434 15.07 20.3234L14.06 21.6734C13.54 22.3734 12.78 22.7734 12 22.7734ZM8.08 18.3534C8.12 18.3534 8.17 18.3534 8.21 18.3534C8.95 18.3934 9.65 18.7834 10.12 19.4134L11.13 20.7634C11.62 21.4134 12.37 21.4134 12.86 20.7634L13.87 19.4134C14.35 18.7834 15.04 18.3934 15.79 18.3534C16.53 18.3134 17.27 18.6234 17.81 19.2034C18.57 20.0134 19.07 20.1134 19.24 20.0434C19.48 19.9434 19.74 19.3634 19.74 18.3234V7.06344C19.74 3.45344 19.11 2.77344 15.77 2.77344H8.22C4.88 2.77344 4.25 3.45344 4.25 7.06344V18.3234C4.25 19.3734 4.51 19.9534 4.75 20.0434C4.92 20.1134 5.42 20.0134 6.18 19.2034C6.72 18.6534 7.39 18.3534 8.08 18.3534Z" fill="white"/>
<path d="M16 7.77344H8C7.59 7.77344 7.25 7.43344 7.25 7.02344C7.25 6.61344 7.59 6.27344 8 6.27344H16C16.41 6.27344 16.75 6.61344 16.75 7.02344C16.75 7.43344 16.41 7.77344 16 7.77344Z" fill="white"/>
<path d="M14.999 11.7734H8.99902C8.58902 11.7734 8.24902 11.4334 8.24902 11.0234C8.24902 10.6134 8.58902 10.2734 8.99902 10.2734H14.999C15.409 10.2734 15.749 10.6134 15.749 11.0234C15.749 11.4334 15.409 11.7734 14.999 11.7734Z" fill="white"/>
</svg>
