<svg width="21" height="15" viewBox="0 0 21 15" fill="none" xmlns="http://www.w3.org/2000/svg">
<mask id="mask0_3_22310" style="mask-type:luminance" maskUnits="userSpaceOnUse" x="0" y="0" width="21" height="15">
<path d="M0.177734 0H20.9365V15H0.177734V0Z" fill="white"/>
</mask>
<g mask="url(#mask0_3_22310)">
<path fill-rule="evenodd" clip-rule="evenodd" d="M0.177734 0V15H20.9365V0H0.177734Z" fill="#2E42A5"/>
<mask id="mask1_3_22310" style="mask-type:luminance" maskUnits="userSpaceOnUse" x="0" y="0" width="21" height="15">
<path fill-rule="evenodd" clip-rule="evenodd" d="M0.177734 0V15H20.9365V0H0.177734Z" fill="white"/>
</mask>
<g mask="url(#mask1_3_22310)">
<mask id="mask2_3_22310" style="mask-type:luminance" maskUnits="userSpaceOnUse" x="0" y="0" width="21" height="15">
<path d="M0.177734 0H20.9365V15H0.177734V0Z" fill="white"/>
</mask>
<g mask="url(#mask2_3_22310)">
<path d="M-2.13477 13.9295L2.43327 15.7907L21.0392 2.02474L23.4487 -0.741181L18.5639 -1.36328L10.975 4.56889L4.86665 8.5658L-2.13477 13.9295Z" fill="white"/>
<path d="M-1.50977 15.2337L0.817435 16.3138L22.5831 -0.998047H19.3154L-1.50977 15.2337Z" fill="#F50100"/>
<path d="M23.2456 13.9295L18.6775 15.7907L0.0716443 2.02474L-2.33789 -0.741181L2.54697 -1.36328L10.1358 4.56889L16.2441 8.5658L23.2456 13.9295Z" fill="white"/>
<path d="M23.0911 14.8647L20.7639 15.9448L11.4959 8.53274L8.74805 7.70455L-2.56836 -0.732422H0.699302L12.0094 7.5043L15.0136 8.49737L23.0911 14.8647Z" fill="#F50100"/>
<path fill-rule="evenodd" clip-rule="evenodd" d="M13.0061 -1.24805H8.10479V5.00195H-1.10352V10.002H8.10479V16.252H13.0061V10.002H22.2502V5.00195H13.0061V-1.24805Z" fill="#F50100"/>
<mask id="mask3_3_22310" style="mask-type:luminance" maskUnits="userSpaceOnUse" x="-2" y="-2" width="25" height="19">
<path fill-rule="evenodd" clip-rule="evenodd" d="M13.0081 -1.24805H8.10674V5.00195H-1.10156V10.002H8.10674V16.252H13.0081V10.002H22.2521V5.00195H13.0081V-1.24805Z" fill="white"/>
</mask>
<g mask="url(#mask3_3_22310)">
<path d="M8.10534 -1.24805V-2.49805H6.80791V-1.24805H8.10534ZM13.0067 -1.24805H14.3041V-2.49805H13.0067V-1.24805ZM8.10534 5.00195V6.25195H9.40276V5.00195H8.10534ZM-1.10297 5.00195V3.75195H-2.40039V5.00195H-1.10297ZM-1.10297 10.002H-2.40039V11.252H-1.10297V10.002ZM8.10534 10.002H9.40276V8.75195H8.10534V10.002ZM8.10534 16.252H6.80791V17.502H8.10534V16.252ZM13.0067 16.252V17.502H14.3041V16.252H13.0067ZM13.0067 10.002V8.75195H11.7093V10.002H13.0067ZM22.2507 10.002V11.252H23.5481V10.002H22.2507ZM22.2507 5.00195H23.5481V3.75195H22.2507V5.00195ZM13.0067 5.00195H11.7093V6.25195H13.0067V5.00195ZM8.10534 0.00195312H13.0067V-2.49805H8.10534V0.00195312ZM9.40276 5.00195V-1.24805H6.80791V5.00195H9.40276ZM-1.10297 6.25195H8.10534V3.75195H-1.10297V6.25195ZM0.194458 10.002V5.00195H-2.40039V10.002H0.194458ZM8.10534 8.75195H-1.10297V11.252H8.10534V8.75195ZM9.40276 16.252V10.002H6.80791V16.252H9.40276ZM13.0067 15.002H8.10534V17.502H13.0067V15.002ZM11.7093 10.002V16.252H14.3041V10.002H11.7093ZM22.2507 8.75195H13.0067V11.252H22.2507V8.75195ZM20.9533 5.00195V10.002H23.5481V5.00195H20.9533ZM13.0067 6.25195H22.2507V3.75195H13.0067V6.25195ZM11.7093 -1.24805V5.00195H14.3041V-1.24805H11.7093Z" fill="white"/>
</g>
</g>
</g>
</g>
</svg>
