<svg width="24" height="25" viewBox="0 0 24 25" fill="none" xmlns="http://www.w3.org/2000/svg">
	<path d="M20.4201 12.2428C20.0101 12.2428 19.6701 11.9028 19.6701 11.4928V8.17285C19.6701 6.93285 18.6601 5.92285 17.4201 5.92285H3.58008C3.17008 5.92285 2.83008 5.58285 2.83008 5.17285C2.83008 4.76285 3.17008 4.42285 3.58008 4.42285H17.4201C19.4901 4.42285 21.1701 6.10285 21.1701 8.17285V11.4928C21.1701 11.9128 20.8301 12.2428 20.4201 12.2428Z" fill="white" />
	<path d="M6.74008 9.09293C6.55008 9.09293 6.36008 9.0229 6.21008 8.8729L3.05008 5.71292C2.91008 5.57292 2.83008 5.38289 2.83008 5.18289C2.83008 4.98289 2.91008 4.79292 3.05008 4.65292L6.21008 1.49289C6.50008 1.20289 6.98008 1.20289 7.27008 1.49289C7.56008 1.78289 7.56008 2.26295 7.27008 2.55295L4.64011 5.18289L7.27008 7.8129C7.56008 8.1029 7.56008 8.5829 7.27008 8.8729C7.12008 9.0129 6.93008 9.09293 6.74008 9.09293Z" fill="white" />
	<path d="M20.4201 19.613H6.58008C4.51008 19.613 2.83008 17.933 2.83008 15.863V12.543C2.83008 12.133 3.17008 11.793 3.58008 11.793C3.99008 11.793 4.33008 12.133 4.33008 12.543V15.863C4.33008 17.103 5.34008 18.113 6.58008 18.113H20.4201C20.8301 18.113 21.1701 18.453 21.1701 18.863C21.1701 19.273 20.8301 19.613 20.4201 19.613Z" fill="white" />
	<path d="M17.2592 22.7726C17.0692 22.7726 16.8792 22.7026 16.7292 22.5526C16.4392 22.2626 16.4392 21.7825 16.7292 21.4925L19.3592 18.8626L16.7292 16.2326C16.4392 15.9426 16.4392 15.4626 16.7292 15.1726C17.0192 14.8826 17.4992 14.8826 17.7892 15.1726L20.9492 18.3326C21.0892 18.4726 21.1692 18.6626 21.1692 18.8626C21.1692 19.0626 21.0892 19.2525 20.9492 19.3925L17.7892 22.5526C17.6492 22.7026 17.4592 22.7726 17.2592 22.7726Z" fill="white" />
</svg>
