<svg width="22" height="22" viewBox="0 0 22 22" fill="none" xmlns="http://www.w3.org/2000/svg">
	<path d="M9.53255 2.19922C5.49115 2.19922 2.19922 5.49115 2.19922 9.53255C2.19922 13.574 5.49115 16.8659 9.53255 16.8659C11.29 16.8659 12.904 16.2418 14.1689 15.2059L18.5474 19.5844C18.615 19.6548 18.6959 19.7109 18.7855 19.7497C18.875 19.7884 18.9714 19.8088 19.069 19.8098C19.1665 19.8108 19.2633 19.7923 19.3537 19.7554C19.444 19.7186 19.526 19.664 19.595 19.595C19.664 19.526 19.7186 19.444 19.7554 19.3537C19.7923 19.2633 19.8108 19.1665 19.8098 19.069C19.8088 18.9714 19.7884 18.875 19.7497 18.7855C19.7109 18.6959 19.6548 18.615 19.5844 18.5474L15.2059 14.1689C16.2418 12.904 16.8659 11.29 16.8659 9.53255C16.8659 5.49115 13.574 2.19922 9.53255 2.19922ZM9.53255 3.66589C12.7813 3.66589 15.3992 6.2838 15.3992 9.53255C15.3992 12.7813 12.7813 15.3992 9.53255 15.3992C6.2838 15.3992 3.66589 12.7813 3.66589 9.53255C3.66589 6.2838 6.2838 3.66589 9.53255 3.66589Z" fill="#757677" />
</svg>
