<svg width="25" height="24" viewBox="0 0 25 24" fill="none" xmlns="http://www.w3.org/2000/svg">
<path d="M12.5038 22.7508C12.2638 22.7508 12.0238 22.7208 11.7938 22.6508C6.60376 21.2208 2.84375 16.3708 2.84375 11.1108V6.72076C2.84375 5.60076 3.65376 4.39081 4.69376 3.96081L10.2638 1.68078C11.7138 1.09078 13.3037 1.09078 14.7437 1.68078L20.3138 3.96081C21.3538 4.39081 22.1638 5.60076 22.1638 6.72076V11.1108C22.1638 16.3608 18.3937 21.2108 13.2137 22.6508C12.9837 22.7208 12.7438 22.7508 12.5038 22.7508ZM12.5038 2.75079C11.9338 2.75079 11.3737 2.86081 10.8337 3.08081L5.26376 5.36077C4.78376 5.56077 4.34375 6.21077 4.34375 6.73077V11.1208C4.34375 15.7108 7.64376 19.9508 12.1938 21.2108C12.3938 21.2708 12.6138 21.2708 12.8138 21.2108C17.3638 19.9508 20.6638 15.7108 20.6638 11.1208V6.73077C20.6638 6.21077 20.2237 5.56077 19.7437 5.36077L14.1738 3.08081C13.6338 2.86081 13.0738 2.75079 12.5038 2.75079Z" fill="#0A3D8D"/>
<path d="M12.5 13.25C10.98 13.25 9.75 12.02 9.75 10.5C9.75 8.98 10.98 7.75 12.5 7.75C14.02 7.75 15.25 8.98 15.25 10.5C15.25 12.02 14.02 13.25 12.5 13.25ZM12.5 9.25C11.81 9.25 11.25 9.81 11.25 10.5C11.25 11.19 11.81 11.75 12.5 11.75C13.19 11.75 13.75 11.19 13.75 10.5C13.75 9.81 13.19 9.25 12.5 9.25Z" fill="#0A3D8D"/>
<path d="M12.5 16.25C12.09 16.25 11.75 15.91 11.75 15.5V12.5C11.75 12.09 12.09 11.75 12.5 11.75C12.91 11.75 13.25 12.09 13.25 12.5V15.5C13.25 15.91 12.91 16.25 12.5 16.25Z" fill="#0A3D8D"/>
</svg>
