<svg width="60" height="61" viewBox="0 0 60 61" fill="none" xmlns="http://www.w3.org/2000/svg">
<path d="M47.5 7.375C46.4645 7.375 45.625 6.53553 45.625 5.5C45.625 4.46447 46.4645 3.625 47.5 3.625H55C55.7584 3.625 56.4421 4.08183 56.7323 4.78247C57.0225 5.48311 56.8621 6.28958 56.3258 6.82583L52.0266 11.125H55C56.0355 11.125 56.875 11.9645 56.875 13C56.875 14.0355 56.0355 14.875 55 14.875H47.5C46.7416 14.875 46.0579 14.4182 45.7677 13.7175C45.4775 13.0169 45.6379 12.2104 46.1742 11.6742L50.4734 7.375H47.5Z" fill="#777EA0"/>
<path d="M37.5 14.875C36.4645 14.875 35.625 14.0355 35.625 13C35.625 11.9645 36.4645 11.125 37.5 11.125H42.5C43.2584 11.125 43.9421 11.5818 44.2323 12.2825C44.5225 12.9831 44.3621 13.7896 43.8258 14.3258L42.0266 16.125H42.5C43.5355 16.125 44.375 16.9645 44.375 18C44.375 19.0355 43.5355 19.875 42.5 19.875H37.5C36.7416 19.875 36.0579 19.4182 35.7677 18.7175C35.4775 18.0169 35.6379 17.2104 36.1742 16.6742L37.9734 14.875H37.5Z" fill="#777EA0"/>
<path fill-rule="evenodd" clip-rule="evenodd" d="M43.3211 9.34082C39.4647 6.90783 34.8967 5.5 30 5.5C16.1929 5.5 5 16.6929 5 30.5C5 44.3071 16.1929 55.5 30 55.5C43.8071 55.5 55 44.3071 55 30.5C55 25.4205 53.4851 20.6947 50.8824 16.75H47.5C46.9292 16.75 46.3797 16.6206 45.8852 16.3846C46.119 16.8738 46.25 17.4216 46.25 18C46.25 20.0711 44.5711 21.75 42.5 21.75H37.5C35.9833 21.75 34.6159 20.8363 34.0355 19.4351C33.4818 18.0984 33.7482 16.5691 34.7049 15.5C34.1111 14.8366 33.75 13.9604 33.75 13C33.75 10.9289 35.4289 9.25 37.5 9.25H42.5C42.7801 9.25 43.0552 9.28117 43.3211 9.34082ZM33.6742 26.8258C36.4775 29.6291 41.0225 29.6291 43.8258 26.8258C44.5581 26.0936 44.5581 24.9064 43.8258 24.1742C43.0936 23.4419 41.9064 23.4419 41.1742 24.1742C39.8353 25.513 37.6647 25.513 36.3258 24.1742C35.5936 23.4419 34.4064 23.4419 33.6742 24.1742C32.9419 24.9064 32.9419 26.0936 33.6742 26.8258ZM26.3258 26.8258C23.5225 29.6291 18.9775 29.6291 16.1742 26.8258C15.4419 26.0936 15.4419 24.9064 16.1742 24.1742C16.9064 23.4419 18.0936 23.4419 18.8258 24.1742C20.1647 25.513 22.3353 25.513 23.6742 24.1742C24.4064 23.4419 25.5936 23.4419 26.3258 24.1742C27.0581 24.9064 27.0581 26.0936 26.3258 26.8258ZM33.75 41.75C33.75 43.8211 32.0711 45.5 30 45.5C27.9289 45.5 26.25 43.8211 26.25 41.75C26.25 39.6789 27.9289 38 30 38C32.0711 38 33.75 39.6789 33.75 41.75Z" fill="#777EA0"/>
</svg>
