<svg width="38" height="38" viewBox="0 0 38 38" fill="none" xmlns="http://www.w3.org/2000/svg">
<path d="M24.6601 29.6703C24.1301 29.6703 23.4501 29.5003 22.6001 29.0003L19.6101 27.2303C19.3001 27.0503 18.7001 27.0503 18.4001 27.2303L15.4001 29.0003C13.6301 30.0503 12.5901 29.6303 12.1201 29.2903C11.6601 28.9503 10.9401 28.0803 11.4101 26.0803L12.1201 23.0103C12.2001 22.6903 12.0401 22.1403 11.8001 21.9003L9.32012 19.4203C8.08012 18.1803 8.18012 17.1203 8.35012 16.6003C8.52012 16.0803 9.06012 15.1603 10.7801 14.8703L13.9701 14.3403C14.2701 14.2903 14.7001 13.9703 14.8301 13.7003L16.6001 10.1703C17.4001 8.56031 18.4501 8.32031 19.0001 8.32031C19.5501 8.32031 20.6001 8.56031 21.4001 10.1703L23.1601 13.6903C23.3001 13.9603 23.7301 14.2803 24.0301 14.3303L27.2201 14.8603C28.9501 15.1503 29.4901 16.0703 29.6501 16.5903C29.8101 17.1103 29.9101 18.1703 28.6801 19.4103L26.2001 21.9003C25.9601 22.1403 25.8101 22.6803 25.8801 23.0103L26.5901 26.0803C27.0501 28.0803 26.3401 28.9503 25.8801 29.2903C25.6301 29.4703 25.2301 29.6703 24.6601 29.6703ZM19.0001 25.5903C19.4901 25.5903 19.9801 25.7103 20.3701 25.9403L23.3601 27.7103C24.2301 28.2303 24.7801 28.2303 24.9901 28.0803C25.2001 27.9303 25.3501 27.4003 25.1301 26.4203L24.4201 23.3503C24.2301 22.5203 24.5401 21.4503 25.1401 20.8403L27.6201 18.3603C28.1101 17.8703 28.3301 17.3903 28.2301 17.0603C28.1201 16.7303 27.6601 16.4603 26.9801 16.3503L23.7901 15.8203C23.0201 15.6903 22.1801 15.0703 21.8301 14.3703L20.0701 10.8503C19.7501 10.2103 19.3501 9.83031 19.0001 9.83031C18.6501 9.83031 18.2501 10.2103 17.9401 10.8503L16.1701 14.3703C15.8201 15.0703 14.9801 15.6903 14.2101 15.8203L11.0301 16.3503C10.3501 16.4603 9.89012 16.7303 9.78012 17.0603C9.67012 17.3903 9.90012 17.8803 10.3901 18.3603L12.8701 20.8403C13.4701 21.4403 13.7801 22.5203 13.5901 23.3503L12.8801 26.4203C12.6501 27.4103 12.8101 27.9303 13.0201 28.0803C13.2301 28.2303 13.7701 28.2203 14.6501 27.7103L17.6401 25.9403C18.0201 25.7103 18.5101 25.5903 19.0001 25.5903Z" fill="#0C1438"/>
</svg>
