<svg width="20" height="20" viewBox="0 0 20 20" fill="none" xmlns="http://www.w3.org/2000/svg">
<path d="M12.5013 18.9584H7.5013C2.9763 18.9584 1.04297 17.0251 1.04297 12.5001V7.50008C1.04297 2.97508 2.9763 1.04175 7.5013 1.04175H12.5013C17.0263 1.04175 18.9596 2.97508 18.9596 7.50008V12.5001C18.9596 17.0251 17.0263 18.9584 12.5013 18.9584ZM7.5013 2.29175C3.65964 2.29175 2.29297 3.65841 2.29297 7.50008V12.5001C2.29297 16.3417 3.65964 17.7084 7.5013 17.7084H12.5013C16.343 17.7084 17.7096 16.3417 17.7096 12.5001V7.50008C17.7096 3.65841 16.343 2.29175 12.5013 2.29175H7.5013Z" fill="#363538"/>
<path d="M13.3346 16.4584H6.66797C4.6513 16.4584 3.54297 15.3501 3.54297 13.3334V6.66675C3.54297 4.65008 4.6513 3.54175 6.66797 3.54175H13.3346C15.3513 3.54175 16.4596 4.65008 16.4596 6.66675V13.3334C16.4596 15.3501 15.3513 16.4584 13.3346 16.4584ZM6.66797 4.79175C5.3513 4.79175 4.79297 5.35008 4.79297 6.66675V13.3334C4.79297 14.6501 5.3513 15.2084 6.66797 15.2084H13.3346C14.6513 15.2084 15.2096 14.6501 15.2096 13.3334V6.66675C15.2096 5.35008 14.6513 4.79175 13.3346 4.79175H6.66797Z" fill="#363538"/>
<path d="M6.23463 12.7084H4.16797C3.8263 12.7084 3.54297 12.4251 3.54297 12.0834C3.54297 11.7417 3.8263 11.4584 4.16797 11.4584H6.23463C7.04296 11.4584 7.69297 10.8001 7.69297 10.0001C7.69297 9.20008 7.03463 8.54175 6.23463 8.54175H4.16797C3.8263 8.54175 3.54297 8.25841 3.54297 7.91675C3.54297 7.57508 3.8263 7.29175 4.16797 7.29175H6.23463C7.7263 7.29175 8.94296 8.50841 8.94296 10.0001C8.94296 11.4917 7.73463 12.7084 6.23463 12.7084Z" fill="#363538"/>
<path d="M15.832 8.94995H13.332C12.9904 8.94995 12.707 8.66662 12.707 8.32495C12.707 7.98328 12.9904 7.69995 13.332 7.69995H15.832C16.1737 7.69995 16.457 7.98328 16.457 8.32495C16.457 8.66662 16.1737 8.94995 15.832 8.94995Z" fill="#363538"/>
<path d="M15.832 12.2917H13.332C12.9904 12.2917 12.707 12.0084 12.707 11.6667C12.707 11.3251 12.9904 11.0417 13.332 11.0417H15.832C16.1737 11.0417 16.457 11.3251 16.457 11.6667C16.457 12.0084 16.1737 12.2917 15.832 12.2917Z" fill="#363538"/>
<path d="M6.04036 10.8333C5.93203 10.8333 5.82369 10.8083 5.72369 10.7667C5.62369 10.725 5.53203 10.6667 5.44869 10.5917C5.29036 10.4334 5.20703 10.225 5.20703 10C5.20703 9.78335 5.29869 9.56666 5.44869 9.40833C5.68203 9.18333 6.0487 9.10003 6.35704 9.23336C6.46537 9.27503 6.55704 9.33333 6.63204 9.40833C6.78204 9.56666 6.8737 9.78335 6.8737 10C6.8737 10.225 6.79037 10.4334 6.63204 10.5917C6.5487 10.6667 6.45704 10.725 6.35704 10.7667C6.25704 10.8083 6.1487 10.8333 6.04036 10.8333Z" fill="#363538"/>
</svg>
