<svg width="24" height="25" viewBox="0 0 24 25" fill="none" xmlns="http://www.w3.org/2000/svg">
	<path d="M12 23.25C6.07 23.25 1.25 18.43 1.25 12.5C1.25 6.57 6.07 1.75 12 1.75C17.93 1.75 22.75 6.57 22.75 12.5C22.75 18.43 17.93 23.25 12 23.25ZM12 3.25C6.9 3.25 2.75 7.4 2.75 12.5C2.75 17.6 6.9 21.75 12 21.75C17.1 21.75 21.25 17.6 21.25 12.5C21.25 7.4 17.1 3.25 12 3.25Z" fill="#12AC59" />
	<path d="M10.5795 16.0796C10.3795 16.0796 10.1895 15.9996 10.0495 15.8596L7.21945 13.0296C6.92945 12.7396 6.92945 12.2596 7.21945 11.9696C7.50945 11.6796 7.98945 11.6796 8.27945 11.9696L10.5795 14.2696L15.7195 9.12961C16.0095 8.83961 16.4895 8.83961 16.7795 9.12961C17.0695 9.41961 17.0695 9.89961 16.7795 10.1896L11.1095 15.8596C10.9695 15.9996 10.7795 16.0796 10.5795 16.0796Z" fill="#12AC59" />
</svg>
