<svg width="20" height="20" viewBox="0 0 20 20" fill="none" xmlns="http://www.w3.org/2000/svg">
<path fill-rule="evenodd" clip-rule="evenodd" d="M14.0408 6.84972C14.1222 6.52481 14.1654 6.18476 14.1654 5.83464C14.1654 3.53345 12.2999 1.66797 9.9987 1.66797C7.69751 1.66797 5.83203 3.53345 5.83203 5.83464C5.83203 8.13582 7.69751 10.0013 9.9987 10.0013C11.494 10.0013 12.8053 9.21366 13.5404 8.03064L13.5404 9.32054C13.5404 10.0603 14.0245 10.6943 14.4376 11.1176C14.8768 11.5678 15.3812 11.9253 15.6699 12.1151C16.0143 12.3417 16.4551 12.3543 16.8129 12.1385C17.1073 11.9609 17.6174 11.624 18.0616 11.1742C18.49 10.7403 18.957 10.1003 18.957 9.32054V7.81081C18.957 7.33825 18.6727 6.89982 18.2198 6.72444L16.6573 6.11938C16.3942 6.0175 16.1032 6.0175 15.8401 6.11938L14.2776 6.72444C14.1925 6.75741 14.1133 6.79968 14.0408 6.84972ZM9.9987 8.7513C11.6095 8.7513 12.9154 7.44547 12.9154 5.83464C12.9154 4.2238 11.6095 2.91797 9.9987 2.91797C8.38787 2.91797 7.08203 4.2238 7.08203 5.83464C7.08203 7.44547 8.38787 8.7513 9.9987 8.7513ZM14.7904 7.86634L16.2487 7.30162L17.707 7.86634V9.32054C17.707 9.60012 17.5274 9.9361 17.1721 10.2959C16.8726 10.5992 16.5179 10.8487 16.2638 11.0086C16.0063 10.8335 15.6413 10.5615 15.3323 10.2447C14.9576 9.86069 14.7904 9.53777 14.7904 9.32054L14.7904 7.86634Z" fill="#363538"/>
<path fill-rule="evenodd" clip-rule="evenodd" d="M9.9987 18.3346C13.6806 18.3346 16.6654 16.6557 16.6654 14.5846C16.6654 12.5136 13.6806 10.8346 9.9987 10.8346C6.3168 10.8346 3.33203 12.5136 3.33203 14.5846C3.33203 16.6557 6.3168 18.3346 9.9987 18.3346ZM14.0999 16.1468C15.1259 15.5697 15.4154 14.968 15.4154 14.5846C15.4154 14.2013 15.1259 13.5996 14.0999 13.0225C13.1131 12.4674 11.6656 12.0846 9.9987 12.0846C8.33177 12.0846 6.88431 12.4674 5.89748 13.0225C4.87147 13.5996 4.58203 14.2013 4.58203 14.5846C4.58203 14.968 4.87147 15.5697 5.89748 16.1468C6.88431 16.7019 8.33177 17.0846 9.9987 17.0846C11.6656 17.0846 13.1131 16.7019 14.0999 16.1468Z" fill="#363538"/>
</svg>
