<svg width="20" height="20" viewBox="0 0 20 20" fill="none" xmlns="http://www.w3.org/2000/svg">
<path d="M14.168 18.957H5.83464C2.96797 18.957 1.04297 17.032 1.04297 14.1654V9.9987C1.04297 7.43203 2.6263 5.5737 5.08464 5.26537C5.31797 5.23204 5.5763 5.20703 5.83464 5.20703H14.168C14.368 5.20703 14.6263 5.21536 14.893 5.25703C17.3513 5.54036 18.9596 7.40703 18.9596 9.9987V14.1654C18.9596 17.032 17.0346 18.957 14.168 18.957ZM5.83464 6.45703C5.63464 6.45703 5.44297 6.47369 5.2513 6.49869C3.41797 6.73202 2.29297 8.06536 2.29297 9.9987V14.1654C2.29297 16.3154 3.68464 17.707 5.83464 17.707H14.168C16.318 17.707 17.7096 16.3154 17.7096 14.1654V9.9987C17.7096 8.0487 16.568 6.70704 14.718 6.49037C14.518 6.45704 14.343 6.45703 14.168 6.45703H5.83464Z" fill="#3D3D3D"/>
<path d="M5.16 6.50756C4.96 6.50756 4.77667 6.41589 4.65167 6.24923C4.51 6.05756 4.49333 5.80756 4.60167 5.59923C4.74333 5.31589 4.94333 5.04089 5.20167 4.79089L7.91 2.07422C9.29333 0.699219 11.5433 0.699219 12.9267 2.07422L14.385 3.54923C15.0017 4.15757 15.3767 4.97424 15.4183 5.8409C15.4267 6.03257 15.3517 6.21588 15.21 6.34088C15.0683 6.46588 14.8767 6.52423 14.6933 6.4909C14.5267 6.4659 14.3517 6.45756 14.1683 6.45756H5.835C5.635 6.45756 5.44333 6.47422 5.25167 6.49922C5.22667 6.50755 5.19333 6.50756 5.16 6.50756ZM6.55167 5.20756H14.0183C13.91 4.92423 13.735 4.6659 13.5017 4.43257L12.035 2.94923C11.1433 2.0659 9.685 2.0659 8.785 2.94923L6.55167 5.20756Z" fill="#3D3D3D"/>
<path d="M18.3346 14.3763H15.8346C14.568 14.3763 13.543 13.3513 13.543 12.0846C13.543 10.818 14.568 9.79297 15.8346 9.79297H18.3346C18.6763 9.79297 18.9596 10.0763 18.9596 10.418C18.9596 10.7596 18.6763 11.043 18.3346 11.043H15.8346C15.2596 11.043 14.793 11.5096 14.793 12.0846C14.793 12.6596 15.2596 13.1263 15.8346 13.1263H18.3346C18.6763 13.1263 18.9596 13.4096 18.9596 13.7513C18.9596 14.093 18.6763 14.3763 18.3346 14.3763Z" fill="#3D3D3D"/>
</svg>
