<svg width="38" height="38" viewBox="0 0 38 38" fill="none" xmlns="http://www.w3.org/2000/svg">
<path d="M8.42218 16.6038C8.12663 16.6038 7.81552 16.4794 7.59774 16.2616C7.27107 15.9194 7.16218 15.4216 7.34885 14.986L10.2422 8.07938C10.3044 7.93938 10.3355 7.84604 10.3822 7.76826C12.6844 2.46382 15.6244 1.17271 20.82 3.16382C21.1155 3.27271 21.3489 3.50604 21.4733 3.8016C21.5977 4.09715 21.5977 4.42382 21.4733 4.71937L16.9155 15.2972C16.7289 15.7327 16.3089 15.9972 15.8422 15.9972H11.4088C10.5222 15.9972 9.68218 16.1683 8.87329 16.5105C8.73329 16.5727 8.57774 16.6038 8.42218 16.6038ZM16.8377 4.61049C14.9088 4.61049 13.7266 5.87049 12.4977 8.73271C12.4822 8.77938 12.4511 8.82604 12.4355 8.87271L10.3977 13.7105C10.74 13.6794 11.0666 13.6638 11.4088 13.6638H15.0644L18.8133 4.95271C18.0822 4.71937 17.4289 4.61049 16.8377 4.61049Z" fill="#14205B"/>
<path d="M28.7859 16.3089C28.677 16.3089 28.5526 16.2934 28.4437 16.2623C27.8525 16.0912 27.2303 15.9978 26.577 15.9978H15.8437C15.4548 15.9978 15.0814 15.7956 14.8637 15.4689C14.6614 15.1423 14.6148 14.7223 14.7703 14.3645L19.2814 3.8956C19.5148 3.3356 20.1992 2.94671 20.7748 3.14893C20.9614 3.21116 21.1326 3.28893 21.3192 3.36671L24.9903 4.90671C27.137 5.79338 28.5681 6.72671 29.5014 7.84671C29.6881 8.06449 29.8437 8.29782 29.9992 8.54671C30.1703 8.81116 30.3259 9.12227 30.4348 9.44893C30.4814 9.55782 30.5592 9.76005 30.6059 9.97782C31.0414 11.4556 30.8237 13.26 29.8903 15.5934C29.6881 16.0289 29.2526 16.3089 28.7859 16.3089ZM17.617 13.6645H26.5926C27.0903 13.6645 27.5725 13.7112 28.0548 13.7889C28.4903 12.4356 28.5837 11.3934 28.3348 10.5534C28.3037 10.4134 28.2726 10.3512 28.257 10.2889C28.1637 10.04 28.1014 9.90005 28.0237 9.7756C27.9148 9.60449 27.837 9.46449 27.7126 9.32449C27.0437 8.5156 25.8614 7.76893 24.0881 7.03782L21.0237 5.76227L17.617 13.6645Z" fill="#14205B"/>
<path d="M25.068 35.7218H12.9346C12.4991 35.7218 12.0946 35.6907 11.6902 35.6441C6.23019 35.2863 3.11908 32.1596 2.74575 26.6374C2.69908 26.2952 2.66797 25.8752 2.66797 25.4552V22.4218C2.66797 18.9218 4.75241 15.7641 7.97241 14.3641C9.07686 13.8974 10.228 13.6641 11.4257 13.6641H26.608C27.4946 13.6641 28.3502 13.7885 29.1435 14.0374C32.7991 15.1418 35.3658 18.5952 35.3658 22.4218V25.4552C35.3658 25.7974 35.3502 26.1241 35.3346 26.4352C34.9924 32.5174 31.4458 35.7218 25.068 35.7218ZM11.4102 15.9974C10.5235 15.9974 9.68353 16.1685 8.87464 16.5107C6.51019 17.5374 4.98575 19.8552 4.98575 22.4218V25.4552C4.98575 25.7818 5.01686 26.1085 5.04797 26.4196C5.34352 30.853 7.5213 33.0307 11.8924 33.3263C12.2813 33.373 12.5924 33.4041 12.9191 33.4041H25.0524C30.1858 33.4041 32.7058 31.1485 32.9546 26.3263C32.9702 26.0463 32.9858 25.7663 32.9858 25.4552V22.4218C32.9858 19.6063 31.1035 17.0863 28.428 16.2618C27.8369 16.0907 27.2146 15.9974 26.5613 15.9974H11.4102Z" fill="#0C1438"/>
<path d="M3.81901 23.5889C3.18123 23.5889 2.65234 23.06 2.65234 22.4222V17.8645C2.65234 12.9645 6.12123 8.73335 10.9123 7.80002C11.3323 7.72224 11.7679 7.87779 12.0479 8.20446C12.3123 8.53113 12.3901 8.99779 12.219 9.38668L9.49679 15.8889C9.37234 16.1689 9.15457 16.3867 8.89012 16.5111C6.52568 17.5378 5.00123 19.8556 5.00123 22.4222C4.98568 23.06 4.47234 23.5889 3.81901 23.5889ZM9.04568 10.9422C7.05457 12.0622 5.6079 14.0222 5.15679 16.3089C5.84123 15.6089 6.63457 15.0178 7.53679 14.5822L9.04568 10.9422Z" fill="#0C1438"/>
<path d="M34.1824 23.5882C33.5447 23.5882 33.0158 23.0593 33.0158 22.4216C33.0158 19.606 31.1336 17.086 28.458 16.2616C28.1469 16.1682 27.8824 15.9504 27.7424 15.6549C27.6024 15.3593 27.5869 15.0171 27.7113 14.7216C28.4424 12.9016 28.6291 11.5793 28.3336 10.5527C28.3024 10.4127 28.2713 10.3504 28.2558 10.2882C28.0536 9.83711 28.1624 9.30822 28.5202 8.966C28.878 8.62377 29.4224 8.546 29.858 8.77933C33.2491 10.5527 35.3491 14.0371 35.3491 17.8638V22.4216C35.3491 23.0593 34.8202 23.5882 34.1824 23.5882ZM30.278 14.4727C31.258 14.9238 32.1291 15.5616 32.8602 16.3238C32.5647 14.7993 31.8336 13.4149 30.7602 12.326C30.6824 12.9793 30.5269 13.6949 30.278 14.4727Z" fill="#0C1438"/>
</svg>
