<svg width="30" height="30" viewBox="0 0 30 30" fill="none" xmlns="http://www.w3.org/2000/svg">
<rect width="30" height="30" rx="15" fill="#F2F2F2"/>
<path d="M21.2983 8.71022C21.2058 8.61752 21.0959 8.54397 20.9749 8.49379C20.8539 8.44361 20.7242 8.41778 20.5933 8.41778C20.4623 8.41778 20.3326 8.44361 20.2116 8.49379C20.0907 8.54397 19.9808 8.61752 19.8883 8.71022L14.9983 13.5902L10.1083 8.70022C10.0157 8.60764 9.90578 8.5342 9.78481 8.4841C9.66385 8.43399 9.5342 8.4082 9.40327 8.4082C9.27234 8.4082 9.14269 8.43399 9.02173 8.4841C8.90076 8.5342 8.79085 8.60764 8.69827 8.70022C8.60569 8.79281 8.53225 8.90272 8.48214 9.02368C8.43204 9.14464 8.40625 9.27429 8.40625 9.40522C8.40625 9.53615 8.43204 9.6658 8.48214 9.78677C8.53225 9.90773 8.60569 10.0176 8.69827 10.1102L13.5883 15.0002L8.69827 19.8902C8.60569 19.9828 8.53225 20.0927 8.48214 20.2137C8.43204 20.3346 8.40625 20.4643 8.40625 20.5952C8.40625 20.7262 8.43204 20.8558 8.48214 20.9768C8.53225 21.0977 8.60569 21.2076 8.69827 21.3002C8.79085 21.3928 8.90076 21.4662 9.02173 21.5163C9.14269 21.5665 9.27234 21.5922 9.40327 21.5922C9.5342 21.5922 9.66385 21.5665 9.78481 21.5163C9.90578 21.4662 10.0157 21.3928 10.1083 21.3002L14.9983 16.4102L19.8883 21.3002C19.9809 21.3928 20.0908 21.4662 20.2117 21.5163C20.3327 21.5665 20.4623 21.5922 20.5933 21.5922C20.7242 21.5922 20.8538 21.5665 20.9748 21.5163C21.0958 21.4662 21.2057 21.3928 21.2983 21.3002C21.3909 21.2076 21.4643 21.0977 21.5144 20.9768C21.5645 20.8558 21.5903 20.7262 21.5903 20.5952C21.5903 20.4643 21.5645 20.3346 21.5144 20.2137C21.4643 20.0927 21.3909 19.9828 21.2983 19.8902L16.4083 15.0002L21.2983 10.1102C21.6783 9.73022 21.6783 9.09022 21.2983 8.71022Z" fill="black"/>
</svg>
