<svg width="22" height="22" viewBox="0 0 22 22" fill="none" xmlns="http://www.w3.org/2000/svg">
<path d="M13.1992 11.4492H8.19922C7.78922 11.4492 7.44922 11.1092 7.44922 10.6992C7.44922 10.2892 7.78922 9.94922 8.19922 9.94922H13.1992C13.6092 9.94922 13.9492 10.2892 13.9492 10.6992C13.9492 11.1092 13.6092 11.4492 13.1992 11.4492Z" fill="white"/>
<path d="M10.6992 13.9492C10.2892 13.9492 9.94922 13.6092 9.94922 13.1992V8.19922C9.94922 7.78922 10.2892 7.44922 10.6992 7.44922C11.1092 7.44922 11.4492 7.78922 11.4492 8.19922V13.1992C11.4492 13.6092 11.1092 13.9492 10.6992 13.9492Z" fill="white"/>
<path d="M10.5 20.75C4.85 20.75 0.25 16.15 0.25 10.5C0.25 4.85 4.85 0.25 10.5 0.25C16.15 0.25 20.75 4.85 20.75 10.5C20.75 16.15 16.15 20.75 10.5 20.75ZM10.5 1.75C5.67 1.75 1.75 5.68 1.75 10.5C1.75 15.32 5.67 19.25 10.5 19.25C15.33 19.25 19.25 15.32 19.25 10.5C19.25 5.68 15.33 1.75 10.5 1.75Z" fill="white"/>
<path d="M21.0014 21.7514C20.8114 21.7514 20.6214 21.6814 20.4714 21.5314L18.4714 19.5314C18.1814 19.2414 18.1814 18.7614 18.4714 18.4714C18.7614 18.1814 19.2414 18.1814 19.5314 18.4714L21.5314 20.4714C21.8214 20.7614 21.8214 21.2414 21.5314 21.5314C21.3814 21.6814 21.1914 21.7514 21.0014 21.7514Z" fill="white"/>
</svg>
